<svg width="30" height="30" viewBox="0 0 30 30" fill="none" xmlns="http://www.w3.org/2000/svg">
<g id="office-2 1">
<g id="Layer 2">
<path id="Vector" d="M27.75 26.25H24.75V5.25C24.75 5.05109 24.671 4.86032 24.5303 4.71967C24.3897 4.57902 24.1989 4.5 24 4.5H21.75V2.25C21.75 2.05109 21.671 1.86032 21.5303 1.71967C21.3897 1.57902 21.1989 1.5 21 1.5H9C8.80109 1.5 8.61032 1.57902 8.46967 1.71967C8.32902 1.86032 8.25 2.05109 8.25 2.25V4.5H6C5.80109 4.5 5.61032 4.57902 5.46967 4.71967C5.32902 4.86032 5.25 5.05109 5.25 5.25V26.25H2.25C2.05109 26.25 1.86032 26.329 1.71967 26.4697C1.57902 26.6103 1.5 26.8011 1.5 27C1.5 27.1989 1.57902 27.3897 1.71967 27.5303C1.86032 27.671 2.05109 27.75 2.25 27.75H27.75C27.9489 27.75 28.1397 27.671 28.2803 27.5303C28.421 27.3897 28.5 27.1989 28.5 27C28.5 26.8011 28.421 26.6103 28.2803 26.4697C28.1397 26.329 27.9489 26.25 27.75 26.25ZM9.75 3H20.25V4.5H9.75V3ZM11.25 26.25V21.75H14.25V26.25H11.25ZM15.75 26.25V21.75H18.75V26.25H15.75ZM20.25 26.25V21C20.25 20.8011 20.171 20.6103 20.0303 20.4697C19.8897 20.329 19.6989 20.25 19.5 20.25H10.5C10.3011 20.25 10.1103 20.329 9.96967 20.4697C9.82902 20.6103 9.75 20.8011 9.75 21V26.25H6.75V6H23.25V26.25H20.25ZM21.75 9C21.75 9.19891 21.671 9.38968 21.5303 9.53033C21.3897 9.67098 21.1989 9.75 21 9.75H18C17.8011 9.75 17.6103 9.67098 17.4697 9.53033C17.329 9.38968 17.25 9.19891 17.25 9C17.25 8.80109 17.329 8.61032 17.4697 8.46967C17.6103 8.32902 17.8011 8.25 18 8.25H21C21.1989 8.25 21.3897 8.32902 21.5303 8.46967C21.671 8.61032 21.75 8.80109 21.75 9ZM12.75 9C12.75 9.19891 12.671 9.38968 12.5303 9.53033C12.3897 9.67098 12.1989 9.75 12 9.75H9C8.80109 9.75 8.61032 9.67098 8.46967 9.53033C8.32902 9.38968 8.25 9.19891 8.25 9C8.25 8.80109 8.32902 8.61032 8.46967 8.46967C8.61032 8.32902 8.80109 8.25 9 8.25H12C12.1989 8.25 12.3897 8.32902 12.5303 8.46967C12.671 8.61032 12.75 8.80109 12.75 9ZM21.75 12.75C21.75 12.9489 21.671 13.1397 21.5303 13.2803C21.3897 13.421 21.1989 13.5 21 13.5H18C17.8011 13.5 17.6103 13.421 17.4697 13.2803C17.329 13.1397 17.25 12.9489 17.25 12.75C17.25 12.5511 17.329 12.3603 17.4697 12.2197C17.6103 12.079 17.8011 12 18 12H21C21.1989 12 21.3897 12.079 21.5303 12.2197C21.671 12.3603 21.75 12.5511 21.75 12.75ZM12.75 12.75C12.75 12.9489 12.671 13.1397 12.5303 13.2803C12.3897 13.421 12.1989 13.5 12 13.5H9C8.80109 13.5 8.61032 13.421 8.46967 13.2803C8.32902 13.1397 8.25 12.9489 8.25 12.75C8.25 12.5511 8.32902 12.3603 8.46967 12.2197C8.61032 12.079 8.80109 12 9 12H12C12.1989 12 12.3897 12.079 12.5303 12.2197C12.671 12.3603 12.75 12.5511 12.75 12.75ZM21.75 16.5C21.75 16.6989 21.671 16.8897 21.5303 17.0303C21.3897 17.171 21.1989 17.25 21 17.25H18C17.8011 17.25 17.6103 17.171 17.4697 17.0303C17.329 16.8897 17.25 16.6989 17.25 16.5C17.25 16.3011 17.329 16.1103 17.4697 15.9697C17.6103 15.829 17.8011 15.75 18 15.75H21C21.1989 15.75 21.3897 15.829 21.5303 15.9697C21.671 16.1103 21.75 16.3011 21.75 16.5ZM12.75 16.5C12.75 16.6989 12.671 16.8897 12.5303 17.0303C12.3897 17.171 12.1989 17.25 12 17.25H9C8.80109 17.25 8.61032 17.171 8.46967 17.0303C8.32902 16.8897 8.25 16.6989 8.25 16.5C8.25 16.3011 8.32902 16.1103 8.46967 15.9697C8.61032 15.829 8.80109 15.75 9 15.75H12C12.1989 15.75 12.3897 15.829 12.5303 15.9697C12.671 16.1103 12.75 16.3011 12.75 16.5Z" fill="black"/>
</g>
</g>
</svg>
