<svg width="1920" height="1000" viewBox="0 0 1920 1000" fill="none" xmlns="http://www.w3.org/2000/svg">
<g opacity="0.1">
<path d="M2451.71 1017.96C2146.86 1143.01 1959.29 1223.7 1850 1010.91C1740.72 798.119 1746.34 491.949 1477.13 499.572C1207.93 507.186 670.834 883.392 466.14 800.832C261.446 718.271 550.866 259.517 347.516 187.935C144.184 116.353 -305.138 474.165 -486.725 416.422C-668.314 358.689 -492.921 -150.837 -840.944 -249.837" stroke="#C82121" stroke-opacity="0.5" stroke-width="1.45"/>
<path d="M2460.98 1026.11C2161.05 1148.5 1976.29 1223.49 1867.68 1016.31C1804.45 897.14 1778.02 748.122 1718.14 644.393C1673.33 566.186 1607.81 513.362 1492.97 516.479C1226.48 523.849 700.057 886.135 494.779 806.51C290.937 726.966 562.312 280.084 359.778 205.256C160.184 131.498 -276.519 470.098 -457.3 412.908C-647.519 353.069 -504.331 -147.188 -844.145 -252.473" stroke="#C82121" stroke-opacity="0.5" stroke-width="1.4"/>
<path d="M2470.23 1034.35C2175.26 1154.11 1994.36 1223.17 1885.3 1021.79C1821.84 904.443 1793.21 758.133 1733.17 657.282C1688.34 581.365 1622.66 530.456 1508.81 533.529C1245.3 540.68 728.808 889.392 523.323 812.349C320.076 736.102 573.687 300.86 372.013 222.739C176.005 146.867 -247.891 466.185 -427.895 409.461C-626.558 347.387 -515.825 -143.484 -847.354 -255.022" stroke="#C82121" stroke-opacity="0.5" stroke-width="1.33"/>
<path d="M2479.49 1042.55C2189.46 1159.69 2011.78 1222.92 1902.96 1027.21C1838.82 911.966 1808.44 768.069 1748.23 670.002C1703.53 596.369 1637.48 547.427 1524.63 550.398C1264.02 557.282 757.848 892.284 551.925 817.999C349.178 744.875 585.08 321.464 384.306 240.034C191.983 162.06 -218.984 461.887 -398.413 405.816C-605.086 341.344 -527.299 -139.751 -850.618 -257.649" stroke="#C82121" stroke-opacity="0.5" stroke-width="1.28"/>
<path d="M2488.69 1050.74C2203.47 1165.21 2029.21 1222.68 1920.6 1032.67C1855.82 919.328 1823.28 778.169 1763.27 682.769C1718.45 611.51 1652.28 564.455 1540.45 567.326C1282.66 573.987 786.862 895.234 580.487 823.698C378.452 753.739 596.381 342.193 396.535 257.405C207.837 177.366 -190.264 457.739 -369.089 402.283C-584.102 335.503 -538.933 -136.105 -854.004 -260.238" stroke="#C82121" stroke-opacity="0.5" stroke-width="1.21"/>
<path d="M2497.95 1058.93C2217.86 1170.78 2046.57 1222.37 1938.23 1038.09C1872.79 926.723 1838.4 788.204 1778.31 695.561C1733.57 626.613 1667.08 581.497 1556.27 584.277C1301.4 590.7 815.934 898.209 609.106 829.42C407.797 762.571 607.78 362.918 408.838 274.8C223.7 192.753 -161.76 453.686 -339.507 398.722C-562.901 329.727 -550.235 -132.438 -857.076 -262.807" stroke="#C82121" stroke-opacity="0.5" stroke-width="1.16"/>
<path d="M2507.22 1067.11C2232.11 1176.29 2063.93 1222.17 1955.91 1043.49C1889.78 934.101 1853.59 798.051 1793.41 708.335C1748.71 641.679 1681.91 598.523 1572.13 601.192C1320.14 607.347 845.238 901.143 637.712 835.125C437.119 771.356 619.135 383.749 421.1 292.149C239.562 208.141 -132.834 449.586 -310.041 395.141C-541.791 323.903 -561.729 -128.764 -860.177 -265.47" stroke="#C82121" stroke-opacity="0.5" stroke-width="1.09"/>
<path d="M2516.48 1075.31C2246.36 1181.86 2081.23 1221.96 1973.53 1048.94C1906.7 941.5 1868.63 808.042 1808.46 721.113C1763.87 656.788 1696.73 615.581 1587.95 618.149C1338.88 624.084 874.128 903.957 666.277 840.862C466.415 780.183 630.337 404.513 433.396 309.579C255.328 223.579 -104.25 445.56 -280.579 391.583C-520.721 318.111 -573.151 -125.094 -863.534 -268.059" stroke="#C82121" stroke-opacity="0.5" stroke-width="1.03"/>
<path d="M2525.73 1083.5C2260.48 1187.4 2098.45 1221.74 1991.19 1054.39C1923.61 948.917 1883.85 818.035 1823.48 734.032C1778.96 672 1711.5 632.732 1603.74 635.228C1357.47 640.911 903.238 906.985 694.814 846.712C495.768 789.124 641.511 425.601 445.635 326.959C270.849 239.106 -75.486 441.565 -251.113 388.081C-499.676 312.346 -584.634 -121.455 -866.744 -270.693" stroke="#C82121" stroke-opacity="0.5" stroke-width="0.97"/>
<path d="M2534.94 1091.68C2274.7 1192.96 2115.65 1221.51 2008.83 1059.81C1940.35 956.31 1899.01 827.997 1838.52 746.674C1794.12 686.973 1726.36 649.655 1619.55 652.029C1376.14 657.501 932.395 909.765 723.416 852.304C525.154 797.798 652.675 446.381 457.874 344.27C286.717 254.686 -46.8524 437.479 -221.67 384.463C-478.641 306.56 -596.145 -117.704 -870.048 -273.149" stroke="#C82121" stroke-opacity="0.5" stroke-width="0.91"/>
<path d="M2543.99 1099.88C2288.7 1198.5 2132.55 1221.4 2026.25 1065.23C1957.28 963.695 1913.99 837.982 1853.36 759.461C1809.08 702.044 1740.96 666.694 1635.17 668.977C1394.81 674.203 961.334 912.642 751.953 858.007C554.518 806.545 663.811 467.33 470.129 361.647C302.35 270.098 -18.2361 433.449 -192.267 380.928C-457.666 300.791 -607.665 -114.06 -873.307 -275.863" stroke="#C82121" stroke-opacity="0.5" stroke-width="0.85"/>
<path d="M2553.45 1108.07C2303.09 1204.06 2149.98 1221.12 2044.11 1070.68C1974.14 971.146 1929.37 847.938 1868.62 772.23C1824.45 717.125 1755.98 683.743 1651.2 685.896C1413.54 690.879 990.777 915.494 780.606 863.723C583.999 815.306 674.926 488.299 482.434 379.025C318.018 285.644 10.4309 429.42 -162.734 377.348C-436.536 294.949 -619.185 -110.358 -876.435 -278.499" stroke="#C82121" stroke-opacity="0.5" stroke-width="0.79"/>
<path d="M2562.71 1116.25C2317.3 1209.59 2166.89 1220.94 2061.78 1076.1C1990.97 978.575 1944.63 857.927 1883.67 785.02C1839.6 732.227 1770.8 700.765 1667.06 702.847C1432.26 707.532 1019.96 918.327 809.181 869.444C613.46 824.044 685.961 509.282 494.735 396.392C333.564 301.233 39.0909 425.389 -133.247 373.784C-415.572 289.263 -630.547 -106.693 -879.686 -281.072" stroke="#C82121" stroke-opacity="0.5" stroke-width="0.72"/>
<path d="M2572.1 1124.47C2331.7 1215.15 2184.06 1220.76 2079.58 1081.53C2007.9 986.006 1959.92 867.888 1898.93 797.796C1854.98 747.316 1785.78 717.82 1683.05 719.782C1451.11 724.294 1049.36 921.165 837.995 875.17C643.113 832.767 697.136 530.316 507.407 413.775C349.547 316.86 68.1695 421.395 -103.387 370.238C-394.104 283.549 -641.563 -102.983 -882.498 -283.693" stroke="#C82121" stroke-opacity="0.5" stroke-width="0.67"/>
<path d="M2581.2 1132.64C2345.76 1220.68 2200.98 1220.59 2097.22 1086.94C2024.62 993.421 1975.12 877.845 1913.95 810.575C1870.29 762.382 1800.56 734.85 1698.86 736.654C1469.79 740.945 1078.6 923.903 866.503 880.812C672.548 841.398 707.951 551.284 519.436 431.058C364.743 332.334 96.5021 417.298 -74.1719 366.59C-373.519 277.795 -653.408 -99.2442 -886.119 -286.305" stroke="#C82121" stroke-opacity="0.5" stroke-width="0.6"/>
<path d="M2590.43 1140.92C2359.93 1226.25 2217.66 1220.48 2114.65 1092.39C2041.13 1000.88 1990.16 887.806 1928.89 823.368C1885.21 777.37 1815.21 751.969 1714.52 753.653C1488.34 757.676 1107.72 926.759 894.95 886.611C701.898 850.148 718.681 572.436 531.54 448.501C379.976 348.13 124.997 413.353 -44.898 363.102C-352.518 272.076 -664.934 -95.6358 -889.373 -288.894" stroke="#C82121" stroke-opacity="0.5" stroke-width="0.55"/>
<path d="M2599.71 1149.02C2374.14 1231.81 2234.42 1220.34 2132.34 1097.9C2057.8 1008.42 2005.41 897.844 1943.89 836.207C1900.39 792.608 1830.07 768.995 1730.32 770.671C1507 774.454 1136.96 929.586 923.417 892.379C731.398 858.823 729.454 593.53 543.895 465.947C395.441 363.862 153.666 409.448 -15.3538 359.609C-331.576 266.363 -676.552 -91.9555 -892.625 -291.513" stroke="#C82121" stroke-opacity="0.5" stroke-width="0.48"/>
<path d="M2608.96 1157.22C2388.36 1237.34 2251.13 1220.21 2150.02 1103.24C2074.37 1015.84 2020.64 907.73 1958.91 848.989C1915.67 807.611 1844.89 785.963 1746.18 787.52C1525.66 791.08 1166.24 932.252 952.144 897.925C760.925 867.383 740.02 614.63 556.101 483.16C410.86 379.365 182.285 405.257 14.0903 355.894C-310.683 260.64 -687.858 -88.2962 -895.812 -294.12" stroke="#C82121" stroke-opacity="0.5" stroke-width="0.43"/>
<path d="M2618.19 1165.36C2402.54 1242.85 2267.82 1220.1 2167.65 1108.65C2090.96 1023.27 2035.93 917.627 1974.01 861.64C1930.89 822.574 1859.72 802.96 1761.8 804.44C1544.15 807.76 1195.35 934.962 980.524 903.711C790.226 876.044 750.621 635.739 568.121 500.59C425.786 395.008 210.653 401.335 43.2969 352.393C-289.823 254.925 -699.537 -84.6363 -899.266 -296.744" stroke="#C82121" stroke-opacity="0.5" stroke-width="0.36"/>
<path d="M2627.43 1173.58C2416.92 1248.44 2284.39 1220.07 2185.26 1114.11C2107.54 1030.83 2051.2 927.614 1988.99 874.474C1946.05 837.799 1874.29 820.041 1777.78 821.419C1563.03 824.472 1224.85 937.657 1009.05 909.456C819.742 884.666 761.187 656.928 580.169 517.976C440.786 410.839 239.001 397.361 72.515 348.848C-269.162 249.257 -711.271 -80.9544 -902.762 -299.326" stroke="#C82121" stroke-opacity="0.5" stroke-width="0.31"/>
<path d="M2636.7 1181.79C2431.01 1253.91 2301.02 1220 2202.97 1119.54C2123.67 1038.36 2066.52 937.558 2004.15 887.173C1961.37 852.735 1889.35 836.957 1793.66 838.267C1581.77 841.099 1254.23 940.201 1037.93 915.109C849.537 893.203 771.991 678.051 592.904 535.286C456.479 426.499 267.869 393.498 102.491 345.22C-248.308 243.923 -722.237 -77.3271 -905.48 -302.01" stroke="#C82121" stroke-opacity="0.5" stroke-width="0.24"/>
<path opacity="0.8" d="M2645.95 1189.99C2445.29 1259.54 2317.35 1220.07 2220.58 1124.99C2140.17 1045.93 2081.97 947.476 2019.18 900.04C1976.63 867.84 1904.15 854.123 1809.46 855.294C1600.45 857.886 1283.51 942.97 1066.47 920.888C879.042 901.838 782.428 699.308 605.186 552.729C471.598 442.299 296.506 389.562 131.943 341.733C-227.165 238.346 -733.695 -73.5586 -908.824 -304.557" stroke="#C82121" stroke-opacity="0.5" stroke-width="0.19"/>
<path opacity="0.8" d="M2655.21 1198.17C2459.46 1265.1 2333.68 1220.11 2238.25 1130.42C2156.43 1053.56 2097.22 957.368 2034.22 912.809C1991.93 882.906 1918.94 871.172 1825.33 872.225C1619.13 874.661 1312.8 945.595 1095.08 926.608C908.568 910.452 792.859 720.514 617.436 570.093C486.718 458.019 325.149 385.529 161.197 338.21C-206.153 232.536 -745.193 -69.8978 -912.002 -307.148" stroke="#C82121" stroke-opacity="0.5" stroke-width="0.12"/>
<path opacity="0.8" d="M2664.41 1206.37C2473.58 1270.63 2350 1220.19 2255.91 1135.84C2172.61 1061.21 2112.58 967.26 2049.27 925.596C2007.18 897.911 1933.75 888.21 1841.13 889.171C1637.83 891.272 1342.09 948.159 1123.66 932.306C938.103 918.864 803.349 741.739 629.734 587.446C501.821 473.718 353.809 381.475 190.789 334.683C-185.162 226.856 -756.621 -66.1335 -915.257 -309.669" stroke="#C82121" stroke-opacity="0.5" stroke-width="0.07"/>
</g>
</svg>
