<svg width="1920" height="1000" viewBox="0 0 1920 1000" fill="none" xmlns="http://www.w3.org/2000/svg">
<g clip-path="url(#clip0_155_8)">
<rect width="1920" height="1000" fill="#3F5D79"/>
<g clip-path="url(#clip1_155_8)">
<path d="M1659.83 755.653C1642.36 773.661 1626.73 784.245 1614.76 792.234C1498.03 870.167 1364.58 847.707 1323.33 840.03C1256.77 827.641 1200.58 818.901 1152.31 775.296C1042.61 676.204 1047.94 469.488 1131.76 341.433C1141.71 326.249 1225.39 202.2 1359.13 184.72C1362.4 184.289 1364.84 184.051 1366.98 183.821C1387.66 181.628 1515.86 170.071 1620.39 257.636C1635.36 270.174 1659.44 292.783 1681.77 327.26C1763.42 453.346 1763.68 648.624 1659.84 755.646L1659.83 755.653Z" fill="url(#paint0_linear_155_8)"/>
<path d="M1094.29 240.965C1095.21 237.888 1099.66 238.089 1100.28 241.24C1106.3 271.741 1124.59 351.22 1158.9 395.33C1214.77 467.161 1246.88 579.177 1203.27 632.451C1203.27 632.451 993.771 576.591 1094.28 240.958L1094.29 240.965Z" fill="#BDD0FB"/>
<path opacity="0.43" d="M1096.82 284.004C1096.82 284.985 1096.89 285.795 1096.94 286.672L1097.13 289.251L1097.56 294.394C1097.87 297.82 1098.23 301.239 1098.6 304.658C1099.35 311.488 1100.19 318.318 1101.09 325.133C1102.91 338.764 1105.1 352.342 1107.5 365.883C1109.88 379.432 1112.64 392.907 1115.68 406.329C1118.73 419.744 1121.97 433.114 1125.65 446.381C1132.97 472.913 1141.72 499.074 1152.3 524.507C1157.72 537.164 1163.47 549.687 1169.94 561.853C1176.49 573.967 1183.56 585.807 1191.46 597.074C1191.63 597.319 1191.98 597.378 1192.22 597.207C1192.46 597.036 1192.53 596.717 1192.37 596.472C1184.94 584.937 1178.14 573.031 1171.94 560.82C1165.7 548.624 1160.18 536.071 1155 523.399C1149.82 510.72 1145.15 497.833 1140.77 484.849C1136.4 471.858 1132.57 458.695 1128.82 445.518C1121.42 419.12 1115.43 392.327 1110.18 365.408C1107.59 351.941 1105.26 338.414 1103.18 324.851C1102.13 318.073 1101.14 311.28 1100.23 304.48L1098.95 294.268L1098.37 289.162L1098.1 286.605C1098.02 285.766 1097.94 284.866 1097.9 284.13V284.012C1097.88 283.714 1097.63 283.484 1097.33 283.499C1097.04 283.514 1096.82 283.751 1096.82 284.034V284.004Z" fill="white"/>
<path d="M1203.04 181.346C1204.72 178.774 1208.75 180.171 1208.46 183.233C1205.65 212.843 1200.75 290.724 1220.18 340.534C1251.81 421.64 1250.7 533.129 1196.18 570.089C1196.18 570.089 1019.3 461.714 1203.03 181.338L1203.04 181.346Z" fill="#91B3FA"/>
<path opacity="0.43" d="M1193.61 221.5C1193.34 222.4 1193.18 223.165 1192.99 223.975L1192.46 226.391L1191.45 231.222C1190.8 234.447 1190.2 237.68 1189.6 240.913C1188.42 247.386 1187.32 253.867 1186.29 260.37C1184.24 273.369 1182.55 286.412 1181.05 299.485C1179.54 312.558 1178.38 325.669 1177.51 338.801C1176.65 351.934 1175.97 365.081 1175.74 378.251C1175.2 404.575 1176.1 430.959 1178.86 457.165C1180.38 470.253 1182.24 483.311 1184.86 496.228C1187.56 509.122 1190.83 521.913 1195 534.399C1195.08 534.674 1195.39 534.823 1195.66 534.733C1195.93 534.644 1196.08 534.354 1196.01 534.087C1192.34 521.482 1189.35 508.706 1187.01 495.811C1184.62 482.924 1182.98 469.911 1181.68 456.875C1180.4 443.831 1179.63 430.744 1179.16 417.641C1178.7 404.538 1178.78 391.42 1178.93 378.31C1179.35 352.082 1181.17 325.884 1183.7 299.76C1184.99 286.702 1186.55 273.666 1188.34 260.66C1189.22 254.157 1190.16 247.661 1191.18 241.173L1192.8 231.459L1193.65 226.614L1194.1 224.198C1194.27 223.41 1194.42 222.556 1194.59 221.879L1194.62 221.76C1194.69 221.478 1194.52 221.196 1194.24 221.129C1193.97 221.062 1193.69 221.218 1193.62 221.485L1193.61 221.5Z" fill="white"/>
<path d="M1113.71 771.067C1113.71 776.908 1118.49 781.687 1124.34 781.687H1699.38C1705.22 781.687 1710.01 776.908 1710.01 771.067L1714.8 440.643C1714.8 434.802 1707.92 423.393 1695.3 424.255L1133.31 409.718C1125.98 409.525 1118.88 412.349 1113.68 417.529C1108.49 422.71 1105.64 429.792 1105.82 437.12L1113.71 771.067H1113.71Z" fill="url(#paint1_linear_155_8)"/>
<path d="M1124.2 760.877C1124.2 766.407 1128.73 770.933 1134.26 770.933H1685.5C1691.03 770.933 1695.56 766.407 1695.56 760.877L1700.07 460.918C1699.53 442.865 1683.71 436.377 1674.11 436.764L1135.5 422.316C1130.34 422.174 1125.36 424.166 1121.71 427.808C1118.06 431.45 1116.06 436.437 1116.18 441.587L1124.2 760.877H1124.2Z" fill="url(#paint2_linear_155_8)"/>
<path opacity="0.58" d="M1689.61 618.374H1689.59C1688.77 618.359 1688.12 617.69 1688.14 616.88L1688.49 592.555C1688.51 591.752 1689.16 591.105 1689.97 591.105H1689.98C1690.81 591.12 1691.45 591.789 1691.44 592.599L1691.08 616.925C1691.07 617.727 1690.41 618.374 1689.61 618.374Z" fill="white"/>
<path opacity="0.58" d="M1690.49 558.761H1690.46C1689.65 558.746 1689 558.077 1689.01 557.267L1690.38 464.099C1690.36 458.562 1688.68 454.147 1685.39 450.996C1679.25 445.117 1669.5 445.414 1669.09 445.437L1496.94 440.821C1496.13 440.799 1495.48 440.123 1495.51 439.305C1495.53 438.495 1496.15 437.796 1497.02 437.871L1669.07 442.486C1670.14 442.419 1680.52 442.241 1687.43 448.863C1691.32 452.586 1693.3 457.714 1693.33 464.113L1691.97 557.312C1691.95 558.115 1691.3 558.761 1690.49 558.761H1690.49Z" fill="white"/>
<path d="M1071.26 809.119L1740.8 809.119C1743.12 809.119 1745 807.239 1745 804.92V784.288C1745 781.969 1743.12 780.089 1740.8 780.089L1071.26 780.089C1068.94 780.089 1067.06 781.969 1067.06 784.288V804.92C1067.06 807.239 1068.94 809.119 1071.26 809.119Z" fill="url(#paint3_linear_155_8)"/>
<path d="M1559.43 249.03L1204.69 246.86C1193.04 246.785 1183.71 256.529 1184.29 268.168L1208.69 772.108H1603.45L1625.37 321.864L1559.43 249.03Z" fill="#BDD0FB"/>
<path d="M1574.18 319.702C1562.62 319.293 1553.74 309.334 1554.65 297.814L1558.46 249.691L1625.44 321.567L1574.18 319.702H1574.18Z" fill="#7D97F4"/>
<path opacity="0.78" d="M1243.14 345.037C1292.31 344.569 1481.1 342.592 1528.78 342.087C1534.79 342.02 1539.71 345.699 1539.64 350.203C1539.58 354.484 1535.01 357.939 1529.28 358.021L1243.81 362.005C1238.31 362.079 1233.61 359.01 1232.96 354.915L1232.8 353.882C1232.06 349.199 1236.85 345.097 1243.14 345.037Z" fill="white"/>
<path opacity="0.78" d="M1239.35 395.041C1240.17 396.096 1241.69 396.75 1243.32 396.75L1439.3 396.274C1441.76 396.274 1443.75 394.788 1443.77 392.952L1443.91 383.283C1443.94 381.366 1441.83 379.797 1439.26 379.835L1248.71 382.532C1240.22 382.651 1235.07 389.534 1239.35 395.048L1239.35 395.041Z" fill="white"/>
<path opacity="0.61" d="M1548.77 668.541H1260.81C1254.26 668.541 1248.85 662.61 1248.5 655.052L1239.36 454.69C1238.98 446.544 1244.6 439.699 1251.67 439.699H1553.76C1560.71 439.699 1566.28 446.329 1566.08 454.348L1561.1 654.71C1560.9 662.409 1555.44 668.541 1548.77 668.541Z" fill="white"/>
<path d="M1548.77 669.768H1260.81C1253.6 669.768 1247.64 663.324 1247.27 655.097L1238.13 454.735C1237.91 450.105 1239.51 445.653 1242.51 442.517C1245.01 439.893 1248.27 438.451 1251.67 438.451H1553.76C1557.11 438.451 1560.33 439.856 1562.82 442.412C1565.79 445.46 1567.43 449.815 1567.32 454.371L1562.33 654.733C1562.12 663.161 1556.16 669.768 1548.77 669.768ZM1251.67 440.926C1248.94 440.926 1246.32 442.1 1244.28 444.226C1241.76 446.872 1240.4 450.67 1240.58 454.623L1249.72 654.985C1250.04 661.89 1254.9 667.3 1260.81 667.3H1548.76C1554.81 667.3 1559.68 661.748 1559.85 654.673L1564.84 454.311C1564.94 450.417 1563.56 446.708 1561.04 444.137C1559.02 442.063 1556.43 440.926 1553.74 440.926H1251.67Z" fill="white"/>
<path d="M1566.39 483.832H1241.01V486.299H1566.39V483.832Z" fill="white"/>
<path d="M1563.92 533.129H1242.65V535.596H1563.92V533.129Z" fill="white"/>
<path d="M1563.92 587.354H1245.93V589.821H1563.92V587.354Z" fill="white"/>
<path d="M1561.64 631.587L1247.62 634.656L1247.64 637.124L1561.66 634.055L1561.64 631.587Z" fill="white"/>
<path d="M1333.03 439.469H1330.56V667.872H1333.03V439.469Z" fill="white"/>
<path d="M1411.49 734.828C1412.6 720.699 1417.39 706.846 1424.92 694.695C1428.7 688.623 1433.14 682.944 1438.23 677.876C1439.54 676.642 1440.81 675.371 1442.15 674.175C1443.52 673.015 1444.87 671.819 1446.27 670.696C1447.71 669.619 1449.13 668.511 1450.61 667.486L1452.87 665.999L1454 665.256L1454.56 664.884C1454.76 664.758 1455.04 664.595 1455.28 664.461C1459.24 662.276 1464.93 662.172 1468.77 666.029C1469.71 666.958 1470.36 668.073 1470.85 669.165C1471.07 669.715 1471.28 670.273 1471.41 670.815C1471.57 671.365 1471.66 671.9 1471.76 672.435C1472.1 674.576 1472.01 676.568 1471.8 678.485C1471.7 679.444 1471.54 680.388 1471.38 681.302L1470.87 683.896C1470.54 685.627 1470.15 687.344 1469.78 689.068C1469.02 692.51 1468.16 695.921 1467.25 699.325C1463.57 712.925 1458.7 726.199 1452.68 738.93L1450.38 743.679C1449.57 745.24 1448.78 746.816 1447.96 748.377L1446.71 750.703L1446.09 751.862L1445.4 753.074C1444.44 754.686 1443.38 756.255 1442.14 757.748C1440.9 759.235 1439.49 760.662 1437.73 761.858C1435.99 763.048 1433.8 764.006 1431.37 764.125C1430.77 764.185 1430.17 764.125 1429.56 764.058C1428.95 764.029 1428.4 763.828 1427.82 763.694C1426.66 763.382 1425.58 762.825 1424.62 762.148C1422.7 760.781 1421.31 758.893 1420.45 756.849C1419.63 754.835 1419.26 752.732 1419.25 750.688C1419.22 748.644 1419.53 746.697 1419.95 744.861C1420.38 743.018 1420.9 741.301 1421.49 739.614L1422.35 737.072L1423.33 734.568C1425.94 727.901 1429.4 721.591 1433.44 715.713C1437.46 709.811 1442.21 704.438 1447.45 699.6L1448.43 698.686L1449.45 697.823L1451.49 696.099C1452.18 695.542 1452.9 695.007 1453.6 694.464C1454.31 693.922 1455 693.364 1455.74 692.866C1457.21 691.848 1458.65 690.808 1460.17 689.879L1461.3 689.165L1461.87 688.808C1461.97 688.749 1462.04 688.697 1462.16 688.623L1462.54 688.414C1463.54 687.887 1464.64 687.53 1465.78 687.411C1468.04 687.144 1470.47 687.82 1472.24 689.418C1473.14 690.213 1473.86 691.358 1474.2 692.539C1474.55 693.721 1474.53 694.858 1474.44 695.876C1474.32 696.902 1474.11 697.846 1473.87 698.73L1473.16 701.265L1471.75 706.281C1469.89 712.977 1467.95 719.652 1466.04 726.34V726.355L1463.1 725.828C1463.32 723.576 1463.93 721.301 1465.17 719.265C1465.8 718.254 1466.57 717.318 1467.55 716.537C1468.52 715.742 1469.64 715.192 1470.83 714.836C1472.03 714.501 1473.3 714.382 1474.58 714.59C1475.22 714.694 1475.85 714.873 1476.45 715.155C1476.76 715.281 1477.04 715.46 1477.33 715.623L1477.92 715.995C1479.36 716.805 1481.16 716.954 1482.63 716.307C1483 716.158 1483.34 715.943 1483.67 715.713C1483.82 715.586 1483.99 715.467 1484.12 715.319L1484.34 715.103L1484.61 714.821L1486.75 712.539L1491.03 707.976L1495.32 703.412L1497.46 701.131C1497.98 700.573 1498.73 700.09 1499.57 699.919C1500.41 699.741 1501.28 699.86 1502.02 700.194C1502.76 700.529 1503.4 701.079 1503.84 701.8C1504.28 702.513 1504.47 703.412 1504.37 704.237C1504.36 704.453 1504.31 704.646 1504.26 704.839C1504.2 705.025 1504.14 705.263 1504.1 705.345L1503.85 706.066L1503.36 707.515C1502.73 709.455 1502.21 711.424 1501.76 713.416C1501.32 715.408 1500.97 717.414 1500.72 719.436C1500.69 719.681 1500.65 719.949 1500.63 720.187L1500.61 720.803C1500.58 721.012 1500.63 721.212 1500.65 721.413C1500.69 721.606 1500.67 721.822 1500.75 722.008C1500.92 722.795 1501.34 723.494 1501.85 724.111C1502.36 724.735 1503.07 725.196 1503.83 725.508C1504.2 725.686 1504.6 725.761 1504.99 725.857C1505.39 725.894 1505.8 725.954 1506.2 725.902C1507 725.835 1507.79 725.634 1508.47 725.181L1508.74 725.032L1508.98 724.832L1509.46 724.438L1510.57 723.353C1513.51 720.462 1516.33 717.444 1519 714.3C1524.33 708.005 1529.11 701.242 1533.25 694.1L1534.76 691.402L1535.49 690.042L1535.85 689.358L1535.94 689.187C1535.94 689.187 1535.94 689.18 1535.94 689.172C1535.96 689.172 1535.93 689.187 1535.94 689.21C1535.94 689.321 1535.99 689.351 1535.98 689.336C1535.98 689.336 1536 689.351 1536.05 689.343C1536.09 689.336 1536.15 689.321 1536.15 689.314L1536.02 689.447L1535.76 689.715C1535.58 689.893 1535.41 690.072 1535.24 690.258C1534.9 690.622 1534.56 690.993 1534.23 691.372C1532.93 692.889 1531.74 694.509 1530.69 696.218C1530.17 697.073 1529.68 697.95 1529.22 698.842C1528.99 699.288 1528.77 699.741 1528.56 700.194L1528.26 700.878L1528.11 701.22L1528.01 701.532C1527.42 703.145 1527.41 704.929 1528.15 706.46C1528.87 707.983 1530.18 709.276 1531.78 709.856C1532.56 710.205 1533.42 710.272 1534.25 710.295C1535.08 710.213 1535.93 710.079 1536.7 709.685L1537.29 709.418L1537.95 709.031C1538.39 708.771 1538.83 708.526 1539.27 708.251C1540.15 707.723 1541.01 707.173 1541.87 706.608C1548.7 702.097 1554.82 696.508 1559.9 690.109C1560.41 689.462 1561.36 689.351 1562 689.864C1562.65 690.377 1562.76 691.32 1562.24 691.967C1556.96 698.626 1550.6 704.423 1543.51 709.105C1542.63 709.685 1541.73 710.257 1540.82 710.807C1540.37 711.09 1539.91 711.35 1539.44 711.617L1538.75 712.019L1537.92 712.413C1536.83 712.955 1535.58 713.193 1534.34 713.29C1533.1 713.282 1531.83 713.141 1530.69 712.65C1528.36 711.788 1526.47 709.96 1525.42 707.716C1524.33 705.471 1524.34 702.758 1525.2 700.484L1525.34 700.053L1525.51 699.681L1525.84 698.938C1526.06 698.448 1526.3 697.957 1526.55 697.474C1527.04 696.508 1527.57 695.564 1528.14 694.643C1529.27 692.799 1530.55 691.045 1531.97 689.403C1532.32 688.994 1532.68 688.585 1533.06 688.199C1533.25 687.998 1533.43 687.805 1533.62 687.612L1533.91 687.322L1534.05 687.181C1534.14 687.099 1534.24 687.01 1534.35 686.928C1534.76 686.616 1535.32 686.371 1535.88 686.348C1536.45 686.319 1536.99 686.46 1537.45 686.72C1538.35 687.21 1539.03 688.266 1538.94 689.425C1538.91 689.693 1538.86 689.983 1538.76 690.22C1538.72 690.339 1538.66 690.466 1538.61 690.57L1538.52 690.741L1538.14 691.439L1537.39 692.829L1535.85 695.586C1531.62 702.885 1526.74 709.797 1521.29 716.225C1518.57 719.436 1515.69 722.52 1512.68 725.478L1511.55 726.586L1510.83 727.188L1510.46 727.485L1510.05 727.73C1508.98 728.429 1507.69 728.793 1506.43 728.882C1505.79 728.949 1505.15 728.875 1504.52 728.8C1503.9 728.659 1503.28 728.525 1502.7 728.258C1501.54 727.767 1500.45 727.054 1499.63 726.073C1498.8 725.107 1498.15 723.955 1497.86 722.691C1497.76 722.387 1497.76 722.06 1497.71 721.747C1497.66 721.428 1497.62 721.116 1497.65 720.796L1497.69 719.852L1497.78 719.05C1498.04 716.931 1498.4 714.828 1498.86 712.747C1499.32 710.666 1499.88 708.607 1500.54 706.578L1501.05 705.062L1501.31 704.312C1501.37 704.156 1501.36 704.141 1501.38 704.074C1501.4 704.014 1501.42 703.955 1501.41 703.91C1501.43 703.702 1501.4 703.524 1501.3 703.345C1501.19 703.167 1501.01 703.011 1500.8 702.914C1500.35 702.744 1500.03 702.803 1499.65 703.167L1497.51 705.449L1493.23 710.012L1488.95 714.575L1486.8 716.857L1486.54 717.139L1486.2 717.466C1485.98 717.697 1485.73 717.89 1485.47 718.091C1484.96 718.47 1484.4 718.804 1483.81 719.05C1481.44 720.083 1478.65 719.83 1476.47 718.589L1475.73 718.128C1475.57 718.039 1475.41 717.927 1475.23 717.86C1474.89 717.697 1474.51 717.593 1474.12 717.526C1473.34 717.392 1472.49 717.466 1471.67 717.697C1470.03 718.158 1468.68 719.28 1467.73 720.818C1466.79 722.349 1466.27 724.2 1466.1 726.095L1463.16 725.567V725.553C1464.85 718.804 1466.49 712.048 1468.21 705.315L1469.49 700.261L1470.12 697.757C1470.31 696.961 1470.45 696.196 1470.51 695.49C1470.56 694.791 1470.53 694.152 1470.36 693.669C1470.2 693.178 1469.95 692.807 1469.55 692.465C1468.7 691.737 1467.49 691.417 1466.3 691.588C1465.71 691.662 1465.13 691.87 1464.61 692.168L1464.42 692.279L1464.16 692.443L1463.64 692.799L1462.58 693.505C1461.15 694.42 1459.8 695.453 1458.44 696.456C1457.75 696.946 1457.1 697.496 1456.44 698.032C1455.79 698.567 1455.12 699.094 1454.47 699.637L1452.58 701.331L1451.62 702.171L1450.71 703.056C1445.81 707.73 1441.38 712.903 1437.67 718.552C1433.93 724.185 1430.75 730.198 1428.4 736.515L1427.52 738.886L1426.75 741.294C1426.21 742.899 1425.75 744.512 1425.42 746.058C1424.73 749.164 1424.7 752.145 1425.76 754.568C1426.26 755.719 1427.05 756.708 1427.98 757.332C1428.45 757.644 1428.93 757.89 1429.47 758.009C1430.01 758.15 1430.53 758.232 1431.06 758.179C1432.11 758.12 1433.24 757.682 1434.37 756.909C1435.48 756.136 1436.54 755.073 1437.52 753.884C1438.49 752.695 1439.37 751.372 1440.18 749.989L1440.76 748.934L1441.37 747.797L1442.56 745.523C1443.35 743.999 1444.11 742.461 1444.88 740.93L1447.09 736.285C1452.83 723.821 1457.55 710.889 1461.09 697.645C1461.96 694.33 1462.8 691.001 1463.52 687.649C1463.89 685.977 1464.26 684.297 1464.57 682.617L1465.07 680.098C1465.21 679.303 1465.34 678.53 1465.42 677.764C1465.58 676.241 1465.62 674.717 1465.41 673.424C1465.19 672.123 1464.77 671.075 1464.16 670.488C1463.89 670.154 1463.5 669.946 1463.08 669.73C1462.6 669.559 1462.11 669.373 1461.58 669.351C1460.52 669.254 1459.36 669.507 1458.32 670.065C1458.18 670.139 1458.08 670.198 1457.92 670.295L1457.39 670.637L1456.34 671.321L1454.23 672.688C1452.85 673.625 1451.53 674.672 1450.16 675.639C1448.83 676.657 1447.56 677.749 1446.24 678.805C1444.97 679.905 1443.76 681.064 1442.51 682.194C1437.68 686.869 1433.3 692.041 1429.54 697.653C1421.99 708.853 1416.79 721.695 1414.49 735.185C1414.35 736.002 1413.58 736.552 1412.77 736.411C1412 736.285 1411.46 735.579 1411.52 734.82L1411.49 734.828Z" fill="url(#paint4_linear_155_8)"/>
<path d="M1567.17 689.351C1566.67 689.351 1566.18 689.106 1565.9 688.652C1565.46 687.954 1565.67 687.032 1566.37 686.594L1581.32 677.229C1582.02 676.791 1582.94 676.999 1583.38 677.705C1583.82 678.403 1583.6 679.325 1582.9 679.764L1567.96 689.128C1567.71 689.284 1567.44 689.358 1567.16 689.358L1567.17 689.351Z" fill="url(#paint5_linear_155_8)"/>
<path d="M1149.9 615.945H1315.55V744.149C1315.55 751.024 1309.97 756.605 1303.09 756.605H1162.36C1155.48 756.605 1149.9 751.024 1149.9 744.149V615.945Z" fill="url(#paint6_linear_155_8)"/>
<path d="M1311.46 739.222H1153.98C1151.72 739.222 1149.89 737.394 1149.89 735.134V615.574H1315.54V735.134C1315.54 737.394 1313.71 739.222 1311.45 739.222H1311.46Z" fill="#7D97F4"/>
<path d="M1165.14 620.977H1159.44V630.668H1165.14V620.977Z" fill="url(#paint7_linear_155_8)"/>
<path d="M1177.97 620.977H1172.27V630.668H1177.97V620.977Z" fill="url(#paint8_linear_155_8)"/>
<path d="M1189.3 620.977H1183.6V630.668H1189.3V620.977Z" fill="url(#paint9_linear_155_8)"/>
<path d="M1202.13 620.977H1196.43V630.668H1202.13V620.977Z" fill="url(#paint10_linear_155_8)"/>
<path d="M1213.46 620.977H1207.76V630.668H1213.46V620.977Z" fill="url(#paint11_linear_155_8)"/>
<path d="M1226.29 620.977H1220.59V630.668H1226.29V620.977Z" fill="url(#paint12_linear_155_8)"/>
<path d="M1237.63 620.977H1231.93V630.668H1237.63V620.977Z" fill="url(#paint13_linear_155_8)"/>
<path d="M1250.47 620.977H1244.77V630.668H1250.47V620.977Z" fill="url(#paint14_linear_155_8)"/>
<path d="M1261.8 620.977H1256.1V630.668H1261.8V620.977Z" fill="url(#paint15_linear_155_8)"/>
<path d="M1274.63 620.977H1268.93V630.668H1274.63V620.977Z" fill="url(#paint16_linear_155_8)"/>
<path d="M1285.97 620.977H1280.27V630.668H1285.97V620.977Z" fill="url(#paint17_linear_155_8)"/>
<path d="M1298.79 620.977H1293.09V630.668H1298.79V620.977Z" fill="url(#paint18_linear_155_8)"/>
<path d="M1240.83 635.684H1223.62V652.896H1240.83V635.684Z" fill="white"/>
<path d="M1261.76 635.684H1244.54V652.896H1261.76V635.684Z" fill="white"/>
<path d="M1282.46 635.684H1265.24V652.896H1282.46V635.684Z" fill="white"/>
<path d="M1303 635.684H1285.78V652.896H1303V635.684Z" fill="white"/>
<path d="M1178.7 657.326H1161.48V674.539H1178.7V657.326Z" fill="white"/>
<path d="M1199.4 657.326H1182.19V674.539H1199.4V657.326Z" fill="white"/>
<path d="M1219.93 657.326H1202.72V674.539H1219.93V657.326Z" fill="white"/>
<path d="M1240.81 657.326H1223.6V674.539H1240.81V657.326Z" fill="white"/>
<path d="M1261.74 657.326H1244.52V674.539H1261.74V657.326Z" fill="white"/>
<path d="M1282.44 657.326H1265.23V674.539H1282.44V657.326Z" fill="white"/>
<path d="M1302.98 657.326H1285.77V674.539H1302.98V657.326Z" fill="white"/>
<path d="M1179.2 677.949H1161.99V695.162H1179.2V677.949Z" fill="white"/>
<path d="M1199.91 677.949H1182.7V695.162H1199.91V677.949Z" fill="white"/>
<path d="M1220.45 677.949H1203.23V695.162H1220.45V677.949Z" fill="url(#paint19_linear_155_8)"/>
<path d="M1241.33 677.949H1224.11V695.162H1241.33V677.949Z" fill="white"/>
<path d="M1262.25 677.949H1245.04V695.162H1262.25V677.949Z" fill="white"/>
<path d="M1282.95 677.949H1265.73V695.162H1282.95V677.949Z" fill="white"/>
<path d="M1303.49 677.949H1286.27V695.162H1303.49V677.949Z" fill="white"/>
<path d="M1179.71 698.314H1162.5V715.527H1179.71V698.314Z" fill="white"/>
<path d="M1200.42 698.314H1183.21V715.527H1200.42V698.314Z" fill="white"/>
<path d="M1220.96 698.314H1203.74V715.527H1220.96V698.314Z" fill="white"/>
<path d="M1241.84 698.314H1224.62V715.527H1241.84V698.314Z" fill="white"/>
<path d="M1262.75 698.314H1245.54V715.527H1262.75V698.314Z" fill="white"/>
<path d="M1283.46 698.314H1266.25V715.527H1283.46V698.314Z" fill="white"/>
<path d="M1304 698.314H1286.78V715.527H1304V698.314Z" fill="white"/>
<path d="M1179.71 718.625H1162.5V735.838H1179.71V718.625Z" fill="white"/>
<path d="M1200.42 718.625H1183.21V735.838H1200.42V718.625Z" fill="white"/>
<path d="M1220.96 718.625H1203.74V735.838H1220.96V718.625Z" fill="white"/>
<path d="M1170.69 613.262H1163.37C1161.68 613.262 1160.31 614.644 1160.31 616.324V623.132H1162.52V618.702C1162.52 617.015 1163.9 615.64 1165.58 615.64H1172.91C1173.18 615.64 1173.45 615.677 1173.7 615.751C1173.43 614.339 1172.18 613.262 1170.69 613.262Z" fill="url(#paint20_linear_155_8)"/>
<path d="M1184.92 613.262H1177.6C1175.91 613.262 1174.53 614.644 1174.53 616.324V623.132H1176.75V618.702C1176.75 617.015 1178.13 615.64 1179.81 615.64H1187.13C1187.41 615.64 1187.67 615.677 1187.93 615.751C1187.66 614.339 1186.41 613.262 1184.92 613.262Z" fill="url(#paint21_linear_155_8)"/>
<path d="M1196.74 613.262H1189.42C1187.73 613.262 1186.36 614.644 1186.36 616.324V623.132H1188.57V618.702C1188.57 617.015 1189.96 615.64 1191.64 615.64H1198.96C1199.23 615.64 1199.5 615.677 1199.75 615.751C1199.49 614.339 1198.24 613.262 1196.74 613.262Z" fill="url(#paint22_linear_155_8)"/>
<path d="M1208.92 613.262H1201.6C1199.92 613.262 1198.54 614.644 1198.54 616.324V623.132H1200.76V618.702C1200.76 617.015 1202.14 615.64 1203.82 615.64H1211.14C1211.41 615.64 1211.68 615.677 1211.94 615.751C1211.67 614.339 1210.42 613.262 1208.92 613.262Z" fill="url(#paint23_linear_155_8)"/>
<path d="M1220.19 613.262H1212.87C1211.18 613.262 1209.8 614.644 1209.8 616.324V623.132H1212.02V618.702C1212.02 617.015 1213.4 615.64 1215.08 615.64H1222.4C1222.68 615.64 1222.94 615.677 1223.2 615.751C1222.93 614.339 1221.68 613.262 1220.19 613.262Z" fill="url(#paint24_linear_155_8)"/>
<path d="M1232.36 613.262H1225.04C1223.35 613.262 1221.98 614.644 1221.98 616.324V623.132H1224.19V618.702C1224.19 617.015 1225.57 615.64 1227.25 615.64H1234.58C1234.85 615.64 1235.12 615.677 1235.37 615.751C1235.1 614.339 1233.85 613.262 1232.36 613.262Z" fill="url(#paint25_linear_155_8)"/>
<path d="M1244.19 613.262H1236.87C1235.18 613.262 1233.8 614.644 1233.8 616.324V623.132H1236.02V618.702C1236.02 617.015 1237.4 615.64 1239.08 615.64H1246.4C1246.68 615.64 1246.94 615.677 1247.2 615.751C1246.93 614.339 1245.68 613.262 1244.19 613.262Z" fill="url(#paint26_linear_155_8)"/>
<path d="M1257.39 613.262H1250.07C1248.38 613.262 1247 614.644 1247 616.324V623.132H1249.22V618.702C1249.22 617.015 1250.6 615.64 1252.28 615.64H1259.6C1259.88 615.64 1260.15 615.677 1260.4 615.751C1260.13 614.339 1258.88 613.262 1257.39 613.262Z" fill="url(#paint27_linear_155_8)"/>
<path d="M1268.77 613.15H1261.45C1259.77 613.15 1258.39 614.533 1258.39 616.212V623.02H1260.61V618.591C1260.61 616.904 1261.99 615.529 1263.67 615.529H1270.99C1271.26 615.529 1271.53 615.566 1271.78 615.64C1271.52 614.228 1270.27 613.15 1268.77 613.15Z" fill="url(#paint28_linear_155_8)"/>
<path d="M1280.59 613.15H1273.27C1271.58 613.15 1270.21 614.533 1270.21 616.212V623.02H1272.42V618.591C1272.42 616.904 1273.81 615.529 1275.49 615.529H1282.81C1283.08 615.529 1283.35 615.566 1283.6 615.64C1283.34 614.228 1282.09 613.15 1280.59 613.15Z" fill="url(#paint29_linear_155_8)"/>
<path d="M1304.01 613.426H1296.69C1295.01 613.426 1293.63 614.808 1293.63 616.488V623.296H1295.85V618.866C1295.85 617.179 1297.23 615.804 1298.91 615.804H1306.23C1306.5 615.804 1306.77 615.841 1307.02 615.916C1306.76 614.503 1305.51 613.426 1304.01 613.426Z" fill="url(#paint30_linear_155_8)"/>
<path d="M1293.8 613.15H1286.48C1284.79 613.15 1283.42 614.533 1283.42 616.212V623.02H1285.63V618.591C1285.63 616.904 1287.02 615.529 1288.7 615.529H1296.02C1296.29 615.529 1296.56 615.566 1296.81 615.64C1296.54 614.228 1295.3 613.15 1293.8 613.15Z" fill="url(#paint31_linear_155_8)"/>
<path d="M1256.39 215.423L1117.46 523.381L1261.06 588.151L1399.99 280.193L1256.39 215.423Z" fill="url(#paint32_linear_155_8)"/>
<path opacity="0.5" d="M1278.99 246.078L1361.16 283.142C1358.18 289.757 1361.71 298.036 1369.03 301.343C1369.27 301.447 1369.83 301.692 1369.83 301.678L1257.69 550.251C1257.69 550.251 1257.15 549.976 1256.91 549.872C1249.59 546.573 1241.17 549.233 1238.14 555.952C1238.1 556.048 1237.99 556.153 1237.99 556.153L1157.67 519.928C1162.79 508.595 1155.74 504.143 1148.42 500.835C1148.19 500.731 1148.1 500.806 1148.09 500.821L1260.24 252.247C1260.24 252.247 1260.28 252.291 1260.51 252.395C1267.83 255.695 1276 252.693 1278.99 246.086V246.078Z" fill="white"/>
<path d="M1306.26 414.382C1313.39 387.957 1297.75 360.756 1271.32 353.626C1244.89 346.496 1217.69 362.137 1210.56 388.562C1203.43 414.987 1219.07 442.188 1245.5 449.318C1271.92 456.448 1299.13 440.807 1306.26 414.382Z" fill="url(#paint33_linear_155_8)"/>
<path d="M1286.82 419.773L1282.04 417.618C1279.59 422.508 1276.2 426.9 1273.09 429.71C1271.98 430.713 1270.29 430.713 1269.14 429.762L1265.23 426.544C1263.8 425.362 1263.76 423.207 1265.12 421.943C1268.13 419.126 1271.22 415.366 1273.31 410.743C1275.47 405.949 1275.45 401.639 1272.12 400.13C1269.11 398.77 1266.08 400.732 1261.29 406.588C1254.4 414.927 1247.17 419.884 1238.8 416.109C1231.24 412.698 1227.96 404.567 1230.74 394.281L1225.96 392.126C1224.42 391.434 1223.74 389.621 1224.43 388.09L1225.69 385.281C1226.38 383.742 1228.2 383.058 1229.73 383.75L1234.02 385.682C1236.28 381.156 1238.58 378.161 1240.71 375.916C1241.81 374.772 1243.61 374.682 1244.84 375.693L1248.45 378.666C1249.84 379.811 1249.94 381.899 1248.67 383.177C1246.64 385.206 1244.11 388.239 1242.08 392.742C1239.52 398.435 1241.14 401.118 1243.26 402.077C1245.86 403.251 1249.19 400.643 1254.8 394.273C1262.74 385.139 1269.11 382.724 1276.99 386.284C1284.23 389.547 1288.31 397.848 1285.24 408.982L1290.59 411.39C1292.13 412.081 1292.81 413.894 1292.12 415.425L1290.86 418.234C1290.16 419.773 1288.35 420.457 1286.82 419.765V419.773Z" fill="white"/>
<path d="M1156.98 532.11C1156.91 532.11 1156.83 532.095 1156.75 532.058L1129.83 519.914C1129.55 519.787 1129.42 519.453 1129.55 519.163L1163.85 443.118C1163.98 442.835 1164.31 442.702 1164.6 442.835C1164.88 442.962 1165.01 443.296 1164.88 443.586L1130.81 519.111L1157.22 531.025C1157.5 531.151 1157.63 531.485 1157.5 531.775C1157.41 531.983 1157.2 532.11 1156.99 532.11H1156.98Z" fill="#91B3FA"/>
<path d="M1354.04 361.216C1353.96 361.216 1353.88 361.201 1353.81 361.164C1353.52 361.038 1353.4 360.703 1353.52 360.414L1387.17 285.832L1358.88 273.072C1358.59 272.945 1358.47 272.611 1358.59 272.321C1358.72 272.039 1359.06 271.905 1359.34 272.039L1388.16 285.037C1388.44 285.164 1388.57 285.498 1388.44 285.788L1354.56 360.889C1354.47 361.097 1354.27 361.224 1354.05 361.224L1354.04 361.216Z" fill="white"/>
<path d="M1249.75 199.919L1110.82 507.877L1255.36 573.075L1394.3 265.117L1249.75 199.919Z" fill="#7D97F4"/>
<path d="M1272.62 230.709L1354.79 267.773C1351.81 274.387 1355.7 282.778 1363.02 286.086C1363.25 286.19 1363.22 286.115 1364.17 286.531L1252.03 535.105C1251.09 534.667 1251.15 534.682 1250.92 534.578C1243.6 531.278 1235.01 533.901 1231.97 540.62C1231.93 540.716 1231.65 540.783 1231.65 540.783L1151.33 504.559C1156.44 493.225 1149.27 488.67 1141.95 485.362C1141.72 485.258 1141.5 485.236 1141.49 485.243L1253.63 236.67C1253.63 236.67 1253.8 236.811 1254.03 236.922C1261.35 240.222 1269.64 237.324 1272.63 230.716L1272.62 230.709Z" fill="#91B3FA"/>
<path d="M1279.33 427.402C1302.19 412.348 1308.52 381.614 1293.46 358.756C1278.4 335.899 1247.67 329.574 1224.81 344.628C1201.95 359.683 1195.62 390.416 1210.68 413.274C1225.73 436.131 1256.47 442.457 1279.33 427.402Z" fill="url(#paint34_linear_155_8)"/>
<path d="M1280.49 404.324L1275.71 402.168C1273.26 407.059 1269.87 411.451 1266.76 414.26C1265.65 415.264 1263.96 415.264 1262.8 414.312L1258.9 411.094C1257.47 409.913 1257.43 407.757 1258.78 406.494C1261.8 403.677 1264.89 399.916 1266.97 395.294C1269.14 390.5 1269.12 386.189 1265.79 384.681C1262.78 383.321 1259.75 385.283 1254.96 391.139C1248.07 399.478 1240.83 404.435 1232.46 400.66C1224.9 397.248 1221.63 389.118 1224.41 378.832L1219.63 376.676C1218.09 375.985 1217.4 374.172 1218.1 372.641L1219.36 369.831C1220.05 368.293 1221.86 367.609 1223.4 368.3L1227.68 370.233C1229.94 365.707 1232.25 362.711 1234.38 360.467C1235.47 359.322 1237.28 359.233 1238.51 360.244L1242.12 363.217C1243.51 364.361 1243.61 366.45 1242.34 367.728C1240.31 369.757 1237.78 372.789 1235.75 377.293C1233.18 382.986 1234.8 385.669 1236.92 386.628C1239.52 387.802 1242.85 385.193 1248.47 378.824C1256.4 369.69 1262.77 367.275 1270.66 370.835C1277.89 374.097 1281.98 382.399 1278.91 393.532L1284.26 395.94C1285.79 396.631 1286.48 398.445 1285.79 399.976L1284.52 402.785C1283.83 404.324 1282.02 405.007 1280.49 404.316V404.324Z" fill="white"/>
<path d="M1151.71 516.086C1151.63 516.086 1151.55 516.071 1151.47 516.034L1123.61 503.466C1123.33 503.34 1123.2 503.005 1123.33 502.715L1157.21 427.614C1157.33 427.331 1157.67 427.198 1157.96 427.331C1158.24 427.458 1158.37 427.792 1158.24 428.082L1124.59 502.663L1151.94 515C1152.23 515.127 1152.35 515.461 1152.23 515.751C1152.13 515.959 1151.93 516.086 1151.71 516.086H1151.71Z" fill="#BDD0FB"/>
<path d="M1347.38 345.713C1347.31 345.713 1347.23 345.698 1347.15 345.66C1346.87 345.534 1346.74 345.2 1346.87 344.91L1380.52 270.329L1353.17 257.992C1352.88 257.865 1352.76 257.531 1352.88 257.241C1353.01 256.958 1353.35 256.825 1353.64 256.958L1381.51 269.526C1381.79 269.652 1381.92 269.987 1381.79 270.277L1347.91 345.378C1347.82 345.586 1347.61 345.713 1347.4 345.713H1347.38Z" fill="white"/>
<path d="M1300.96 194.057L1075.62 445.791L1193.77 551.536L1419.11 299.802L1300.96 194.057Z" fill="url(#paint35_linear_155_8)"/>
<path d="M1313.6 230.405L1380.77 290.516C1375.93 295.919 1377 305.105 1382.99 310.463C1383.18 310.634 1383.05 310.56 1383.83 311.236L1201.96 514.43C1201.19 513.731 1201.31 513.813 1201.12 513.642C1195.13 508.283 1186.23 508.164 1181.31 513.664C1181.23 513.746 1181.03 513.694 1181.03 513.694L1115.37 454.936C1123.67 445.668 1118.09 439.172 1112.11 433.814C1111.92 433.643 1111.61 433.561 1111.6 433.568L1293.47 230.375C1293.47 230.375 1293.69 230.553 1293.88 230.724C1299.86 236.083 1308.76 235.815 1313.6 230.405Z" fill="#91B3FA"/>
<path d="M1250.42 421.84C1277.73 419.988 1298.37 396.35 1296.52 369.043C1294.67 341.737 1271.03 321.101 1243.72 322.953C1216.41 324.805 1195.77 348.443 1197.62 375.75C1199.47 403.057 1223.11 423.693 1250.42 421.84Z" fill="url(#paint36_linear_155_8)"/>
<path d="M1268.65 398.422L1264.74 394.929C1260.94 398.853 1256.37 402.019 1252.56 403.758C1251.2 404.382 1249.59 403.877 1248.78 402.621L1246.03 398.377C1245.02 396.816 1245.63 394.75 1247.31 393.955C1251.04 392.186 1255.11 389.526 1258.49 385.743C1262 381.826 1263.29 377.708 1260.57 375.271C1258.11 373.071 1254.62 374.022 1248.29 378.162C1239.2 384.033 1230.81 386.582 1223.97 380.458C1217.79 374.929 1217.12 366.189 1222.87 357.218L1218.97 353.725C1217.72 352.603 1217.61 350.671 1218.73 349.414L1220.79 347.118C1221.91 345.862 1223.84 345.758 1225.1 346.88L1228.61 350.016C1232.13 346.382 1235.23 344.219 1237.94 342.726C1239.33 341.96 1241.08 342.428 1241.94 343.759L1244.49 347.683C1245.47 349.199 1244.94 351.221 1243.34 352.053C1240.79 353.376 1237.47 355.501 1234.17 359.188C1230 363.84 1230.74 366.895 1232.47 368.441C1234.6 370.343 1238.56 368.864 1245.83 364.479C1256.15 358.162 1262.95 357.783 1269.4 363.55C1275.31 368.842 1276.7 377.983 1270.42 387.682L1274.79 391.592C1276.04 392.714 1276.15 394.646 1275.02 395.902L1272.97 398.199C1271.85 399.455 1269.92 399.559 1268.66 398.437L1268.65 398.422Z" fill="#BDD0FB"/>
<path d="M1111.61 466.744C1111.48 466.744 1111.34 466.7 1111.23 466.603L1088.45 446.217C1088.22 446.009 1088.2 445.652 1088.41 445.414L1144.05 383.252C1144.26 383.022 1144.61 382.999 1144.85 383.208C1145.08 383.416 1145.1 383.772 1144.9 384.01L1089.63 445.749L1111.99 465.756C1112.22 465.964 1112.24 466.321 1112.04 466.558C1111.92 466.685 1111.77 466.744 1111.61 466.744Z" fill="#BDD0FB"/>
<path d="M1350.25 362.516C1350.12 362.516 1349.98 362.472 1349.87 362.375C1349.64 362.167 1349.62 361.81 1349.83 361.572L1404.4 300.607L1382.04 280.6C1381.81 280.392 1381.79 280.035 1382 279.797C1382.21 279.567 1382.56 279.544 1382.8 279.752L1405.58 300.139C1405.81 300.347 1405.84 300.704 1405.63 300.941L1350.68 362.33C1350.56 362.457 1350.41 362.516 1350.25 362.516Z" fill="#BDD0FB"/>
<path d="M1192.34 440.42C1198.12 445.593 1198.61 454.467 1193.44 460.241C1188.27 466.016 1179.39 466.507 1173.62 461.341C1167.84 456.169 1167.35 447.295 1172.52 441.52C1177.69 435.745 1186.57 435.255 1192.34 440.42Z" fill="url(#paint37_linear_155_8)"/>
<path d="M1333.21 283.045C1338.99 288.218 1339.48 297.092 1334.31 302.866C1329.14 308.641 1320.26 309.132 1314.49 303.966C1308.71 298.794 1308.22 289.92 1313.39 284.145C1318.56 278.37 1327.44 277.88 1333.21 283.045Z" fill="url(#paint38_linear_155_8)"/>
<path d="M1273.52 517.399C1283.79 496.459 1275.13 471.159 1254.19 460.891C1233.25 450.624 1207.94 459.276 1197.68 480.216C1187.41 501.157 1196.06 526.457 1217 536.724C1237.95 546.992 1263.25 538.34 1273.52 517.399Z" fill="url(#paint39_linear_155_8)"/>
<path d="M1253.42 535.519C1273.71 525.681 1282.19 501.26 1272.35 480.973C1262.51 460.685 1238.08 452.214 1217.79 462.052C1197.5 471.89 1189.03 496.311 1198.87 516.599C1208.71 536.886 1233.13 545.357 1253.42 535.519Z" fill="url(#paint40_linear_155_8)"/>
<path opacity="0.58" d="M1199.42 490.542C1199.22 490.587 1199.01 490.587 1198.79 490.527C1198.06 490.334 1197.62 489.591 1197.82 488.862C1201.61 474.511 1212.97 463.683 1227.47 460.606C1229.79 460.115 1232.15 459.833 1234.5 459.758C1235.25 459.736 1235.88 460.331 1235.9 461.081C1235.93 461.839 1235.34 462.471 1234.58 462.486C1232.4 462.553 1230.2 462.813 1228.05 463.274C1214.56 466.143 1203.99 476.213 1200.46 489.561C1200.32 490.074 1199.91 490.446 1199.42 490.55L1199.42 490.542Z" fill="white"/>
<path opacity="0.78" d="M1236.66 534.035C1255.74 534.035 1271.21 518.566 1271.21 499.483C1271.21 480.401 1255.74 464.932 1236.66 464.932C1217.57 464.932 1202.1 480.401 1202.1 499.483C1202.1 518.566 1217.57 534.035 1236.66 534.035Z" fill="white"/>
<path d="M1238.68 525.317L1237.9 521.638C1234.03 522.3 1230.05 522.203 1227.1 521.594C1226.06 521.378 1225.34 520.405 1225.4 519.334L1225.6 515.708C1225.68 514.377 1226.9 513.441 1228.21 513.686C1231.12 514.236 1234.61 514.422 1238.16 513.664C1241.86 512.876 1244.34 511.04 1243.8 508.476C1243.31 506.157 1240.89 505.236 1235.46 504.953C1227.71 504.507 1221.78 502.434 1220.41 495.983C1219.17 490.164 1222.48 484.812 1229.62 482.055L1228.84 478.376C1228.58 477.195 1229.34 476.028 1230.52 475.775L1232.69 475.314C1233.87 475.062 1235.04 475.82 1235.29 477.001L1235.99 480.301C1239.56 479.692 1242.28 479.744 1244.48 480.034C1245.61 480.182 1246.42 481.186 1246.36 482.323L1246.17 485.675C1246.1 486.968 1244.94 487.912 1243.66 487.718C1241.62 487.406 1238.8 487.228 1235.33 487.964C1230.95 488.893 1230.08 490.974 1230.43 492.601C1230.85 494.6 1233.77 495.425 1239.84 495.968C1248.5 496.681 1252.6 499.342 1253.89 505.414C1255.07 510.981 1252 516.867 1244.26 519.825L1245.14 523.942C1245.39 525.124 1244.63 526.291 1243.45 526.544L1241.29 527.004C1240.1 527.257 1238.94 526.499 1238.69 525.317H1238.68Z" fill="url(#paint41_linear_155_8)"/>
<path d="M1394.78 476.811C1423.49 448.101 1423.49 401.552 1394.78 372.841C1366.06 344.13 1319.51 344.13 1290.79 372.841C1262.08 401.552 1262.08 448.101 1290.79 476.811C1319.51 505.522 1366.06 505.522 1394.78 476.811Z" fill="url(#paint42_linear_155_8)"/>
<path d="M1343.92 495.907C1383.17 495.276 1414.48 462.949 1413.85 423.702C1413.22 384.454 1380.89 353.148 1341.63 353.779C1302.38 354.409 1271.07 386.736 1271.7 425.984C1272.33 465.231 1304.66 496.537 1343.92 495.907Z" fill="url(#paint43_linear_155_8)"/>
<path opacity="0.58" d="M1279.59 409.465C1279.39 409.51 1279.18 409.51 1278.96 409.45C1278.23 409.257 1277.8 408.514 1277.99 407.786C1284.49 383.178 1303.97 364.605 1328.85 359.321C1332.82 358.474 1336.87 357.991 1340.89 357.872C1341.64 357.849 1342.28 358.444 1342.3 359.195C1342.32 359.945 1341.73 360.584 1340.98 360.599C1337.12 360.711 1333.23 361.179 1329.42 361.989C1305.55 367.058 1286.86 384.873 1280.63 408.477C1280.49 408.99 1280.08 409.361 1279.59 409.465H1279.59Z" fill="white"/>
<path opacity="0.78" d="M1387.17 468.56C1410.66 445.068 1410.66 406.979 1387.17 383.487C1363.67 359.995 1325.58 359.995 1302.08 383.487C1278.59 406.979 1278.59 445.068 1302.08 468.56C1325.58 492.052 1363.67 492.052 1387.17 468.56Z" fill="white"/>
<path d="M1348.14 470.988L1346.78 464.589C1340.05 465.741 1333.11 465.57 1327.99 464.515C1326.16 464.136 1324.91 462.441 1325.02 460.576L1325.37 454.266C1325.51 451.955 1327.64 450.312 1329.92 450.751C1334.98 451.709 1341.06 452.036 1347.25 450.721C1353.68 449.354 1358 446.158 1357.06 441.691C1356.21 437.663 1351.99 436.05 1342.54 435.552C1329.05 434.772 1318.72 431.16 1316.34 419.945C1314.18 409.815 1319.95 400.502 1332.36 395.701L1331 389.302C1330.56 387.243 1331.88 385.215 1333.94 384.783L1337.7 383.981C1339.76 383.542 1341.79 384.858 1342.22 386.916L1343.44 392.661C1349.67 391.599 1354.39 391.695 1358.23 392.193C1360.19 392.446 1361.61 394.2 1361.5 396.184L1361.17 402.018C1361.04 404.27 1359.02 405.913 1356.79 405.571C1353.25 405.028 1348.33 404.724 1342.29 406.002C1334.67 407.622 1333.16 411.242 1333.76 414.081C1334.5 417.566 1339.59 418.993 1350.15 419.937C1365.21 421.178 1372.35 425.809 1374.59 436.377C1376.65 446.076 1371.32 456.317 1357.83 461.46L1359.36 468.625C1359.8 470.684 1358.48 472.713 1356.42 473.151L1352.66 473.954C1350.6 474.392 1348.57 473.077 1348.14 471.018V470.988Z" fill="url(#paint44_linear_155_8)"/>
<path d="M1501.85 582.058C1505.79 540.468 1475.26 503.558 1433.67 499.62C1392.07 495.681 1355.16 526.204 1351.22 567.795C1347.28 609.386 1377.81 646.295 1419.4 650.233C1461 654.172 1497.91 623.649 1501.85 582.058Z" fill="url(#paint45_linear_155_8)"/>
<path d="M1497.83 591.064C1506.77 551.677 1482.08 512.499 1442.69 503.557C1403.3 494.616 1364.12 519.297 1355.18 558.685C1346.23 598.072 1370.92 637.25 1410.31 646.192C1449.7 655.133 1488.88 630.452 1497.83 591.064Z" fill="url(#paint46_linear_155_8)"/>
<path opacity="0.58" d="M1361.49 559.059C1361.29 559.104 1361.07 559.104 1360.86 559.044C1360.13 558.851 1359.69 558.108 1359.89 557.379C1366.57 532.073 1386.61 512.973 1412.2 507.54C1416.28 506.67 1420.45 506.172 1424.58 506.053C1425.33 506.031 1425.96 506.626 1425.99 507.376C1426.01 508.127 1425.42 508.759 1424.66 508.781C1420.69 508.9 1416.69 509.375 1412.76 510.215C1388.19 515.433 1368.94 533.775 1362.52 558.078C1362.39 558.591 1361.97 558.962 1361.48 559.066L1361.49 559.059Z" fill="white"/>
<path opacity="0.78" d="M1490.22 580.005C1492.34 545.888 1466.4 516.509 1432.28 514.387C1398.16 512.264 1368.78 538.201 1366.65 572.319C1364.53 606.436 1390.47 635.814 1424.59 637.937C1458.71 640.06 1488.09 614.123 1490.22 580.005Z" fill="white"/>
<path d="M1432.03 622.402L1430.63 615.817C1423.7 616.999 1416.57 616.82 1411.3 615.735C1409.42 615.349 1408.12 613.602 1408.24 611.685L1408.61 605.196C1408.74 602.818 1410.94 601.131 1413.29 601.577C1418.5 602.565 1424.75 602.9 1431.12 601.547C1437.74 600.143 1442.19 596.85 1441.22 592.257C1440.33 588.11 1436 586.453 1426.28 585.94C1412.41 585.137 1401.77 581.421 1399.32 569.879C1397.1 559.452 1403.03 549.872 1415.81 544.937L1414.41 538.352C1413.96 536.234 1415.31 534.146 1417.44 533.7L1421.31 532.875C1423.43 532.421 1425.52 533.774 1425.96 535.899L1427.22 541.815C1433.63 540.723 1438.49 540.827 1442.43 541.332C1444.45 541.592 1445.91 543.398 1445.79 545.435L1445.46 551.433C1445.33 553.744 1443.24 555.446 1440.96 555.089C1437.31 554.532 1432.24 554.212 1426.03 555.535C1418.18 557.2 1416.64 560.931 1417.25 563.844C1418.02 567.434 1423.25 568.898 1434.12 569.872C1449.62 571.15 1456.96 575.914 1459.27 586.787C1461.39 596.761 1455.9 607.307 1442.03 612.599L1443.59 619.971C1444.05 622.089 1442.69 624.178 1440.57 624.624L1436.7 625.449C1434.58 625.902 1432.49 624.55 1432.04 622.424L1432.03 622.402Z" fill="url(#paint47_linear_155_8)"/>
<path d="M1506.49 509.014C1536.9 505.437 1558.65 477.891 1555.07 447.488C1551.49 417.086 1523.95 395.339 1493.54 398.916C1463.13 402.493 1441.38 430.039 1444.96 460.441C1448.54 490.844 1476.09 512.591 1506.49 509.014Z" fill="url(#paint48_linear_155_8)"/>
<path d="M1551.86 467.455C1559.34 438.82 1542.18 409.548 1513.54 402.073C1484.9 394.598 1455.63 411.752 1448.15 440.386C1440.68 469.021 1457.83 498.294 1486.47 505.769C1515.11 513.244 1544.38 496.09 1551.86 467.455Z" fill="url(#paint49_linear_155_8)"/>
<path opacity="0.58" d="M1452.46 442.687C1452.26 442.731 1452.05 442.731 1451.83 442.672C1451.1 442.479 1450.66 441.735 1450.86 441.007C1455.78 422.33 1470.58 408.239 1489.46 404.226C1492.47 403.586 1495.55 403.215 1498.61 403.126C1499.36 403.103 1499.99 403.698 1500.01 404.449C1500.03 405.199 1499.45 405.838 1498.69 405.853C1495.8 405.942 1492.88 406.292 1490.04 406.894C1472.17 410.691 1458.17 424.025 1453.5 441.698C1453.37 442.211 1452.95 442.583 1452.46 442.687Z" fill="white"/>
<path opacity="0.78" d="M1518.71 496.737C1541.86 487.184 1552.89 460.671 1543.34 437.517C1533.78 414.364 1507.27 403.339 1484.11 412.891C1460.96 422.444 1449.93 448.957 1459.48 472.11C1469.04 495.263 1495.55 506.289 1518.71 496.737Z" fill="white"/>
<path d="M1504.07 488.736L1503.04 483.912C1497.97 484.782 1492.74 484.648 1488.88 483.853C1487.49 483.57 1486.55 482.292 1486.63 480.88L1486.9 476.123C1487 474.377 1488.61 473.143 1490.33 473.47C1494.15 474.198 1498.72 474.436 1503.39 473.448C1508.24 472.415 1511.5 470.007 1510.79 466.64C1510.14 463.6 1506.97 462.389 1499.85 462.01C1489.68 461.423 1481.89 458.702 1480.09 450.237C1478.47 442.597 1482.81 435.581 1492.18 431.962L1491.15 427.138C1490.82 425.585 1491.81 424.061 1493.37 423.727L1496.21 423.125C1497.76 422.798 1499.28 423.786 1499.62 425.34L1500.54 429.673C1505.24 428.87 1508.79 428.944 1511.68 429.316C1513.16 429.509 1514.23 430.832 1514.15 432.326L1513.9 436.726C1513.81 438.42 1512.28 439.661 1510.6 439.409C1507.93 439 1504.22 438.77 1499.67 439.736C1493.92 440.955 1492.79 443.69 1493.24 445.823C1493.8 448.454 1497.63 449.524 1505.59 450.237C1516.95 451.174 1522.33 454.667 1524.03 462.634C1525.58 469.947 1521.56 477.669 1511.39 481.541L1512.54 486.944C1512.86 488.498 1511.87 490.021 1510.32 490.356L1507.48 490.958C1505.93 491.285 1504.4 490.296 1504.07 488.743V488.736Z" fill="url(#paint50_linear_155_8)"/>
<path d="M1480.26 297.687C1473.75 318.386 1461.57 326.011 1451.66 322.897C1441.53 319.716 1436.62 306.546 1442.45 287.624C1448.29 269.036 1460.04 259.286 1471.18 262.786C1482.64 266.391 1485.82 280.006 1480.26 297.687ZM1438.91 364.219L1512.8 275.874L1520.59 278.327L1446.69 366.672L1438.9 364.219H1438.91ZM1453.11 290.307C1449.44 301.604 1449.82 310.857 1455.28 312.574C1460.73 314.291 1465.87 307.275 1469.62 295.339C1473.04 284.458 1473.58 274.997 1467.68 273.139C1462.11 271.392 1456.57 279.278 1453.1 290.307H1453.11ZM1517.29 354.164C1510.83 374.713 1498.71 382.525 1488.69 379.373C1478.67 376.222 1473.65 363.023 1479.64 343.982C1485.44 325.55 1497.24 315.643 1508.26 319.106C1519.72 322.711 1522.86 336.483 1517.29 354.156V354.164ZM1490.14 346.784C1486.51 357.932 1486.85 367.333 1492.31 369.05C1497.88 370.797 1502.91 363.751 1506.66 351.815C1510.13 340.786 1510.62 331.473 1504.72 329.615C1499.15 327.861 1493.61 335.754 1490.14 346.784Z" fill="url(#paint51_linear_155_8)"/>
<path d="M1604.91 824.199C1604.91 824.199 1606 830.346 1606.53 836.425C1606.74 838.803 1604.9 840.869 1602.53 840.966C1594.42 841.3 1577.1 841.962 1570.88 841.679C1569.94 841.635 1569.33 840.684 1569.68 839.814C1569.97 839.086 1570.53 838.499 1571.24 838.172L1599.86 825.017L1604.92 824.199H1604.91Z" fill="url(#paint52_linear_155_8)"/>
<path d="M1605.8 820.586L1604.93 827.937C1604.93 827.937 1599.91 830.27 1596.49 827.639L1598.56 819.449L1605.8 820.586Z" fill="url(#paint53_linear_155_8)"/>
<path d="M1605.14 682.418C1605.52 684.335 1607.16 778.195 1597.13 820.261C1596.97 820.944 1597.32 821.658 1597.97 821.918C1599.51 822.55 1602.53 823.456 1606.14 823.575C1607.26 823.613 1608.26 822.884 1608.58 821.814C1611.45 812.056 1625.19 763.16 1626.98 716.449C1628.99 664.261 1626.98 714.673 1626.98 714.673L1625.81 682.41H1605.14V682.418Z" fill="url(#paint54_linear_155_8)"/>
<path d="M1637.84 827.41C1637.84 827.41 1639.56 830.509 1641.24 838.751C1641.55 840.238 1640.51 841.664 1638.99 841.813C1636.31 842.073 1632.2 842.415 1628.9 842.393C1627.37 842.385 1626.19 841.055 1626.37 839.546C1626.73 836.536 1627.87 831.601 1631.39 827.752L1637.83 827.402L1637.84 827.41Z" fill="url(#paint55_linear_155_8)"/>
<path d="M1639.36 817.956L1637.32 829.067C1637.32 829.067 1635.3 830.568 1631.32 829.476L1632.29 817.518L1639.36 817.949L1639.36 817.956Z" fill="url(#paint56_linear_155_8)"/>
<path d="M1644.85 685.293C1653.06 734.813 1643.07 807.692 1639.7 821.954C1639.5 822.824 1638.79 823.5 1637.9 823.642C1636.4 823.894 1633.93 824.095 1631.48 823.389C1630.64 823.144 1630.05 822.385 1630.02 821.508C1629.57 809.974 1630.38 739.183 1622.73 711.209C1622.35 709.789 1621.48 708.556 1620.28 707.701L1605.44 697.155L1604.3 680.105L1644.85 685.3L1644.85 685.293Z" fill="url(#paint57_linear_155_8)"/>
<path d="M1592.57 591.462C1617.16 591.053 1644.29 597.92 1644.29 597.92C1651.62 640.692 1645.57 690.019 1645.57 690.019C1626.53 695.013 1605.05 686.964 1605.05 686.964C1601.89 669.09 1587.12 618.775 1587.12 618.775C1575.11 617.281 1565.21 613.817 1557.06 609.232C1563.28 602.023 1566.21 592.852 1567.48 587.434C1576.18 590.139 1584.98 591.581 1592.56 591.454L1592.57 591.462Z" fill="url(#paint58_linear_155_8)"/>
<path d="M1519.92 555.238C1522.34 552.318 1525.39 553.7 1525.39 553.7C1529.01 568.988 1547.99 581.377 1567.49 587.442C1566.22 592.86 1563.28 602.031 1557.07 609.24C1524.71 591.054 1519.92 555.238 1519.92 555.238Z" fill="url(#paint59_linear_155_8)"/>
<path d="M1520.51 555.982C1520.26 556.785 1523.19 558.011 1524.91 554.726C1524.97 553.151 1525.93 546.402 1524.99 545.124C1519.98 538.286 1510.25 529.725 1510.25 529.725C1508.61 531.345 1509.96 532.935 1509.96 532.935L1514.68 537.848C1513.69 539.632 1512.48 541.133 1511.93 543.288C1511.5 544.923 1511.76 546.662 1512.59 548.149C1513.41 549.643 1514.54 551.575 1515.61 553.091C1517.63 555.96 1520.51 555.982 1520.51 555.982Z" fill="url(#paint60_linear_155_8)"/>
<path d="M1516.74 541.029L1521.04 544.671L1522.38 548.298L1518.56 552.549C1518.56 552.549 1517.27 545.355 1516.31 543.794C1515.35 542.233 1515.85 541.483 1516.74 541.029Z" fill="url(#paint61_linear_155_8)"/>
<path d="M1634.87 621.726L1644.3 597.914C1644.3 597.914 1667.27 613.521 1671.05 633.306C1666.71 633.625 1658.81 634.755 1651.08 638.657C1649.37 629.315 1634.87 621.719 1634.87 621.719V621.726Z" fill="url(#paint62_linear_155_8)"/>
<path d="M1614.79 644.134C1614.79 644.134 1640.58 658.708 1649.29 646.267C1651.09 643.68 1651.52 641.116 1651.08 638.664C1658.81 634.762 1666.71 633.632 1671.05 633.312C1672.19 639.28 1671.58 645.62 1668.08 652.034C1652.84 679.919 1611.38 650.495 1611.38 650.495L1614.8 644.134H1614.79Z" fill="url(#paint63_linear_155_8)"/>
<path d="M1617.89 662.573L1603.81 613.425C1603.65 612.868 1603.17 612.459 1602.6 612.392C1600.05 612.095 1592.66 611.262 1584.13 610.534C1573.85 609.664 1561.92 608.958 1554.78 609.56C1553.77 609.642 1553.15 610.72 1553.61 611.626C1557.67 619.832 1574.35 653.202 1582.7 664.134C1582.98 664.498 1583.41 664.706 1583.86 664.706L1616.52 664.402C1617.47 664.394 1618.15 663.48 1617.89 662.566V662.573Z" fill="url(#paint64_linear_155_8)"/>
<path d="M1582.66 606.274L1572.46 604.573C1571.92 604.483 1571.47 605.004 1571.64 605.524L1572.65 608.586C1572.74 608.853 1572.97 609.047 1573.25 609.084L1583.07 610.392C1583.58 610.459 1584 609.998 1583.88 609.5L1583.26 606.824C1583.19 606.535 1582.95 606.319 1582.66 606.267V606.274Z" fill="#7D97F4"/>
<path d="M1590.3 614.911L1589.46 610.534C1589.38 610.095 1589.02 609.761 1588.57 609.716L1567.96 607.628C1567.27 607.561 1566.71 608.193 1566.88 608.869L1568.18 614.324C1568.29 614.763 1568.67 615.075 1569.12 615.097L1589.26 616.108C1589.92 616.138 1590.43 615.551 1590.31 614.904L1590.3 614.911Z" fill="#7D97F4"/>
<path d="M1614.48 650.695C1614.48 650.695 1616.45 642.632 1615.65 639.77C1614.86 636.909 1613.32 633.23 1608.22 634.047C1603.11 634.865 1597.08 637.013 1597.08 637.013C1597.08 637.013 1597.39 640.736 1601.27 639.54L1598.86 641.405C1598.86 641.405 1599.2 644.386 1602.48 642.795L1600.24 645.263C1600.24 645.263 1601.65 647.715 1604.06 646.14C1606.48 644.564 1607.63 651.662 1614.48 650.688L1614.48 650.695Z" fill="url(#paint65_linear_155_8)"/>
<path d="M1617.48 571.5L1625.31 594.131C1625.43 594.502 1625.28 594.918 1624.93 595.112C1622.8 596.293 1615.12 599.697 1605.85 593.826C1604.89 593.217 1604.23 592.213 1604.09 591.084L1601.55 571.5H1617.48Z" fill="url(#paint66_linear_155_8)"/>
<path d="M1600.45 550.543C1600.45 550.543 1591.86 566.715 1592.96 573.248C1594.06 579.781 1604.71 579.313 1614.01 574.006L1620.5 556.541L1600.45 550.543Z" fill="url(#paint67_linear_155_8)"/>
<path d="M1613.6 565.436C1613.22 565.265 1613.08 564.804 1613.31 564.463C1614 563.415 1615.29 561.267 1615.7 559.386C1615.7 559.386 1617.25 558.398 1611.77 557.09C1606.29 555.782 1598.12 553.745 1596.41 549.085C1594.74 544.544 1599.13 533.114 1606.15 542.218C1606.42 542.568 1606.94 542.575 1607.21 542.218C1608.36 540.724 1611.38 537.618 1615.58 539.498C1619.51 541.26 1619.95 544.136 1619.89 545.592C1619.88 546.016 1620.26 546.351 1620.68 546.269C1622.67 545.89 1627.43 545.563 1629.66 550.453C1631.5 554.481 1630.3 556.763 1629.22 557.878C1628.87 558.242 1629.01 558.836 1629.5 558.978C1630.81 559.379 1632.49 560.486 1632.32 563.541C1632.09 567.77 1627.36 567.398 1626.02 567.205C1625.8 567.175 1625.57 567.25 1625.42 567.413C1624.27 568.691 1619.07 574.109 1613.44 574.763C1612.95 574.823 1612.58 574.34 1612.74 573.872L1615.17 566.796C1615.29 566.469 1615.13 566.105 1614.81 565.964L1613.61 565.429L1613.6 565.436Z" fill="url(#paint68_linear_155_8)"/>
<path d="M1612.62 566.44C1612.62 566.44 1618.74 562.241 1619.18 565.779C1619.63 569.316 1613.67 570.899 1610.72 569.584L1612.62 566.448V566.44Z" fill="url(#paint69_linear_155_8)"/>
</g>
<rect width="1920" height="1000" fill="#111342" fill-opacity="0.5"/>
<path d="M0 0H940L560 1000H0V0Z" fill="black" fill-opacity="0.2"/>
<path d="M0 0H740L360 1000H0V0Z" fill="black" fill-opacity="0.2"/>
<g filter="url(#filter0_f_155_8)">
<ellipse cx="398.5" cy="820" rx="343.5" ry="281" fill="#081017" fill-opacity="0.2"/>
</g>
<g filter="url(#filter1_f_155_8)">
<ellipse cx="1449.5" cy="34.5" rx="490.5" ry="148.5" fill="#081017" fill-opacity="0.2"/>
</g>
</g>
<defs>
<filter id="filter0_f_155_8" x="-95" y="389" width="987" height="862" filterUnits="userSpaceOnUse" color-interpolation-filters="sRGB">
<feFlood flood-opacity="0" result="BackgroundImageFix"/>
<feBlend mode="normal" in="SourceGraphic" in2="BackgroundImageFix" result="shape"/>
<feGaussianBlur stdDeviation="75" result="effect1_foregroundBlur_155_8"/>
</filter>
<filter id="filter1_f_155_8" x="809" y="-264" width="1281" height="597" filterUnits="userSpaceOnUse" color-interpolation-filters="sRGB">
<feFlood flood-opacity="0" result="BackgroundImageFix"/>
<feBlend mode="normal" in="SourceGraphic" in2="BackgroundImageFix" result="shape"/>
<feGaussianBlur stdDeviation="75" result="effect1_foregroundBlur_155_8"/>
</filter>
<linearGradient id="paint0_linear_155_8" x1="1801.94" y1="957.769" x2="1328.71" y2="453.948" gradientUnits="userSpaceOnUse">
<stop stop-color="#DAE3FE"/>
<stop offset="1" stop-color="#E9EFFD"/>
</linearGradient>
<linearGradient id="paint1_linear_155_8" x1="1445.27" y1="870.991" x2="1383.65" y2="344.351" gradientUnits="userSpaceOnUse">
<stop stop-color="#09005D"/>
<stop offset="1" stop-color="#1A0F91"/>
</linearGradient>
<linearGradient id="paint2_linear_155_8" x1="1219.66" y1="702.283" x2="1803.02" y2="376.874" gradientUnits="userSpaceOnUse">
<stop stop-color="#FF928E"/>
<stop offset="1" stop-color="#FE7062"/>
</linearGradient>
<linearGradient id="paint3_linear_155_8" x1="1406.03" y1="536.718" x2="1406.03" y2="684.602" gradientUnits="userSpaceOnUse">
<stop stop-color="#09005D"/>
<stop offset="1" stop-color="#1A0F91"/>
</linearGradient>
<linearGradient id="paint4_linear_155_8" x1="1510.23" y1="549.895" x2="1499.15" y2="627.531" gradientUnits="userSpaceOnUse">
<stop stop-color="#09005D"/>
<stop offset="1" stop-color="#1A0F91"/>
</linearGradient>
<linearGradient id="paint5_linear_155_8" x1="1498.27" y1="811.616" x2="1666.86" y2="527.984" gradientUnits="userSpaceOnUse">
<stop stop-color="#09005D"/>
<stop offset="1" stop-color="#1A0F91"/>
</linearGradient>
<linearGradient id="paint6_linear_155_8" x1="1149.9" y1="686.275" x2="1315.54" y2="686.275" gradientUnits="userSpaceOnUse">
<stop stop-color="#4F52FF"/>
<stop offset="1" stop-color="#4042E2"/>
</linearGradient>
<linearGradient id="paint7_linear_155_8" x1="1163.18" y1="618.784" x2="1175.92" y2="518.963" gradientUnits="userSpaceOnUse">
<stop stop-color="#4F52FF"/>
<stop offset="1" stop-color="#4042E2"/>
</linearGradient>
<linearGradient id="paint8_linear_155_8" x1="1175.81" y1="620.397" x2="1188.54" y2="520.569" gradientUnits="userSpaceOnUse">
<stop stop-color="#4F52FF"/>
<stop offset="1" stop-color="#4042E2"/>
</linearGradient>
<linearGradient id="paint9_linear_155_8" x1="1186.96" y1="621.816" x2="1199.7" y2="521.996" gradientUnits="userSpaceOnUse">
<stop stop-color="#4F52FF"/>
<stop offset="1" stop-color="#4042E2"/>
</linearGradient>
<linearGradient id="paint10_linear_155_8" x1="1199.59" y1="623.429" x2="1212.32" y2="523.601" gradientUnits="userSpaceOnUse">
<stop stop-color="#4F52FF"/>
<stop offset="1" stop-color="#4042E2"/>
</linearGradient>
<linearGradient id="paint11_linear_155_8" x1="1210.74" y1="624.849" x2="1223.47" y2="525.028" gradientUnits="userSpaceOnUse">
<stop stop-color="#4F52FF"/>
<stop offset="1" stop-color="#4042E2"/>
</linearGradient>
<linearGradient id="paint12_linear_155_8" x1="1223.37" y1="626.461" x2="1236.1" y2="526.633" gradientUnits="userSpaceOnUse">
<stop stop-color="#4F52FF"/>
<stop offset="1" stop-color="#4042E2"/>
</linearGradient>
<linearGradient id="paint13_linear_155_8" x1="1234.52" y1="627.881" x2="1247.25" y2="528.06" gradientUnits="userSpaceOnUse">
<stop stop-color="#4F52FF"/>
<stop offset="1" stop-color="#4042E2"/>
</linearGradient>
<linearGradient id="paint14_linear_155_8" x1="1247.14" y1="629.494" x2="1259.88" y2="529.673" gradientUnits="userSpaceOnUse">
<stop stop-color="#4F52FF"/>
<stop offset="1" stop-color="#4042E2"/>
</linearGradient>
<linearGradient id="paint15_linear_155_8" x1="1258.3" y1="630.913" x2="1271.03" y2="531.093" gradientUnits="userSpaceOnUse">
<stop stop-color="#4F52FF"/>
<stop offset="1" stop-color="#4042E2"/>
</linearGradient>
<linearGradient id="paint16_linear_155_8" x1="1270.93" y1="632.526" x2="1283.66" y2="532.705" gradientUnits="userSpaceOnUse">
<stop stop-color="#4F52FF"/>
<stop offset="1" stop-color="#4042E2"/>
</linearGradient>
<linearGradient id="paint17_linear_155_8" x1="1282.08" y1="633.946" x2="1294.82" y2="534.125" gradientUnits="userSpaceOnUse">
<stop stop-color="#4F52FF"/>
<stop offset="1" stop-color="#4042E2"/>
</linearGradient>
<linearGradient id="paint18_linear_155_8" x1="1294.71" y1="635.558" x2="1307.44" y2="535.738" gradientUnits="userSpaceOnUse">
<stop stop-color="#4F52FF"/>
<stop offset="1" stop-color="#4042E2"/>
</linearGradient>
<linearGradient id="paint19_linear_155_8" x1="1240.58" y1="624.542" x2="1217.17" y2="675.068" gradientUnits="userSpaceOnUse">
<stop stop-color="#FF928E"/>
<stop offset="1" stop-color="#FE7062"/>
</linearGradient>
<linearGradient id="paint20_linear_155_8" x1="1171.25" y1="563.645" x2="1156.75" y2="742.461" gradientUnits="userSpaceOnUse">
<stop stop-color="#4F52FF"/>
<stop offset="1" stop-color="#4042E2"/>
</linearGradient>
<linearGradient id="paint21_linear_155_8" x1="1185.38" y1="564.79" x2="1170.89" y2="743.606" gradientUnits="userSpaceOnUse">
<stop stop-color="#4F52FF"/>
<stop offset="1" stop-color="#4042E2"/>
</linearGradient>
<linearGradient id="paint22_linear_155_8" x1="1197.13" y1="565.741" x2="1182.63" y2="744.557" gradientUnits="userSpaceOnUse">
<stop stop-color="#4F52FF"/>
<stop offset="1" stop-color="#4042E2"/>
</linearGradient>
<linearGradient id="paint23_linear_155_8" x1="1209.23" y1="566.722" x2="1194.73" y2="745.538" gradientUnits="userSpaceOnUse">
<stop stop-color="#4F52FF"/>
<stop offset="1" stop-color="#4042E2"/>
</linearGradient>
<linearGradient id="paint24_linear_155_8" x1="1220.42" y1="567.629" x2="1205.92" y2="746.445" gradientUnits="userSpaceOnUse">
<stop stop-color="#4F52FF"/>
<stop offset="1" stop-color="#4042E2"/>
</linearGradient>
<linearGradient id="paint25_linear_155_8" x1="1232.52" y1="568.61" x2="1218.02" y2="747.426" gradientUnits="userSpaceOnUse">
<stop stop-color="#4F52FF"/>
<stop offset="1" stop-color="#4042E2"/>
</linearGradient>
<linearGradient id="paint26_linear_155_8" x1="1244.26" y1="569.569" x2="1229.76" y2="748.377" gradientUnits="userSpaceOnUse">
<stop stop-color="#4F52FF"/>
<stop offset="1" stop-color="#4042E2"/>
</linearGradient>
<linearGradient id="paint27_linear_155_8" x1="1257.38" y1="570.631" x2="1242.88" y2="749.44" gradientUnits="userSpaceOnUse">
<stop stop-color="#4F52FF"/>
<stop offset="1" stop-color="#4042E2"/>
</linearGradient>
<linearGradient id="paint28_linear_155_8" x1="1268.68" y1="571.545" x2="1254.18" y2="750.355" gradientUnits="userSpaceOnUse">
<stop stop-color="#4F52FF"/>
<stop offset="1" stop-color="#4042E2"/>
</linearGradient>
<linearGradient id="paint29_linear_155_8" x1="1280.42" y1="572.497" x2="1265.93" y2="751.314" gradientUnits="userSpaceOnUse">
<stop stop-color="#4F52FF"/>
<stop offset="1" stop-color="#4042E2"/>
</linearGradient>
<linearGradient id="paint30_linear_155_8" x1="1303.71" y1="574.385" x2="1289.21" y2="753.202" gradientUnits="userSpaceOnUse">
<stop stop-color="#4F52FF"/>
<stop offset="1" stop-color="#4042E2"/>
</linearGradient>
<linearGradient id="paint31_linear_155_8" x1="1293.54" y1="573.56" x2="1279.04" y2="752.376" gradientUnits="userSpaceOnUse">
<stop stop-color="#4F52FF"/>
<stop offset="1" stop-color="#4042E2"/>
</linearGradient>
<linearGradient id="paint32_linear_155_8" x1="1117.46" y1="401.791" x2="1399.99" y2="401.791" gradientUnits="userSpaceOnUse">
<stop stop-color="#4F52FF"/>
<stop offset="1" stop-color="#4042E2"/>
</linearGradient>
<linearGradient id="paint33_linear_155_8" x1="1227.5" y1="384.59" x2="1611.87" y2="595.256" gradientUnits="userSpaceOnUse">
<stop stop-color="#50E7B7"/>
<stop offset="1" stop-color="#323992"/>
</linearGradient>
<linearGradient id="paint34_linear_155_8" x1="1221.17" y1="369.188" x2="1605.55" y2="579.854" gradientUnits="userSpaceOnUse">
<stop stop-color="#50E7B7"/>
<stop offset="1" stop-color="#323992"/>
</linearGradient>
<linearGradient id="paint35_linear_155_8" x1="1363.77" y1="255.674" x2="1559.71" y2="58.4795" gradientUnits="userSpaceOnUse">
<stop stop-color="#4F52FF"/>
<stop offset="1" stop-color="#4042E2"/>
</linearGradient>
<linearGradient id="paint36_linear_155_8" x1="1247.83" y1="362.245" x2="1258.78" y2="216.003" gradientUnits="userSpaceOnUse">
<stop stop-color="#4F52FF"/>
<stop offset="1" stop-color="#4042E2"/>
</linearGradient>
<linearGradient id="paint37_linear_155_8" x1="-1202.14" y1="-1898.47" x2="-1283.78" y2="-1978.9" gradientUnits="userSpaceOnUse">
<stop stop-color="#4F52FF"/>
<stop offset="1" stop-color="#4042E2"/>
</linearGradient>
<linearGradient id="paint38_linear_155_8" x1="-1054.08" y1="-2048.76" x2="-1135.72" y2="-2129.2" gradientUnits="userSpaceOnUse">
<stop stop-color="#4F52FF"/>
<stop offset="1" stop-color="#4042E2"/>
</linearGradient>
<linearGradient id="paint39_linear_155_8" x1="1193" y1="576.37" x2="1234.73" y2="500.283" gradientUnits="userSpaceOnUse">
<stop stop-color="#E1473D"/>
<stop offset="1" stop-color="#E9605A"/>
</linearGradient>
<linearGradient id="paint40_linear_155_8" x1="1261.91" y1="413.032" x2="1217.55" y2="557.633" gradientUnits="userSpaceOnUse">
<stop stop-color="#FF928E"/>
<stop offset="1" stop-color="#FE7062"/>
</linearGradient>
<linearGradient id="paint41_linear_155_8" x1="1318.86" y1="-383.632" x2="1311.74" y2="-306.531" gradientUnits="userSpaceOnUse">
<stop stop-color="#FF928E"/>
<stop offset="1" stop-color="#FE7062"/>
</linearGradient>
<linearGradient id="paint42_linear_155_8" x1="1268.63" y1="559.909" x2="1341.28" y2="427.456" gradientUnits="userSpaceOnUse">
<stop stop-color="#E1473D"/>
<stop offset="1" stop-color="#E9605A"/>
</linearGradient>
<linearGradient id="paint43_linear_155_8" x1="1401.4" y1="265.807" x2="1289.68" y2="568.985" gradientUnits="userSpaceOnUse">
<stop stop-color="#FF928E"/>
<stop offset="1" stop-color="#FE7062"/>
</linearGradient>
<linearGradient id="paint44_linear_155_8" x1="1319.86" y1="-526.202" x2="1323.37" y2="-395.084" gradientUnits="userSpaceOnUse">
<stop stop-color="#FF928E"/>
<stop offset="1" stop-color="#FE7062"/>
</linearGradient>
<linearGradient id="paint45_linear_155_8" x1="1350.26" y1="713.865" x2="1425.01" y2="577.574" gradientUnits="userSpaceOnUse">
<stop stop-color="#E1473D"/>
<stop offset="1" stop-color="#E9605A"/>
</linearGradient>
<linearGradient id="paint46_linear_155_8" x1="1479.93" y1="427.536" x2="1395.31" y2="660.873" gradientUnits="userSpaceOnUse">
<stop stop-color="#FF928E"/>
<stop offset="1" stop-color="#FE7062"/>
</linearGradient>
<linearGradient id="paint47_linear_155_8" x1="1477.58" y1="-357.052" x2="1471.83" y2="-245.801" gradientUnits="userSpaceOnUse">
<stop stop-color="#FF928E"/>
<stop offset="1" stop-color="#FE7062"/>
</linearGradient>
<linearGradient id="paint48_linear_155_8" x1="1444.11" y1="555.739" x2="1498.88" y2="455.878" gradientUnits="userSpaceOnUse">
<stop stop-color="#E1473D"/>
<stop offset="1" stop-color="#E9605A"/>
</linearGradient>
<linearGradient id="paint49_linear_155_8" x1="1540.66" y1="297.073" x2="1483.16" y2="518.91" gradientUnits="userSpaceOnUse">
<stop stop-color="#FF928E"/>
<stop offset="1" stop-color="#FE7062"/>
</linearGradient>
<linearGradient id="paint50_linear_155_8" x1="1532.71" y1="337.478" x2="1512.18" y2="417.166" gradientUnits="userSpaceOnUse">
<stop stop-color="#FF928E"/>
<stop offset="1" stop-color="#FE7062"/>
</linearGradient>
<linearGradient id="paint51_linear_155_8" x1="220.797" y1="1691.22" x2="407.23" y2="1488.28" gradientUnits="userSpaceOnUse">
<stop stop-color="#FF928E"/>
<stop offset="1" stop-color="#FE7062"/>
</linearGradient>
<linearGradient id="paint52_linear_155_8" x1="1455.01" y1="-203.977" x2="1469.8" y2="-88.1405" gradientUnits="userSpaceOnUse">
<stop stop-color="#09005D"/>
<stop offset="1" stop-color="#1A0F91"/>
</linearGradient>
<linearGradient id="paint53_linear_155_8" x1="1605.8" y1="824.176" x2="1596.49" y2="824.176" gradientUnits="userSpaceOnUse">
<stop stop-color="#FEBBBA"/>
<stop offset="1" stop-color="#FF928E"/>
</linearGradient>
<linearGradient id="paint54_linear_155_8" x1="500.099" y1="-1860.72" x2="570.334" y2="-1695.59" gradientUnits="userSpaceOnUse">
<stop stop-color="#4F52FF"/>
<stop offset="1" stop-color="#4042E2"/>
</linearGradient>
<linearGradient id="paint55_linear_155_8" x1="1499.85" y1="-209.708" x2="1514.64" y2="-93.8715" gradientUnits="userSpaceOnUse">
<stop stop-color="#09005D"/>
<stop offset="1" stop-color="#1A0F91"/>
</linearGradient>
<linearGradient id="paint56_linear_155_8" x1="1639.36" y1="823.701" x2="1631.31" y2="823.701" gradientUnits="userSpaceOnUse">
<stop stop-color="#FEBBBA"/>
<stop offset="1" stop-color="#FF928E"/>
</linearGradient>
<linearGradient id="paint57_linear_155_8" x1="521.415" y1="-1869.79" x2="591.651" y2="-1704.65" gradientUnits="userSpaceOnUse">
<stop stop-color="#4F52FF"/>
<stop offset="1" stop-color="#4042E2"/>
</linearGradient>
<linearGradient id="paint58_linear_155_8" x1="1660.44" y1="668.176" x2="1513.96" y2="562.744" gradientUnits="userSpaceOnUse">
<stop stop-color="#4F52FF"/>
<stop offset="1" stop-color="#4042E2"/>
</linearGradient>
<linearGradient id="paint59_linear_155_8" x1="1567.49" y1="581.31" x2="1519.92" y2="581.31" gradientUnits="userSpaceOnUse">
<stop stop-color="#FEBBBA"/>
<stop offset="1" stop-color="#FF928E"/>
</linearGradient>
<linearGradient id="paint60_linear_155_8" x1="1530.52" y1="573.336" x2="1562.43" y2="645.95" gradientUnits="userSpaceOnUse">
<stop stop-color="#FEBBBA"/>
<stop offset="1" stop-color="#FF928E"/>
</linearGradient>
<linearGradient id="paint61_linear_155_8" x1="1520.15" y1="549.153" x2="1506.84" y2="528.683" gradientUnits="userSpaceOnUse">
<stop stop-color="#FEBBBA"/>
<stop offset="1" stop-color="#FF928E"/>
</linearGradient>
<linearGradient id="paint62_linear_155_8" x1="1679.75" y1="641.362" x2="1533.26" y2="535.923" gradientUnits="userSpaceOnUse">
<stop stop-color="#4F52FF"/>
<stop offset="1" stop-color="#4042E2"/>
</linearGradient>
<linearGradient id="paint63_linear_155_8" x1="1671.57" y1="648.675" x2="1611.38" y2="648.675" gradientUnits="userSpaceOnUse">
<stop stop-color="#FEBBBA"/>
<stop offset="1" stop-color="#FF928E"/>
</linearGradient>
<linearGradient id="paint64_linear_155_8" x1="1637.79" y1="543.504" x2="1605.75" y2="601.016" gradientUnits="userSpaceOnUse">
<stop stop-color="#09005D"/>
<stop offset="1" stop-color="#1A0F91"/>
</linearGradient>
<linearGradient id="paint65_linear_155_8" x1="1615.84" y1="642.364" x2="1597.09" y2="642.364" gradientUnits="userSpaceOnUse">
<stop stop-color="#FEBBBA"/>
<stop offset="1" stop-color="#FF928E"/>
</linearGradient>
<linearGradient id="paint66_linear_155_8" x1="1625.35" y1="584.328" x2="1601.55" y2="584.328" gradientUnits="userSpaceOnUse">
<stop stop-color="#FEBBBA"/>
<stop offset="1" stop-color="#FF928E"/>
</linearGradient>
<linearGradient id="paint67_linear_155_8" x1="1596.14" y1="569.002" x2="1622.3" y2="553.033" gradientUnits="userSpaceOnUse">
<stop stop-color="#FEBBBA"/>
<stop offset="1" stop-color="#FF928E"/>
</linearGradient>
<linearGradient id="paint68_linear_155_8" x1="1636.15" y1="536.216" x2="1602.35" y2="562.915" gradientUnits="userSpaceOnUse">
<stop stop-color="#09005D"/>
<stop offset="1" stop-color="#1A0F91"/>
</linearGradient>
<linearGradient id="paint69_linear_155_8" x1="1603.01" y1="574.949" x2="1626.55" y2="560.588" gradientUnits="userSpaceOnUse">
<stop stop-color="#FEBBBA"/>
<stop offset="1" stop-color="#FF928E"/>
</linearGradient>
<clipPath id="clip0_155_8">
<rect width="1920" height="1000" fill="white"/>
</clipPath>
<clipPath id="clip1_155_8">
<rect width="678" height="669" fill="white" transform="translate(1067 180)"/>
</clipPath>
</defs>
</svg>
