<svg width="24" height="24" viewBox="0 0 24 24" fill="none" xmlns="http://www.w3.org/2000/svg">
<g id="telephone 1" clip-path="url(#clip0_432_193)">
<g id="Group">
<path id="Vector" d="M23.3091 17.9925L19.8403 14.5222C19.3745 14.0587 18.7507 13.8034 18.0841 13.8034C17.3904 13.8034 16.7354 14.0765 16.2402 14.572L14.8899 15.922C13.8407 15.3388 12.4461 14.5367 10.9983 13.0888C9.55208 11.6422 8.74986 10.2517 8.16368 9.19679L9.51524 7.84622C10.5201 6.83928 10.5407 5.22383 9.56121 4.24528L6.09311 0.77708C5.62856 0.311238 5.00476 0.0546875 4.33647 0.0546875C3.65826 0.0546875 3.01669 0.315805 2.52433 0.791079C2.22648 1.03095 0.731756 2.35044 0.174671 5.07162C-0.605306 8.88047 1.18678 12.5452 6.36028 17.7207C12.1395 23.4982 17.0733 23.9473 18.4478 23.9473C18.7339 23.9473 18.9065 23.9296 18.9526 23.9242C21.6479 23.6083 22.6129 22.4113 23.3176 21.5373C24.2306 20.4046 24.2274 18.9141 23.3091 17.9925ZM22.1581 20.6026C21.4958 21.424 20.8703 22.1999 18.7794 22.445C18.7783 22.4451 18.6639 22.4579 18.4478 22.4579C17.218 22.4579 12.7878 22.0403 7.41339 16.6676C2.64248 11.8947 0.967953 8.62163 1.63365 5.37027C2.11955 2.99678 3.40955 1.98795 3.45969 1.94963L3.50417 1.91677L3.54319 1.87765C3.75854 1.6625 4.04021 1.54395 4.33637 1.54395C4.60603 1.54395 4.85543 1.64502 5.03931 1.82949L8.5082 5.29849C8.90732 5.69721 8.88608 6.36818 8.46144 6.79371L6.93296 8.3209L6.90784 8.34721C6.50951 8.78595 6.55637 9.37888 6.77579 9.76499C7.40893 10.9076 8.27617 12.4724 9.94495 14.1416C11.6082 15.8049 13.1707 16.6714 14.3101 17.3034C14.4242 17.3674 14.6597 17.4748 14.9544 17.4748C15.3025 17.4748 15.6221 17.3275 15.8587 17.0589L17.2932 15.6249C17.5073 15.4106 17.7881 15.2925 18.0839 15.2925C18.3541 15.2925 18.6048 15.3939 18.7883 15.5764L22.2548 19.0444C22.6951 19.4863 22.5133 20.1619 22.1581 20.6026Z" fill="white"/>
<path id="Vector_2" d="M14.5404 3.7032C15.8199 3.85044 17.3264 4.62545 18.3784 5.67757C19.4403 6.73941 20.2172 8.26124 20.3575 9.55462C20.3989 9.93617 20.7215 10.2189 21.0968 10.2189C21.1236 10.2189 21.1509 10.2174 21.1781 10.2146C21.5869 10.1702 21.8824 9.80283 21.838 9.39398C21.6606 7.75906 20.7384 5.93154 19.4315 4.62456C18.1369 3.32979 16.328 2.40992 14.7107 2.22376C14.3023 2.17641 13.9329 2.46989 13.8858 2.87835C13.8388 3.2868 14.1317 3.65614 14.5404 3.7032Z" fill="white"/>
<path id="Vector_3" d="M13.8452 6.82248C14.5372 6.9022 15.4949 7.4155 16.1223 8.04288C16.755 8.67572 17.2693 9.64255 17.345 10.342C17.3864 10.7237 17.7091 11.0064 18.0844 11.0064C18.1112 11.0064 18.1383 11.0049 18.1655 11.0021C18.5744 10.9577 18.8699 10.5903 18.8256 10.1815C18.6961 8.98727 17.9033 7.71792 17.1752 6.98977C16.4536 6.26807 15.1966 5.47906 14.0154 5.34294C13.6065 5.29539 13.2375 5.58897 13.1905 5.99743C13.1435 6.40598 13.4366 6.77542 13.8452 6.82248Z" fill="white"/>
</g>
</g>
<defs>
<clipPath id="clip0_432_193">
<rect width="24" height="24" fill="white"/>
</clipPath>
</defs>
</svg>
