<svg height="512" viewBox="0 0 24 24" width="512" xmlns="http://www.w3.org/2000/svg"><g id="_01" data-name="01"><path d="m16.00049 1.22h-8c-4.416 0-6.75 2.334-6.75 6.74951l-.001 5c0 5.6211 2.583 6.75049 6.75 6.75049h.49707a.466.466 0 0 1 .2041.1001l1.5 2a2.16718 2.16718 0 0 0 3.59961 0l1.501-2.00049a.24836.24836 0 0 1 .19922-.09961h.499c4.416 0 6.75-2.334 6.75-6.74951l.001-5c0-4.41605-2.33399-6.75049-6.75-6.75049zm5.249 11.75049c0 3.58154-1.668 5.24951-5.25 5.24951h-.499a1.75712 1.75712 0 0 0 -1.39942.69971l-1.5 2a.69163.69163 0 0 1 -1.20117 0l-1.5-2a1.859 1.859 0 0 0 -1.39941-.69971h-.501c-3.70215 0-5.25-.72949-5.25-5.25049l.001-5c0-3.58154 1.668-5.24951 5.25-5.24951h8c3.582 0 5.25 1.66846 5.25 5.25049zm-3.49949-5.00049a.7502.7502 0 0 1 -.75.75h-10a.75.75 0 0 1 0-1.5h10a.7502.7502 0 0 1 .75.75zm-2 5a.7502.7502 0 0 1 -.75.75h-6a.75.75 0 0 1 0-1.5h6a.7502.7502 0 0 1 .75.75z"/></g></svg>