<svg width="32" height="32" viewBox="0 0 32 32" fill="none" xmlns="http://www.w3.org/2000/svg">
<path d="M0.581048 31.4177C0.68553 31.5223 0.809605 31.6052 0.946177 31.6618C1.08275 31.7185 1.22914 31.7476 1.37699 31.7476C1.52483 31.7476 1.67122 31.7185 1.80779 31.6618C1.94437 31.6052 2.06844 31.5223 2.17292 31.4177L15.9992 17.5914L29.831 31.4177C30.0421 31.6288 30.3285 31.7473 30.627 31.7473C30.9255 31.7473 31.2118 31.6288 31.4229 31.4177C31.634 31.2066 31.7526 30.9203 31.7526 30.6217C31.7526 30.3232 31.634 30.0369 31.4229 29.8258L17.591 15.9995L31.4173 2.16766C31.6284 1.95656 31.747 1.67025 31.747 1.37172C31.747 1.07318 31.6284 0.786878 31.4173 0.575782C31.2062 0.364686 30.9199 0.246094 30.6214 0.246094C30.3228 0.246094 30.0365 0.364686 29.8254 0.575782L15.9992 14.4077L2.1673 0.581407C1.95208 0.397102 1.67525 0.300795 1.39211 0.311732C1.10898 0.322668 0.840396 0.440042 0.640039 0.640398C0.439683 0.840754 0.322309 1.10934 0.311373 1.39247C0.300437 1.67561 0.396743 1.95244 0.581048 2.16766L14.4073 15.9995L0.581048 29.8314C0.371516 30.0422 0.253906 30.3273 0.253906 30.6245C0.253906 30.9217 0.371516 31.2069 0.581048 31.4177Z" fill="white"/>
</svg>
