<?xml version="1.0" encoding="utf-8"?>
<!-- Generator: Adobe Illustrator 28.1.0, SVG Export Plug-In . SVG Version: 6.00 Build 0)  -->
<svg version="1.1" id="Layer_1" xmlns="http://www.w3.org/2000/svg" xmlns:xlink="http://www.w3.org/1999/xlink" x="0px" y="0px"
	 viewBox="0 0 16 16" style="enable-background:new 0 0 16 16;" xml:space="preserve">
<style type="text/css">
	.st0{fill:#E7B905;}
</style>
<g>
	<path class="st0" d="M10.5,10.8c0.2-0.2,0.4-0.4,0.6-0.7c0.2-0.3,0.4-0.6,0.5-1c0-0.1,0-0.1-0.1-0.1c-0.8,0-1.5,0-2.3,0
		c-0.1,0-0.1,0-0.1,0.1c0,0.4,0,0.9,0,1.4c0,0.1,0,0.1,0.1,0.1c0.2,0,0.4-0.1,0.5-0.3c0.1-0.1,0.2-0.1,0.2-0.2c0,0,0-0.1,0-0.1
		c0,0,0,0-0.1,0c-0.1,0-0.2,0-0.3,0c0,0,0,0,0,0V9.6h1.2c-0.2,0.4-0.5,0.8-0.9,1.1c-0.4,0.3-0.8,0.5-1.3,0.6V8.7c0,0,0,0,0,0
		c0.9,0,1.9,0,2.8,0c0.2,0,0.2,0,0.2-0.2c0-0.2,0-0.5,0-0.7c0-0.1,0-0.3,0-0.4c0,0,0-0.1-0.1-0.1c-1,0-2,0-2.9,0c0,0,0,0-0.1,0V4.7
		c0.3,0,1,0.2,1.6,0.8c0.3,0.3,0.5,0.5,0.6,0.9H9.7V5.9c0.1,0,0.2,0,0.3,0c0,0,0.1,0,0.1,0c0,0,0-0.1,0-0.1C10,5.7,9.9,5.7,9.8,5.6
		C9.6,5.5,9.5,5.4,9.3,5.3c-0.1,0-0.1,0-0.1,0.1c0,0.5,0,0.9,0,1.4c0,0.1,0,0.1,0.1,0.1c0.8,0,1.5,0,2.3,0c0.1,0,0.1,0,0.1-0.1
		c0-0.1,0-0.2-0.1-0.2c-0.2-0.6-0.6-1-1-1.5c-0.3-0.3-0.7-0.5-1-0.7C9,4.2,8.6,4.1,8.2,4.1c-0.1,0-0.1,0-0.1,0.1c0,0.5,0,1,0,1.5
		c0,0,0,0,0,0.1H7.9c0,0,0,0,0-0.1c0-0.5,0-1,0-1.5c0-0.1,0-0.1-0.1-0.1c-0.2,0-0.3,0-0.5,0C6.6,4.3,6,4.6,5.4,5.1
		C5.2,5.3,5.1,5.5,4.9,5.7C4.7,6,4.5,6.4,4.4,6.8c0,0.1,0,0.1,0.1,0.1c0.4,0,0.9,0,1.3,0c0.3,0,0.7,0,1,0c0.1,0,0.1,0,0.1-0.1
		c0-0.5,0-0.9,0-1.4c0,0,0-0.1-0.1-0.1c0,0,0,0-0.1,0C6.4,5.4,6.3,5.5,6.1,5.6C6,5.7,6,5.7,5.9,5.8c0,0,0,0.1,0,0.1c0,0,0,0,0.1,0
		c0.1,0,0.2,0,0.2,0c0,0,0,0,0.1,0v0.4H5c0.2-0.5,0.6-0.9,1-1.2c0.4-0.2,0.8-0.4,1.2-0.5v2.6c0,0,0,0-0.1,0c-0.9,0-1.9,0-2.8,0
		c-0.2,0-0.2,0-0.2,0.2c0,0.2,0,0.5,0,0.7c0,0.1,0,0.3,0.1,0.4c0,0,0,0.1,0.1,0.1c1,0,2,0,2.9,0c0,0,0,0,0,0v2.6
		c-0.5-0.1-1-0.3-1.4-0.6C5.5,10.4,5.2,10,5,9.6h1.2V10c-0.1,0-0.2,0-0.3,0c0,0-0.1,0-0.1,0c0,0,0,0.1,0,0.1
		c0.1,0.1,0.1,0.1,0.2,0.2c0.2,0.1,0.3,0.2,0.6,0.3c0.1,0,0.1,0,0.1-0.1c0-0.4,0-0.9,0-1.4c0-0.1,0-0.1-0.1-0.1c-0.8,0-1.5,0-2.3,0
		c-0.1,0-0.1,0-0.1,0.1c0,0.1,0,0.2,0.1,0.2C4.7,10,5,10.5,5.5,10.9c0.3,0.3,0.6,0.5,1,0.6c0.4,0.2,0.8,0.3,1.2,0.3
		c0.1,0,0.1,0,0.1-0.1c0-0.5,0-1,0-1.5c0,0,0,0,0-0.1h0.2c0,0,0,0,0,0.1c0,0.5,0,1,0,1.5c0,0.1,0,0.1,0.1,0.1c0.2,0,0.4,0,0.6-0.1
		C9.4,11.6,10,11.3,10.5,10.8z M8.2,8.2C8.1,8.2,8.1,8.2,8.2,8.2c-0.1,0.5-0.1,1-0.1,1.4c0,0,0,0,0,0.1h0H7.9c0,0,0,0,0-0.1
		c0-0.4,0-0.9,0-1.3c0-0.1,0-0.1-0.1-0.1c-1,0-2.1,0-3.1,0c0,0,0,0-0.1,0c0-0.1,0-0.3,0-0.4c0,0,0,0,0.1,0c1.1,0,2.1,0,3.2,0
		c0.1,0,0.1,0,0.1-0.1c0-0.4,0-0.9,0-1.3c0,0,0,0,0-0.1h0.2c0,0,0,0,0,0.1c0,0.4,0,0.9,0,1.3c0,0.1,0,0.1,0.1,0.1c1.1,0,2.1,0,3.2,0
		c0,0,0,0,0.1,0c0,0.1,0,0.3,0,0.4c0,0,0,0-0.1,0C10.3,8.2,9.2,8.2,8.2,8.2z"/>
	<path class="st0" d="M1.7,7.2c0.1-0.1,0-0.2-0.1-0.3c-0.1,0-0.2,0-0.2,0.1c0,0,0,0,0-0.1c0-0.1,0-0.2,0.1-0.2
		c0.1-0.1,0.2-0.1,0.3-0.1c0.1,0,0.2,0.1,0.2,0.2C1.9,6.9,1.9,7,2,7l0,0C2,7.1,1.9,7.1,1.9,7.2C1.7,7.4,1.7,7.7,1.7,7.9
		c0,0.1,0,0.2,0.1,0.3c0,0.1,0,0.1,0,0.2c0,0,0,0.1-0.1,0.1c-0.1,0-0.1,0-0.1-0.1c0,0,0-0.1,0-0.1c0.1-0.1,0.1-0.1,0-0.2
		c0,0-0.1-0.1-0.2,0c-0.1,0-0.2,0.2-0.1,0.3s0.1,0.2,0.2,0.3c0.1,0.1,0.2,0.1,0.3,0.1c0.1,0,0.1,0,0.1,0.1c0,0,0,0,0,0
		C2,8.9,2.1,8.9,2.3,8.9c0,0,0,0,0,0C2.4,9,2.5,9.1,2.6,9.1c0.1,0,0.3,0.1,0.4,0c0,0,0,0,0.1,0c0.1,0.1,0.3,0.1,0.5,0.1
		c0.1,0,0.2-0.1,0.3-0.1c0,0,0,0,0,0c0,0,0,0,0,0C3.8,9,3.7,9,3.6,9C3.5,8.9,3.3,8.8,3.2,8.7c0,0-0.1-0.1-0.1-0.1c0.1,0,0.1,0,0.1,0
		c0.1,0,0.2,0,0.4,0.1c0.1,0,0.2,0,0.2,0.1c0,0,0,0-0.1,0c-0.1,0-0.1,0.1,0,0.2c0,0.1,0.1,0.1,0.2,0c0,0,0.1-0.1,0.1-0.1
		c0-0.1,0-0.2-0.1-0.3C3.7,8.5,3.6,8.4,3.4,8.4C3.1,8.4,2.9,8.2,2.8,7.9C2.7,7.7,2.7,7.5,2.7,7.2c0-0.1,0-0.2,0.1-0.4
		c0.2,0.2,0.5,0.2,0.7,0C3.6,7,3.7,7.2,3.7,7.3c0,0,0,0,0,0C3.5,7.1,3.4,7.2,3.3,7.3c0,0.1,0,0.2,0,0.3c0.1,0.1,0.2,0.1,0.3,0.1
		c0.2,0,0.3-0.2,0.3-0.4c0-0.2-0.1-0.3-0.2-0.5c0,0,0,0,0-0.1c0-0.1,0-0.1,0-0.2c0,0,0-0.1,0.1-0.1c0.2,0,0.4-0.1,0.5-0.3
		c0.1-0.2,0-0.4-0.2-0.5c-0.1,0-0.2,0-0.3,0.1C3.7,5.9,3.7,6,3.7,6.1C3.8,6.2,3.9,6.3,4,6.2c0,0,0,0,0,0C4,6.3,3.8,6.4,3.7,6.5
		C3.6,6.2,3.4,6,3.1,6.1c0,0,0,0,0-0.1c0.1-0.3,0.3-0.6,0.5-0.8C3.8,5.1,4.1,5,4.4,5.1c0.1,0,0.2,0.1,0.2,0.1c0.1,0,0.2,0.1,0.3,0
		C5,5.2,5.1,5.1,5.1,5c0-0.1-0.1-0.1-0.1-0.1C4.9,4.9,4.8,5,4.9,5c0,0,0,0,0,0.1c-0.1,0-0.2,0-0.2-0.1C4.6,5,4.5,4.9,4.3,4.9
		c0,0-0.1,0-0.1,0c0,0,0,0,0,0c0.3-0.1,0.6-0.1,0.9,0c0,0,0,0,0,0c0,0,0,0,0,0c0-0.1-0.1-0.1-0.1-0.2C4.9,4.4,4.7,4.3,4.5,4.3
		c0,0,0,0-0.1,0C4.4,4.1,4,4,3.8,4.1c0,0,0,0-0.1,0C3.7,4,3.5,3.9,3.4,4c0,0,0,0-0.1,0C3.3,3.9,3.2,3.9,3.1,3.9
		c-0.2,0-0.3,0-0.5,0.1C2.6,4,2.5,4.1,2.5,4.2c0,0.1,0,0.1,0.1,0.2c0,0,0.1,0.1,0.1,0c0.1,0,0.1-0.1,0.1-0.2c0,0,0-0.1,0-0.1
		c0-0.1,0.1-0.1,0.2,0C3,4.1,3.1,4.1,3,4.2C3,4.3,3,4.4,2.9,4.4C2.8,4.5,2.7,4.6,2.6,4.7C2.5,4.9,2.4,5.2,2.5,5.5c0,0,0,0,0,0
		c-0.1,0-0.2,0-0.3,0c-0.1,0-0.1,0-0.2,0.1c-0.1,0-0.3-0.1-0.2-0.3c0-0.1,0-0.1,0.1-0.2c0,0,0.1,0,0.1,0C1.9,5.3,2,5.3,2,5.4
		c0.1,0.1,0.2,0,0.3-0.1c0-0.1,0-0.3-0.1-0.3c-0.1-0.1-0.3-0.1-0.4,0C1.5,5,1.4,5.3,1.5,5.6c0.1,0.2,0.2,0.3,0.3,0.3c0,0,0,0,0,0
		C1.8,6,1.7,6,1.6,6c0,0,0,0,0,0.1c0.1,0.1,0.1,0.2,0.2,0.3c-0.1,0-0.1,0-0.2,0c-0.2,0-0.3,0.1-0.4,0.1C1,6.7,0.9,7,1.1,7.2
		c0.1,0.1,0.2,0.2,0.3,0.2C1.6,7.4,1.7,7.3,1.7,7.2z M2.6,6.4C2.7,6.3,2.8,6.2,3,6.2c0,0,0,0,0,0C2.9,6.2,2.8,6.3,2.7,6.4
		c0,0,0,0,0,0.1c0.1,0.1,0.1,0.1,0.1,0.2c0,0,0,0.1,0,0.1C2.7,6.6,2.6,6.5,2.6,6.4z M3.5,6.3c-0.1,0-0.2,0.1-0.2,0.2
		c0,0.1-0.1,0.1,0,0.2c0,0,0,0.1,0,0.1c0,0.1,0,0.1,0.1,0.2l0,0c-0.1,0-0.1,0-0.1-0.1c0,0,0-0.1,0-0.1c0,0,0-0.1,0-0.1c0,0,0,0,0,0
		c0,0,0.1-0.1,0.1-0.1c0,0,0-0.1,0.1-0.1C3.4,6.3,3.5,6.3,3.5,6.3z M3.3,6.2C3.3,6.3,3.2,6.3,3.2,6.4c0,0-0.1,0.1-0.1,0.1
		c0,0,0,0,0,0.1c0,0,0,0.1,0,0.1c0,0.1,0,0.2,0,0.2v0C3.1,6.9,3,6.8,3,6.8c0-0.1,0-0.1,0-0.2c0,0,0-0.1,0-0.1C3,6.4,3.1,6.4,3.2,6.3
		C3.2,6.3,3.2,6.2,3.3,6.2C3.3,6.2,3.3,6.2,3.3,6.2z M3.1,6.2c0,0,0.1,0,0.1-0.1l0,0C3.1,6.2,3.1,6.3,3,6.4c0,0-0.1,0-0.1,0.1
		c0,0,0,0,0,0.1c0,0,0,0.1,0,0.1c0,0.1,0,0.2,0,0.3C2.8,6.8,2.8,6.6,2.8,6.4C2.9,6.4,3,6.3,3.1,6.2z M1.2,7.1
		C1.1,6.9,1.1,6.7,1.3,6.5c0.1-0.1,0.3-0.1,0.5,0c0,0,0.1,0.1,0.1,0.1c0.1,0,0.1,0,0.2,0c0,0,0.1,0.1,0,0.1c0,0,0,0.1-0.1,0.1
		c0,0,0,0,0,0c0,0,0,0,0,0c0,0,0,0,0,0c0,0-0.1,0-0.1,0c0,0,0,0,0,0.1c0,0.1,0,0.1,0.1,0.1c0,0,0.1,0.1,0.2,0.1c0,0,0.1,0,0.1,0
		c0.1,0,0.2,0,0.2,0c0,0.1,0,0.1-0.1,0.2c0,0,0,0-0.1,0c0,0,0,0,0,0c0,0,0,0,0.1,0c0,0,0,0,0,0c0-0.1-0.1-0.1-0.1-0.1
		C2.2,6.9,2.2,6.9,2.2,7c0,0.1,0.1,0.1,0.1,0.1c0.1,0,0.2-0.1,0.2-0.2c0.1-0.2-0.1-0.3-0.2-0.3c0,0,0,0,0,0c0,0,0,0.1-0.1,0.1
		c0,0-0.1,0-0.1,0c0,0,0-0.1,0-0.1c0,0,0,0,0.1,0c0,0,0,0,0,0c0,0,0,0,0,0c0,0,0,0,0,0c0,0,0.1,0,0.1,0c0,0,0,0,0,0c0,0,0-0.1,0-0.1
		c-0.1,0-0.1-0.1-0.2-0.1C2,6.5,1.8,6.3,1.8,6.2c0-0.1,0-0.1,0-0.1C2,6,2.1,5.9,2.3,6c0.1,0,0.1,0,0.2,0c0,0,0,0,0,0c0,0,0,0,0,0
		c0,0,0,0-0.1,0c0,0,0,0,0,0c0,0,0,0,0,0.1c0,0,0,0-0.1,0c0,0,0-0.1,0.1-0.1c0.1,0,0.1,0,0.1,0.1c0,0,0,0.1,0,0.1c0,0,0,0,0,0
		c0.1,0,0.2,0,0.3-0.1c0.1-0.1,0.1-0.2,0-0.4c-0.1-0.1-0.2-0.1-0.2,0c0,0,0,0.1,0,0.1c0,0,0.1,0,0.1,0c0,0,0,0,0,0c0,0,0,0,0-0.1
		c0,0,0,0,0.1,0c0.1,0,0.1,0.1,0,0.2c-0.1,0-0.2,0-0.2-0.1c0-0.1-0.1-0.1-0.2-0.1c-0.1,0-0.1,0-0.2,0.1c0,0,0,0.1,0,0.1
		c0,0,0,0,0.1,0c0,0,0,0,0,0c0,0,0,0,0,0c0,0,0,0,0,0c0,0,0,0,0,0c0.1,0,0.1,0.1,0,0.1c0,0.1-0.2,0.1-0.2,0c0,0,0,0,0,0
		c-0.1,0-0.2,0-0.2,0c-0.3,0-0.4-0.3-0.3-0.6C1.7,5.1,1.8,5,1.9,5c0.1,0,0.2,0,0.2,0.1c0,0,0,0.1,0,0.1c0,0-0.1,0-0.1,0
		c0,0,0,0,0-0.1c0,0,0,0,0,0C1.9,5,1.9,5,1.9,5C1.6,5.1,1.6,5.4,1.7,5.6c0.1,0.1,0.2,0.2,0.4,0.2c0,0,0.1,0,0.1-0.1
		c0.1-0.1,0.2-0.1,0.3,0c0,0,0,0,0,0c0,0,0,0,0,0c0,0,0.1-0.1,0.1-0.1c0,0,0,0,0,0c0-0.1,0-0.3,0-0.4C2.7,5,2.8,4.9,2.9,4.8
		C3,4.7,3.1,4.7,3.1,4.6c0,0,0.1-0.1,0.1-0.1c0,0,0-0.1,0-0.1c0,0-0.1,0-0.1,0.1c0,0,0,0,0,0c0,0,0,0,0,0c0,0,0,0,0,0
		C3,4.5,3,4.5,3,4.4c0-0.1,0.1-0.1,0.1-0.1c0,0,0,0,0,0c0-0.1,0-0.3-0.1-0.3C2.9,3.9,2.8,4,2.7,4.1c0,0,0,0,0,0c0,0,0,0,0,0
		c0,0.1,0,0.1,0,0.1c0,0-0.1,0-0.1,0c0,0,0-0.1,0-0.1c0,0,0,0,0,0c0.1-0.2,0.4-0.2,0.5,0c0.1,0.1,0.1,0.2,0,0.3c0,0,0,0,0,0.1
		c0,0.1,0,0.1,0,0.2C3.2,4.7,3.1,4.7,3,4.8C2.8,4.9,2.7,5,2.7,5.2c0,0.1,0,0.2,0,0.3c0,0.1,0,0.1,0.1,0.1c0,0,0,0,0.1,0l0,0
		c0-0.1,0.1-0.3,0.2-0.4C3,4.9,3.2,4.8,3.4,4.7c0.1,0,0.2-0.1,0.2-0.2c0,0,0.1-0.1,0.1-0.1c0-0.1,0-0.1-0.1-0.1
		c-0.1,0-0.1,0-0.1,0.1c0,0,0,0,0,0.1c0,0,0,0,0.1,0c0,0,0,0,0,0c0,0,0,0,0,0.1c0,0-0.1,0-0.1,0c0,0-0.1,0-0.1-0.1
		c0-0.1,0-0.1,0.1-0.2s0.1,0,0.2,0c0,0,0.1,0.1,0.1,0.2c0,0.1-0.1,0.2-0.2,0.2C3.4,4.7,3.3,4.8,3.2,4.9C3,5,2.9,5.2,2.8,5.4
		c0,0.1,0,0.1,0,0.2c0,0,0,0,0,0C3,5.3,3.2,5,3.4,4.9c0.1-0.1,0.3-0.1,0.4-0.2c0.1,0,0.2,0,0.3-0.1c0,0,0,0,0,0c0,0,0.1-0.1,0-0.1
		c0,0-0.1-0.1-0.1-0.1c0,0-0.1,0-0.1,0c0,0,0,0,0,0.1c0,0,0,0,0.1,0c0,0,0,0,0.1,0c0,0,0,0,0,0c0,0-0.1,0-0.1,0c0,0,0-0.1,0-0.1
		c0.1-0.1,0.3,0,0.3,0.1c0,0,0,0,0,0c0.1,0,0.2-0.1,0.3,0c0,0,0,0,0.1,0c0,0,0.1,0.1,0,0.1c0,0-0.1,0.1-0.1,0c0,0,0,0,0-0.1
		c0,0,0,0,0,0c0,0,0,0,0,0c0,0,0,0,0,0c0,0,0,0,0,0c0,0,0,0,0-0.1c-0.1-0.1-0.2,0-0.3,0C4.2,4.7,4,4.7,3.9,4.7C3.5,4.8,3.2,5,3,5.3
		C3,5.4,3,5.5,3,5.5c0,0.1,0,0.1,0,0.2C3,6,2.8,6.2,2.6,6.1c-0.1,0-0.2,0-0.3-0.1C2.1,6,2,6,1.8,6.1c0,0,0,0,0,0.1
		C1.9,6.3,2,6.4,2.1,6.5c0.1,0,0.1,0.1,0.2,0.1c0,0,0,0,0,0c0.1,0,0.2,0.1,0.2,0.2c0,0.1,0,0.2-0.1,0.3C2.4,7.2,2.4,7.3,2.4,7.4
		c0,0.2,0,0.4,0,0.6c0.1,0.2,0.2,0.4,0.3,0.5c0,0,0.1,0.1,0.1,0.1C2.9,8.6,3,8.7,3,8.7C3,8.9,3.1,9,3.2,9c0,0,0,0,0.1,0c0,0,0,0,0,0
		c0,0,0,0,0,0c0,0,0,0,0,0c0,0,0,0,0,0c0,0,0,0,0,0c0,0,0,0,0,0c0.1,0,0.1,0,0.1,0.1c0,0.1,0,0.1-0.1,0.1C3.2,9.1,3.1,9,3,8.9
		c0,0,0,0,0-0.1c-0.1,0.1-0.1,0.1-0.2,0c0,0-0.1-0.1-0.1-0.1c0,0,0-0.1,0.1-0.1c0.1,0,0.1,0,0.1,0c0,0,0,0,0,0.1c0,0,0,0,0,0
		c0,0,0,0-0.1,0c0,0,0,0,0,0.1c0,0.1,0.1,0.1,0.2,0.1c0,0,0,0,0-0.1c0-0.1,0-0.1-0.1-0.2C2.8,8.5,2.7,8.4,2.6,8.4
		C2.4,8.1,2.3,7.9,2.3,7.6c0-0.1,0-0.3,0.1-0.4c0,0-0.1,0-0.1,0c0,0.1-0.1,0.2-0.1,0.3c0,0.2,0,0.4,0.1,0.6c0,0.1,0.1,0.2,0.1,0.3
		c0,0.1,0,0.2,0,0.2c0,0.1-0.1,0.1-0.1,0.1c-0.1,0-0.1-0.1-0.1-0.1c0-0.1,0-0.1,0-0.2c0,0,0.1,0,0.1,0c0,0,0.1,0.1,0.1,0.1
		c0,0,0,0,0,0c0,0,0,0,0,0c0,0,0-0.1-0.1-0.1c0,0-0.1,0-0.1,0.1c0,0.1,0,0.1,0.1,0.1c0.1,0,0.1,0,0.1-0.1c0-0.1,0-0.2,0-0.3
		c0-0.1-0.1-0.2-0.1-0.3c-0.1-0.2-0.1-0.5,0-0.7c0,0,0-0.1,0-0.1c0,0,0,0,0,0c-0.1,0-0.1,0-0.1,0C2,7.3,2,7.5,2,7.7
		c0,0.1,0.1,0.3,0.1,0.4c0,0.1,0,0.2,0,0.2c0,0,0,0.1,0,0.1c0,0-0.1,0.1-0.1,0.1C1.9,8.6,1.8,8.7,1.6,8.7c-0.1,0-0.3-0.2-0.3-0.3
		c0,0,0,0,0-0.1c0,0,0-0.1,0-0.1c0,0,0,0,0.1,0s0,0,0,0.1c0,0,0,0,0,0.1c0,0,0,0.1,0,0.1c0,0.1,0.1,0.2,0.2,0.3
		c0.1,0,0.2-0.1,0.2-0.2c0,0,0-0.1,0-0.1c0,0-0.1-0.1,0-0.1c0-0.1,0.1-0.1,0.1-0.1c0,0,0,0,0,0c0,0,0,0,0,0c0,0-0.1,0-0.1,0
		c0,0,0,0.1,0.1,0.1c0,0,0.1,0,0.1,0C2,8.2,2,8.1,2,8C2,7.9,2,7.8,1.9,7.6c0-0.2,0-0.3,0.1-0.5c0-0.1,0.1-0.1,0.1-0.2c0,0,0,0,0,0
		C2.1,6.9,2,6.9,2,6.9c-0.1,0-0.1-0.1-0.1-0.2c0,0,0,0,0,0C1.8,6.6,1.6,6.4,1.5,6.5C1.2,6.5,1.1,6.8,1.2,7c0,0.1,0.1,0.1,0.1,0.2
		c0,0,0,0,0,0c0,0,0-0.1,0.1-0.1c0,0,0.1,0,0.1,0.1c0,0,0,0.1-0.1,0.1C1.4,7.2,1.3,7.2,1.2,7.1z M2.3,6.4C2.3,6.4,2.3,6.4,2.3,6.4
		C2.3,6.4,2.3,6.4,2.3,6.4C2.3,6.4,2.3,6.4,2.3,6.4C2.3,6.3,2.3,6.3,2.3,6.4c0-0.1,0.1,0,0.2,0C2.4,6.4,2.4,6.4,2.3,6.4
		C2.3,6.4,2.4,6.4,2.3,6.4C2.3,6.4,2.3,6.4,2.3,6.4z M2.3,6.2C2.3,6.2,2.3,6.2,2.3,6.2C2.3,6.2,2.3,6.2,2.3,6.2
		C2.3,6.2,2.3,6.2,2.3,6.2C2.4,6.2,2.4,6.2,2.3,6.2c0.1,0,0.1,0,0.1,0c0,0,0.1,0.1,0.1,0.1C2.5,6.3,2.3,6.3,2.3,6.2z M2.1,6.3
		c0,0-0.1,0-0.1-0.1c0,0,0,0,0,0C2,6.1,2.1,6.1,2.1,6.3L2.1,6.3C2,6.2,2,6.2,2.1,6.3z M2.1,6.1c0,0,0.1,0,0.1,0l0,0v0.2
		c0,0-0.1,0.1-0.1,0.1c0,0,0,0-0.1,0C2.2,6.3,2.2,6.2,2.1,6.1z"/>
	<path class="st0" d="M14.7,6.4c-0.1-0.1-0.3-0.1-0.4-0.1c0,0,0,0,0,0c0,0,0.1-0.1,0.1-0.1c0,0,0.1-0.1,0.1-0.1c0,0,0-0.1,0-0.1
		c-0.1,0-0.2-0.1-0.3-0.1c0.1,0,0.1,0,0.2-0.1c0.1-0.1,0.2-0.2,0.2-0.3c0.1-0.3,0-0.6-0.3-0.7c-0.1-0.1-0.3,0-0.4,0
		c-0.1,0.1-0.1,0.2-0.1,0.3c0,0.1,0.1,0.2,0.2,0.1c0.1,0,0.2-0.1,0.2-0.2c0-0.1,0-0.1,0.1,0c0.1,0.1,0.1,0.3,0,0.4
		c-0.1,0.1-0.2,0-0.3,0c-0.1,0-0.2-0.1-0.3-0.1c0,0,0,0-0.1,0c0,0,0,0,0,0c0.1-0.3,0-0.5-0.2-0.8c-0.1-0.1-0.2-0.2-0.3-0.3
		C13,4.4,13,4.3,13,4.2c0-0.1,0-0.1,0-0.1c0.1,0,0.1,0,0.2,0c0,0,0.1,0.1,0,0.1c0,0,0,0,0,0c0,0.1,0,0.1,0.1,0.1
		c0.1,0,0.1,0,0.1-0.1c0.1-0.1,0.1-0.2-0.1-0.3c-0.1-0.1-0.2-0.1-0.4-0.1c-0.1,0-0.2,0-0.3,0.1C12.7,4,12.7,4,12.6,4
		c-0.1,0-0.2,0-0.3,0.1c0,0,0,0-0.1,0c-0.1,0-0.2,0-0.3,0c-0.1,0-0.2,0.1-0.3,0.2c0,0,0,0-0.1,0c-0.2,0-0.4,0.1-0.5,0.2
		c-0.1,0.1-0.1,0.1-0.2,0.2c0,0,0,0,0,0c0,0,0,0,0,0c0.1,0,0.1,0,0.2-0.1c0.2,0,0.5,0,0.7,0.1c0,0,0,0,0,0c-0.1,0-0.1,0-0.1,0
		C11.5,4.9,11.4,5,11.3,5c-0.1,0-0.1,0.1-0.2,0.1c0,0,0,0,0,0c0,0,0-0.1,0-0.1c0,0-0.1-0.1-0.1,0c0,0-0.1,0-0.1,0.1
		c0,0.1,0,0.1,0,0.2c0.1,0.1,0.2,0.1,0.3,0.1c0.1,0,0.2-0.1,0.3-0.1C11.9,5,12.1,5,12.4,5.2c0.2,0.2,0.4,0.4,0.5,0.6
		c0,0.1,0,0.2,0.1,0.2c-0.3,0-0.5,0.1-0.6,0.4c-0.1,0-0.3-0.1-0.3-0.2c0,0,0,0,0.1,0c0.1,0,0.2-0.1,0.3-0.2c0-0.1-0.1-0.2-0.2-0.3
		c-0.1,0-0.3,0-0.3,0.1c-0.1,0.1-0.1,0.3,0,0.4c0.1,0.1,0.3,0.2,0.4,0.3c0,0,0.1,0,0.1,0.1c0,0,0,0.1,0,0.1c0,0,0,0.1,0,0.1
		c-0.1,0.1-0.2,0.3-0.2,0.5c0,0.2,0.2,0.4,0.4,0.3c0.1,0,0.2-0.2,0.2-0.3c-0.1-0.1-0.2-0.2-0.3-0.1c0,0-0.1,0-0.1,0.1
		c0-0.1,0.1-0.3,0.2-0.4c0.3,0.2,0.5,0.2,0.7,0c0,0,0,0,0,0.1c0.1,0.4,0.1,0.8-0.1,1.1c-0.1,0.2-0.2,0.3-0.4,0.3
		c-0.1,0-0.2,0.1-0.3,0.1c-0.1,0-0.2,0.1-0.3,0.1c-0.1,0.1-0.1,0.2,0,0.3c0.1,0,0.1,0,0.2,0c0-0.1,0-0.1,0-0.2c0,0,0,0-0.1,0
		c0.1-0.1,0.1-0.1,0.2-0.1c0.1,0,0.3,0,0.4-0.1c0,0,0.1,0,0.1,0c0,0,0,0,0,0c0,0-0.1,0.1-0.1,0.1c-0.2,0.2-0.4,0.4-0.7,0.4
		c0,0,0,0,0,0c0,0,0,0,0,0c0,0,0,0,0.1,0c0.2,0.1,0.5,0.1,0.7,0c0,0,0.1,0,0.1,0c0.2,0.1,0.4,0,0.6-0.1c0,0,0.1-0.1,0.1,0
		c0,0,0,0,0.1,0c0.1,0,0.2-0.1,0.3-0.2c0.1,0,0.2,0,0.2,0c0.2-0.1,0.3-0.2,0.4-0.4c0-0.1,0-0.2-0.1-0.2c-0.1,0-0.1,0-0.2,0
		c-0.1,0-0.1,0.1-0.1,0.1c0,0,0,0.1,0.1,0.1c0,0,0,0,0,0.1c0,0.1,0,0.1-0.1,0.1c-0.1,0-0.1,0-0.1-0.1c0-0.1,0-0.2,0-0.3
		c0-0.1,0.1-0.2,0.1-0.4c0-0.3-0.1-0.5-0.3-0.7c0,0,0,0,0,0c0.1,0,0.2-0.1,0.2-0.2c0-0.1,0.1-0.1,0.1-0.2c0.1-0.1,0.3,0,0.3,0.1
		c0.1,0.1,0,0.2,0,0.2c0,0,0,0,0,0c-0.1-0.1-0.1-0.1-0.2-0.1c-0.1,0-0.2,0.1-0.1,0.2c0,0.1,0.2,0.3,0.4,0.3c0.2,0,0.3-0.1,0.4-0.3
		C15.1,6.8,15,6.6,14.7,6.4z M12.8,6.8C12.8,6.8,12.8,6.8,12.8,6.8c0,0.1-0.1,0.2-0.1,0.2C12.8,6.9,12.8,6.8,12.8,6.8
		c0-0.2-0.1-0.2-0.1-0.3c-0.1-0.1-0.1-0.1-0.2-0.1c0,0,0.1-0.1,0.1,0c0,0,0.1,0.1,0.1,0.1c0,0,0.1,0.1,0.1,0.1c0,0,0,0,0,0
		C12.8,6.6,12.8,6.7,12.8,6.8z M13,6.7c0,0.1,0,0.1-0.1,0.2c0,0,0,0,0,0l0,0C12.9,6.8,12.9,6.8,13,6.7c-0.1-0.1-0.1-0.1,0-0.2
		c0,0,0,0,0-0.1c-0.1,0-0.1-0.1-0.1-0.1c0-0.1-0.1-0.1-0.1-0.2c0,0,0,0,0,0c0.1,0,0.1,0.1,0.2,0.1C12.9,6.4,13,6.4,13,6.5
		C13,6.6,13,6.6,13,6.7z M13.1,6.8C13.1,6.8,13,6.8,13.1,6.8c-0.1,0,0-0.1,0-0.2c0,0,0-0.1,0-0.1c0,0,0-0.1,0-0.1c0,0-0.1,0-0.1-0.1
		c-0.1-0.1-0.1-0.1-0.2-0.2c0.2,0,0.3,0.2,0.4,0.3C13.2,6.5,13.1,6.7,13.1,6.8z M13.2,6.7C13.2,6.7,13.2,6.7,13.2,6.7
		c0-0.1,0-0.2,0.1-0.3c0,0,0-0.1,0-0.1c-0.1,0-0.1-0.1-0.2-0.1c0,0-0.1-0.1-0.1-0.1c0.1,0.1,0.3,0.1,0.4,0.2l0,0
		C13.4,6.5,13.3,6.6,13.2,6.7z M14.8,7c0,0.1-0.1,0.1-0.1,0.1c0,0-0.1,0.1-0.2,0c-0.1,0-0.1-0.1-0.1-0.1c0,0,0-0.1,0.1-0.1
		c0,0,0.1,0,0.1,0.1c0,0,0,0,0,0C14.7,7.1,14.7,7.1,14.8,7c0-0.1,0-0.3-0.1-0.4c-0.1-0.1-0.3-0.2-0.4-0.1c0,0-0.1,0-0.1,0.1
		c0,0-0.1,0.1-0.1,0.1c0,0.1-0.1,0.2-0.2,0.2c0,0,0,0-0.1,0c0,0,0,0.1,0,0.1c0,0,0,0,0,0C14,7.2,14,7.3,14.1,7.5
		c0,0.2,0,0.3-0.1,0.5c0,0.1,0,0.1,0,0.2c0,0,0,0.1,0,0.1c0,0,0,0,0.1,0c0,0,0-0.1,0-0.1c0,0,0,0,0,0c0,0,0,0,0,0c0,0,0,0,0,0
		c0,0,0.1,0,0.1,0.1c0,0.1,0,0.1-0.1,0.1c0,0,0,0,0,0c0,0.1,0.1,0.1,0.2,0.2c0.1,0.1,0.3-0.1,0.3-0.2c0-0.1,0-0.1,0-0.2
		c0,0,0,0,0-0.1c0,0,0,0,0-0.1c0,0,0,0,0.1,0c0,0,0.1,0.1,0.1,0.1c0,0,0,0.1,0,0.1c0,0.1-0.1,0.3-0.2,0.3c-0.1,0-0.3,0-0.3-0.2
		c0,0,0-0.1-0.1-0.1c0,0,0-0.1-0.1-0.1c0-0.1,0-0.2,0-0.4c0-0.1,0.1-0.3,0-0.4c0-0.1-0.1-0.2-0.1-0.3c0,0-0.1-0.1-0.1,0c0,0,0,0,0,0
		c0.1,0.1,0.1,0.3,0.1,0.4c0,0.2,0,0.4-0.1,0.6c0,0.1-0.1,0.2-0.1,0.3c0,0,0,0.1,0,0.2c0,0.1,0.1,0.1,0.1,0.1c0.1,0,0.1-0.1,0.1-0.2
		c0,0,0,0-0.1,0c0,0,0,0,0,0c0,0,0,0,0,0c0,0,0,0,0-0.1c0,0,0-0.1,0.1-0.1c0,0,0.1,0,0.1,0c0,0,0.1,0.1,0,0.2c0,0.1-0.1,0.1-0.2,0.1
		c-0.1,0-0.1,0-0.1-0.1c0-0.1,0-0.3,0-0.4c0.1-0.2,0.1-0.3,0.2-0.5c0-0.2,0-0.4-0.1-0.5c0,0,0-0.1-0.1,0c0,0,0,0,0,0.1
		c0.1,0.3,0.1,0.5,0,0.8c-0.1,0.2-0.2,0.3-0.3,0.5c-0.1,0.1-0.1,0.1-0.2,0.2c0,0,0,0,0,0c0,0.1,0,0.1,0,0.1c0.1,0,0.2,0,0.2-0.1
		c0,0,0-0.1,0-0.1c0,0,0,0-0.1,0c0,0,0,0,0,0c0,0,0,0,0,0c0,0,0,0,0,0c0,0,0.1-0.1,0.1-0.1c0.1,0,0.1,0.1,0.1,0.1
		c0,0.1-0.1,0.1-0.2,0.1c-0.1,0-0.1,0-0.1,0C13,8.9,13,9,12.9,9c0,0-0.1,0.1-0.2,0.1c-0.1,0-0.1,0-0.1-0.1c0-0.1,0.1-0.1,0.1-0.1
		c0,0,0,0,0.1,0c0,0,0,0,0,0c0,0,0,0,0,0c0,0,0,0,0,0c0,0,0,0,0,0.1c0,0,0,0,0,0c0.1,0,0.2-0.1,0.2-0.1c0,0,0-0.1,0-0.1
		c0-0.1,0.1-0.2,0.2-0.3c0.1-0.1,0.2-0.2,0.2-0.3c0.1-0.2,0.2-0.4,0.2-0.6c0-0.1,0-0.3-0.1-0.4c0,0,0-0.1-0.1-0.1
		c-0.1-0.1-0.2-0.2-0.1-0.4c0-0.1,0.1-0.2,0.2-0.2c0,0,0,0,0,0c0.1,0,0.2-0.1,0.3-0.1c0.1-0.1,0.2-0.2,0.3-0.3c0,0,0,0,0-0.1
		C14,6,13.9,6,13.7,6c-0.1,0-0.1,0-0.2,0c0,0,0,0,0,0c-0.1,0.1-0.2,0-0.3,0C13.1,6,13,5.9,13.1,5.8c0-0.1,0-0.2-0.1-0.3
		c-0.1-0.2-0.2-0.3-0.3-0.4c-0.2-0.1-0.3-0.2-0.5-0.2c0,0-0.1,0-0.1,0c-0.1,0-0.2-0.1-0.3-0.2c-0.1-0.1-0.2-0.1-0.3-0.1c0,0,0,0,0,0
		c0,0,0,0,0,0c0,0,0,0,0,0c0,0,0,0,0,0c0,0,0,0,0,0c0,0,0,0,0,0c0,0,0,0,0,0.1c0,0-0.1,0.1-0.1,0c0,0-0.1-0.1,0-0.1
		c0,0,0.1-0.1,0.1-0.1c0.1,0,0.1,0,0.2,0c0-0.1,0.1-0.1,0.2-0.1c0,0,0.1,0,0.1,0c0,0,0.1,0.1,0,0.1c0,0-0.1,0.1-0.1,0c0,0,0,0,0-0.1
		c0,0,0,0,0.1,0c0,0,0.1,0,0.1,0c0,0,0-0.1,0-0.1c0,0-0.2,0-0.2,0c0,0,0,0.1,0,0.1c0,0,0.1,0.1,0.1,0.1c0.1,0,0.2,0,0.3,0.1
		C12.6,4.8,12.8,5,13,5.3c0,0.1,0.1,0.2,0.1,0.3l0,0c0,0,0,0,0-0.1c0-0.1-0.1-0.2-0.1-0.3c-0.1-0.2-0.3-0.4-0.5-0.5
		c-0.1-0.1-0.2-0.1-0.2-0.3c0-0.1,0-0.2,0.1-0.2c0.1,0,0.2,0,0.2,0.1c0,0.1,0,0.1-0.1,0.1c0,0-0.1,0-0.1,0c0,0,0,0,0,0c0,0,0,0,0,0
		c0,0,0,0,0.1,0c0,0,0-0.1,0-0.1c0-0.1-0.1-0.1-0.2-0.1c-0.1,0-0.1,0.1,0,0.1c0,0.1,0.1,0.2,0.2,0.2c0.1,0.1,0.2,0.1,0.2,0.1
		c0.2,0.2,0.4,0.4,0.4,0.6c0,0,0,0,0,0c0,0,0,0,0,0c0,0,0,0,0,0c0.1,0,0.1,0,0.1-0.1c0-0.2-0.1-0.4-0.2-0.5
		c-0.1-0.1-0.2-0.2-0.3-0.3c0,0-0.1-0.1-0.1-0.2c0,0,0-0.1,0-0.1c0,0,0-0.1,0-0.1c0-0.1,0-0.2,0.1-0.3c0.1-0.1,0.4,0,0.4,0.1
		c0,0,0,0,0,0c0,0,0.1,0.1,0,0.1c0,0,0,0-0.1,0s0,0-0.1,0c0,0,0,0,0-0.1c0,0,0-0.1,0-0.1C13.2,4,13,3.9,12.9,4
		c-0.1,0.1-0.1,0.2-0.1,0.3c0,0,0,0,0,0c0.1,0,0.1,0,0.1,0.1c0,0,0,0.1-0.1,0.1c0,0,0,0,0,0c0,0,0,0,0,0c0,0,0,0,0,0
		c0,0,0-0.1-0.1,0c0,0,0,0,0,0.1c0,0,0,0.1,0,0.1c0,0.1,0.1,0.1,0.2,0.2c0.1,0.1,0.2,0.2,0.3,0.3c0.1,0.1,0.1,0.3,0.1,0.4
		c0,0.1,0,0.1,0,0.2c0,0,0,0,0,0c0,0,0.1,0,0.1,0c0.1,0,0.2,0,0.3,0.1c0,0,0,0,0,0c0.2,0,0.4,0,0.5-0.2c0.1-0.2,0-0.5-0.2-0.5
		c0,0-0.1,0-0.1,0c0,0,0,0.1,0,0.1c0,0,0,0.1-0.1,0.1c0,0-0.1,0-0.1,0c0,0,0-0.1,0-0.1C13.9,5,14,4.9,14.1,5
		c0.2,0.1,0.3,0.3,0.3,0.5c0,0.2-0.2,0.3-0.4,0.3c-0.1,0-0.1,0-0.2,0c0,0.1-0.1,0.1-0.1,0.1c0,0-0.1,0-0.1-0.1c0,0,0-0.1,0-0.1
		c0,0,0,0,0,0c0,0,0,0,0,0c0,0,0,0,0,0c0,0,0,0,0,0c0,0,0,0,0,0c0,0,0.1,0,0.1,0c0,0,0-0.1,0-0.1c0,0-0.1,0-0.1,0
		c-0.1,0-0.2,0-0.2,0.1c0,0.1-0.1,0.1-0.2,0.1c-0.1,0-0.1-0.1,0-0.1c0,0,0,0,0.1,0c0,0,0,0,0,0c0,0,0,0,0,0.1c0,0,0,0,0,0
		c0,0,0.1,0,0.1,0c0,0,0-0.1,0-0.1c0-0.1-0.1-0.1-0.2,0c-0.1,0.1-0.1,0.2,0,0.3c0.1,0.1,0.2,0.2,0.3,0.1c0,0,0,0,0,0c0,0,0,0,0,0
		c0,0,0-0.1,0-0.1c0,0,0.1-0.1,0.1-0.1c0,0,0,0,0.1,0.1c0,0,0,0,0,0.1c0,0,0,0,0,0c0,0,0,0,0,0c0,0,0,0,0,0c0,0-0.1,0-0.1,0
		c0,0,0,0.1,0,0.1c0,0,0.1,0,0.1,0c0,0,0.1,0,0.1,0c0.2-0.1,0.3,0,0.5,0.1c0.1,0,0.1,0,0,0.1c-0.1,0.2-0.2,0.3-0.4,0.3
		c-0.1,0-0.1,0.1-0.2,0.1c0,0,0,0,0,0.1c0,0,0,0,0,0c0,0,0,0,0.1,0c0,0,0,0,0,0c0,0,0,0,0,0c0,0,0,0,0.1,0c0.1,0,0.1,0.1,0,0.1
		c0,0-0.1,0-0.1,0c0,0-0.1-0.1-0.1-0.1c0,0,0,0,0,0c-0.1,0-0.1,0.1-0.2,0.2c-0.1,0.1,0,0.3,0.2,0.4c0.1,0,0.2,0,0.2-0.1
		c0,0,0-0.1-0.1-0.1c0,0-0.1,0-0.1,0c0,0,0,0,0,0c0,0,0,0,0,0c0,0,0.1,0,0.1,0c0,0,0,0.1-0.1,0c-0.1,0-0.1-0.1-0.1-0.2
		c0-0.1,0.1-0.1,0.2,0c0.1,0.1,0.3,0,0.3-0.2c0,0,0-0.1,0-0.1c0,0-0.1,0-0.1,0c0,0,0,0,0,0c0,0,0,0,0,0c0,0,0,0,0,0c0,0,0,0,0,0
		c0,0-0.1,0-0.1-0.1c0-0.1,0.1-0.1,0.2-0.1c0,0,0,0,0.1,0c0.1-0.1,0.3-0.2,0.4-0.1C14.8,6.5,15,6.8,14.8,7z M13.7,6.2
		C13.7,6.2,13.7,6.2,13.7,6.2c-0.1,0.1-0.1,0.1-0.2,0.1c0,0,0,0,0,0c0,0,0.1-0.1,0.1-0.1c0,0,0,0,0,0C13.6,6.2,13.6,6.2,13.7,6.2
		C13.6,6.2,13.6,6.2,13.7,6.2C13.7,6.2,13.7,6.2,13.7,6.2C13.7,6.2,13.7,6.2,13.7,6.2C13.7,6.2,13.7,6.2,13.7,6.2z M13.7,6.3
		C13.7,6.3,13.7,6.4,13.7,6.3C13.8,6.4,13.7,6.4,13.7,6.3C13.7,6.4,13.7,6.4,13.7,6.3C13.7,6.4,13.7,6.4,13.7,6.3
		c-0.1,0.1-0.1,0.1-0.1,0.1v0c0,0-0.1,0-0.1,0c0,0,0,0,0,0C13.6,6.4,13.6,6.3,13.7,6.3C13.7,6.3,13.7,6.3,13.7,6.3z M13.9,6.3
		c0,0-0.1,0-0.1,0.1c0-0.1,0-0.1-0.1-0.1V6.1c0,0,0.1,0,0.1,0c0,0.1,0,0.1,0,0.1C13.9,6.3,13.9,6.3,13.9,6.3z M13.9,6.2
		c0,0,0.1,0,0.2,0c0,0,0,0,0,0C14.1,6.2,14,6.3,13.9,6.2C14,6.2,14,6.2,13.9,6.2z"/>
	<path class="st0" d="M6.7,14.1c0,0,0.1,0,0.1,0C6.9,14,7,13.9,7,13.7c0,0,0,0,0,0c0.1,0,0.2-0.1,0.3-0.2c0.1-0.1,0.1-0.2,0.1-0.3
		c0,0,0-0.1,0-0.1c0.1-0.1,0.2-0.3,0.3-0.4c0-0.1,0-0.2,0-0.3c0,0,0,0,0,0c0,0,0,0,0,0c0,0-0.1,0.1-0.1,0.1
		c-0.2,0.2-0.4,0.3-0.6,0.4c0,0,0,0,0,0c0,0,0,0,0-0.1c0-0.1,0.1-0.2,0.1-0.2c0-0.1,0.1-0.2,0.1-0.2c0,0,0.1-0.1,0.1-0.1
		c0,0,0,0.1,0,0.1c0,0.1,0.1,0.1,0.1,0.1c0.1,0,0.1-0.1,0.1-0.1c0,0,0-0.1-0.1-0.1c-0.1-0.1-0.3-0.1-0.4,0.1C7,12.3,7,12.4,6.9,12.5
		c-0.1,0.1-0.1,0.2-0.2,0.2c-0.1,0.1-0.3,0.2-0.5,0.2c-0.2,0-0.4,0-0.7-0.1c-0.1,0-0.2-0.1-0.3-0.2c0.1-0.1,0.2-0.2,0.3-0.3
		c0.1-0.1,0-0.3,0-0.4c0.1-0.1,0.3-0.1,0.4,0c0,0,0,0-0.1,0c-0.1,0.1-0.1,0.2-0.1,0.3c0,0.1,0.1,0.2,0.2,0.2c0.1,0,0.3-0.1,0.3-0.3
		c0-0.2-0.1-0.3-0.3-0.3c-0.2,0-0.3,0-0.5,0.1c0,0,0,0-0.1,0c0,0-0.1-0.1-0.1-0.1c0,0,0-0.1,0-0.1c0-0.2,0-0.4-0.2-0.6
		c-0.2-0.2-0.5-0.1-0.5,0.1c0,0.1,0,0.2,0.1,0.3c0.1,0,0.2,0,0.3-0.1c0,0,0-0.1,0.1-0.1c0.1,0,0.1,0.3,0.1,0.4
		c-0.3,0-0.5,0.1-0.6,0.5l0,0c-0.1-0.1-0.2-0.1-0.3-0.2c-0.2-0.2-0.3-0.4-0.4-0.6c-0.1-0.2,0-0.5,0.1-0.7c0.1-0.1,0.1-0.2,0.2-0.2
		c0.1-0.1,0.1-0.2,0.1-0.3c0-0.1-0.1-0.2-0.2-0.2C4.1,9.8,4,9.9,4,10c0,0.1,0.1,0.1,0.1,0.1c0,0,0,0,0.1,0c0,0,0,0,0,0.1
		c0,0.1-0.1,0.1-0.1,0.2c-0.1,0.1-0.2,0.2-0.2,0.2c0,0-0.1,0.1-0.1,0.1c0,0,0,0,0,0c0-0.3,0.1-0.6,0.3-0.9c0,0,0,0,0,0c0,0,0,0,0,0
		c-0.1,0-0.2,0-0.2,0.1C3.5,9.9,3.4,10,3.4,10.2c0,0,0,0,0,0c-0.2,0-0.4,0.3-0.4,0.5c0,0,0,0,0,0c-0.1,0-0.1,0.1-0.2,0.2
		c0,0.1-0.1,0.1,0,0.2c-0.1,0-0.2,0.1-0.2,0.2c-0.1,0.2-0.1,0.3,0,0.5c0,0.1,0.1,0.2,0.2,0.2c0.1,0,0.1,0,0.2-0.1c0-0.1,0-0.1,0-0.1
		c0,0-0.1,0-0.1,0c0,0,0,0-0.1,0c0,0,0-0.1,0-0.2c0,0,0.1-0.1,0.2,0c0.1,0.1,0.1,0.1,0.2,0.2C3,11.9,3.1,12,3.2,12.1
		c0.1,0.2,0.3,0.3,0.6,0.4c0,0,0.1,0,0.1,0c-0.1,0.1-0.1,0.1,0,0.3c0,0,0,0.1,0,0.1c0,0.1-0.1,0.2-0.2,0.2c-0.1,0-0.2-0.1-0.2-0.2
		c0-0.1,0-0.1,0-0.1c0.1,0,0.2,0,0.2-0.1c0.1-0.1,0.1-0.2,0-0.2c-0.1-0.1-0.2-0.1-0.3-0.1C3,12.6,3,12.8,3,13.1
		c0.1,0.2,0.3,0.4,0.6,0.4c0.2,0,0.3-0.1,0.4-0.2c0,0,0,0,0-0.1c0,0.1,0,0.1,0,0.2c0,0,0,0.1,0,0.1c0,0,0,0,0.1,0
		c0.1,0,0.2,0,0.3-0.1c0,0.1-0.1,0.1-0.1,0.2c0,0.1,0,0.2,0,0.3c0.1,0.3,0.3,0.5,0.6,0.4c0.1,0,0.3-0.1,0.3-0.2
		c0.1-0.1,0-0.2-0.1-0.3c-0.1-0.1-0.2-0.1-0.3,0c0,0.1-0.1,0.1,0,0.2c0,0,0,0.1,0,0.1c0,0,0,0-0.1,0c-0.2,0-0.3-0.2-0.2-0.3
		c0-0.1,0.1-0.1,0.2-0.2c0.1,0,0.2-0.1,0.3-0.2c0,0,0,0,0,0c0.1,0.2,0.3,0.4,0.5,0.4C5.8,14,6,14,6.1,14c0.1,0,0.1,0,0.2,0.1
		c0.1,0,0.1,0.1,0.1,0.1c0,0.1-0.1,0.1-0.1,0.1c-0.1,0-0.1,0-0.1-0.1c0-0.1-0.1-0.1-0.2-0.1c-0.1,0-0.1,0.1-0.1,0.2
		c0,0.1,0.1,0.2,0.2,0.2c0.1,0,0.1,0,0.2,0c0.2,0,0.3-0.1,0.4-0.3C6.7,14.2,6.7,14.1,6.7,14.1z M4.9,11.8L4.9,11.8
		c0,0.1,0,0.2,0.1,0.2c0,0.1,0.1,0.1,0.2,0.1c0.1,0,0.2,0,0.3,0c0,0.1-0.1,0.1-0.1,0.1c0,0-0.1,0-0.1,0c0,0-0.1,0-0.1,0c0,0,0,0,0,0
		C5,12.1,5,12,4.9,12c0,0,0,0,0-0.1C4.9,11.8,4.9,11.8,4.9,11.8z M4.8,11.9L4.8,11.9c0,0.1,0.1,0.1,0.1,0.2c0,0,0.1,0.1,0.1,0.1
		c0,0,0,0,0.1,0c0,0,0.1,0,0.1,0c0.1,0,0.2,0,0.2,0.1c0,0-0.1,0-0.1,0c0,0-0.1,0-0.1,0c-0.1,0-0.1,0-0.2,0c0-0.1-0.1-0.1-0.1-0.2
		C4.8,12.1,4.8,12,4.8,11.9C4.8,11.9,4.8,11.9,4.8,11.9z M4.8,12.2c0,0,0,0.1,0,0.1c0,0,0,0,0.1,0c0,0,0.1,0,0.1,0
		c0.1,0,0.2,0,0.2,0c0,0-0.1,0.1-0.2,0.1c-0.1,0-0.2,0-0.3,0c0-0.1-0.1-0.2-0.1-0.3c0,0,0-0.1,0-0.1C4.7,12.1,4.8,12.2,4.8,12.2z
		 M4.6,12.2c0,0.1,0.1,0.2,0.1,0.3c0,0,0,0.1,0.1,0c0.1,0,0.1,0,0.2,0c0,0,0.1,0,0.1,0v0c-0.1,0-0.3,0.1-0.4,0.1
		C4.7,12.5,4.6,12.4,4.6,12.2C4.6,12.2,4.6,12.2,4.6,12.2z M4.6,12.9C4.6,12.9,4.6,12.9,4.6,12.9C4.6,12.9,4.6,13,4.6,12.9
		C4.6,13,4.6,13,4.6,12.9C4.6,12.9,4.6,12.9,4.6,12.9c0,0,0-0.1,0.1-0.1L4.6,12.9C4.7,12.9,4.6,12.9,4.6,12.9z M4.3,13
		c0,0,0-0.1,0-0.1c0,0.1,0.1,0.1,0.2,0.1c0,0.1,0,0.1,0.1,0.1h0c0,0-0.1,0.1-0.1,0.1c0-0.1,0-0.1-0.1-0.1C4.4,13,4.4,13,4.3,13z
		 M4.4,13.1c0,0.1-0.1,0.1-0.1,0.1C4.3,13.2,4.3,13.1,4.4,13.1C4.4,13.1,4.4,13.1,4.4,13.1C4.4,13.1,4.4,13.1,4.4,13.1z M4.6,12.7
		C4.6,12.7,4.6,12.7,4.6,12.7c0,0.1-0.1,0.1-0.1,0.2c0,0,0,0,0,0c0,0,0,0,0,0c0,0,0,0,0,0c0,0,0,0,0,0c0,0,0,0,0-0.1
		C4.5,12.7,4.5,12.7,4.6,12.7z M6.6,13.7c0.1,0,0.1,0,0.1-0.1c0,0,0-0.1-0.1-0.1c-0.1-0.1-0.2-0.1-0.3-0.1c-0.1,0-0.3,0-0.4,0
		c-0.2,0-0.3-0.1-0.5-0.1c-0.1,0-0.1-0.1-0.2-0.1c0,0,0,0-0.1,0c0,0,0,0,0,0.1c0,0.1,0.1,0.1,0.1,0.2c0.1,0.1,0.3,0.1,0.5,0.2
		c0.1,0,0.2,0,0.3,0c0.1,0,0.1,0,0.2,0.1c0,0,0,0,0,0.1c0,0.1,0.1,0.1,0.1,0.1c0.1,0.1,0.1,0.3,0,0.4s-0.2,0.1-0.4,0.1c0,0,0,0,0,0
		c0,0-0.1,0-0.1-0.1c0,0,0,0,0-0.1c0,0,0,0,0.1,0c0,0,0,0,0.1,0.1c0,0,0,0,0.1,0.1c0.1,0,0.3,0,0.3-0.2c0-0.1,0-0.2-0.1-0.3
		c0,0,0,0-0.1,0c-0.1,0-0.1,0.1-0.2,0c-0.1,0-0.1-0.1,0-0.1c0,0,0,0,0,0c0,0,0,0,0,0c0,0,0,0,0,0.1c0,0,0.1,0,0.1,0c0,0,0-0.1,0-0.1
		c-0.1-0.1-0.1-0.1-0.2-0.1c-0.1,0-0.2,0-0.3,0c-0.2,0-0.4-0.1-0.5-0.3c0,0,0-0.1-0.1-0.1c0,0-0.1,0-0.1,0c0,0,0,0.1-0.1,0.1
		c-0.1,0.1-0.1,0.1-0.3,0.1c0,0,0,0,0,0c-0.2,0.1-0.4,0.4-0.2,0.6c0.1,0.1,0.3,0.2,0.4,0.1c0,0,0,0,0.1-0.1C5,14.1,5,14,5,14
		c0,0,0-0.1,0-0.1c0,0,0.1,0,0.1,0c0,0.1,0,0.1,0,0.2C5,14.2,5,14.2,4.9,14.2c-0.3,0-0.5-0.2-0.5-0.4c0-0.1,0.1-0.2,0.2-0.3
		c0,0,0.1-0.1,0.1-0.1c0-0.1,0-0.1,0.1-0.2c0,0,0.1,0,0.1,0c0,0,0,0.1,0,0.1c0,0,0,0-0.1,0c0,0,0,0,0,0c0,0,0,0,0,0c0,0,0,0-0.1,0.1
		c0,0,0,0.1,0.1,0.1c0.1,0,0.1,0,0.2-0.1C5,13.3,5.1,13.2,5,13.1C5,13,5.1,13,5.2,13c0.1,0,0.1,0,0.1,0.1c0,0,0,0,0,0.1c0,0,0,0,0,0
		c0,0,0,0,0-0.1c0,0,0,0,0,0c0,0-0.1,0-0.1,0.1c0,0,0,0.1,0.1,0.1c0.1,0,0.2,0,0.2-0.1c0-0.1,0-0.2-0.2-0.3c-0.1-0.1-0.2,0-0.3,0.1
		c0,0,0,0,0,0c0,0,0.1,0,0.1,0.1c0,0.1,0,0.1-0.1,0.1c0,0-0.1,0-0.1-0.1c0,0,0,0,0,0c0,0,0,0,0,0c0,0,0,0,0,0c0,0,0,0,0-0.1
		c0,0,0,0,0-0.1c0,0-0.1,0-0.1,0c0,0-0.1,0.1-0.1,0.1c-0.1,0.2-0.3,0.2-0.4,0.3c-0.1,0-0.1,0-0.1-0.1c0-0.2,0-0.3,0.1-0.5
		c0,0,0.1-0.1,0.1-0.2c0,0,0,0,0-0.1c0,0,0,0-0.1,0c0,0,0,0,0,0.1c0,0,0,0,0,0c0,0,0,0,0.1,0c0,0,0,0,0,0c0,0,0,0,0,0
		c0,0-0.1,0-0.1-0.1c0-0.1,0-0.1,0.1-0.1c0,0,0.1,0,0.1,0c0,0,0,0,0,0c0.1-0.1,0-0.4-0.2-0.4c-0.1,0-0.1,0-0.2,0
		c-0.1,0-0.1,0.1,0,0.2c0,0.1,0.1,0.1,0.1,0.1c0.1,0,0.1-0.1,0-0.1c0,0,0,0,0,0c0,0-0.1,0-0.1,0c0,0,0-0.1,0-0.1c0,0,0.1,0,0.1,0
		c0,0,0.1,0.1,0.1,0.1c0,0.1,0,0.1-0.1,0.1c-0.1,0-0.1,0-0.1,0.1C4,12.6,4,12.7,4,12.7c0,0,0,0.1,0,0.1c0,0,0,0,0.1,0c0,0,0,0,0-0.1
		c0,0,0,0,0,0c0,0,0,0,0,0c0,0,0,0,0-0.1c0,0,0.1,0,0.1,0c0,0.1,0,0.2-0.1,0.2c0,0,0,0,0,0c0,0.1,0,0.2-0.1,0.2
		c-0.1,0.2-0.4,0.3-0.6,0.1c-0.1-0.1-0.2-0.2-0.2-0.4c0-0.1,0-0.1,0.1-0.2c0.1,0,0.1,0,0.1,0c0,0,0,0.1,0,0.1c0,0-0.1,0-0.1,0
		c0,0,0,0.1,0,0.1c0,0.3,0.2,0.4,0.5,0.4c0.1,0,0.2-0.1,0.2-0.2c0,0,0-0.1,0-0.1c0,0,0-0.1,0-0.1c0-0.1,0-0.2,0.1-0.3c0,0,0,0,0,0
		c0,0,0,0,0,0c0,0,0-0.1-0.1-0.1c0,0,0,0,0,0c-0.2,0-0.3-0.1-0.5-0.3c-0.1-0.1-0.1-0.2-0.2-0.3c0-0.1-0.1-0.1-0.1-0.2
		c0,0,0,0-0.1-0.1c0,0-0.1,0-0.1,0c0,0,0,0.1,0,0.1c0,0,0,0,0.1,0c0,0,0,0,0,0c0,0,0,0,0,0c0,0-0.1,0.1-0.1,0c0-0.1-0.1-0.1,0-0.2
		c-0.1-0.1-0.3-0.1-0.4,0c-0.1,0.1-0.1,0.3,0,0.4c0,0,0,0,0.1,0c0,0,0.1,0,0.1,0.1c0,0,0,0.1,0,0.1c0,0-0.1,0-0.1,0
		c0-0.1-0.1-0.1-0.1-0.2c0-0.1,0-0.1,0-0.2c0-0.1,0.1-0.1,0.2-0.2c0.1,0,0.2,0,0.2,0.1c0,0,0,0,0,0c0.1,0,0.1,0,0.2,0.1
		c0.1,0.1,0.1,0.2,0.2,0.3c0.1,0.1,0.1,0.2,0.2,0.3c0.1,0.1,0.2,0.2,0.3,0.2c0.1,0,0.1,0,0.1-0.1c0,0,0,0,0,0
		c-0.2-0.1-0.4-0.3-0.5-0.5c-0.1-0.1-0.1-0.2-0.1-0.3c0-0.1-0.1-0.2-0.1-0.3c0,0-0.1-0.1-0.1-0.1c-0.1,0-0.1,0-0.1,0
		c0,0.1,0,0.1,0,0.2c0,0,0.1,0,0.1,0c0,0,0,0,0-0.1c0,0,0,0,0,0c0,0,0,0,0,0c0,0,0,0.1,0,0.1c0,0-0.1,0.1-0.1,0.1
		C3,11.3,3,11.2,3,11.2C3,11.1,3,11,3,11c0.1,0,0.1,0,0.2,0c0.1,0.1,0.1,0.2,0.2,0.3c0,0.1,0,0.2,0.1,0.3c0.1,0.2,0.2,0.4,0.3,0.5
		c0,0,0.1,0.1,0.2,0.1c0,0,0,0,0.1,0C4,12.1,3.9,12,3.8,11.9c-0.2-0.2-0.3-0.4-0.3-0.6c0-0.2,0-0.3,0-0.5c0-0.1,0-0.2,0-0.2
		c0-0.1-0.1-0.1-0.1,0c0,0,0,0.1,0,0.1c0,0,0,0.1,0.1,0.1c0,0,0,0,0-0.1c0,0,0,0,0,0c0,0,0,0,0,0c0,0.1,0,0.1-0.1,0.1
		c-0.1,0-0.1,0-0.1-0.1c0-0.1,0-0.2,0.1-0.3c0,0,0,0,0,0c0-0.1,0-0.1,0-0.2c0-0.1,0.1-0.1,0.1-0.1c0,0,0.1,0,0.1,0c0,0,0,0.1,0,0.1
		c0,0,0,0-0.1,0c0,0,0,0,0,0c0,0,0,0,0,0c0,0,0,0,0,0c0,0,0,0,0-0.1c0,0,0,0,0,0c-0.1,0.1-0.1,0.1-0.1,0.2c0,0,0,0.1,0,0.1
		c0.1,0.1,0.1,0.2,0,0.3c0,0.2,0,0.3,0,0.5c0,0.2,0.1,0.4,0.3,0.5C3.9,11.9,4,12,4.1,12.1c0,0,0.1,0,0.1,0c0.2,0,0.4,0.2,0.3,0.4
		c0,0,0,0,0,0.1c0,0,0,0,0,0c-0.1,0.1-0.1,0.2-0.2,0.4c0,0.1,0,0.2,0,0.3c0,0,0,0,0,0c0.2,0,0.3-0.1,0.4-0.2c0-0.1,0.1-0.1,0.1-0.2
		c0,0,0,0,0,0c0-0.1,0.1-0.2,0.3-0.2c0.1,0,0.2,0,0.3,0.2c0.1,0.2,0.2,0.2,0.3,0.3c0.2,0.1,0.4,0.1,0.6,0.1c0.2,0,0.3-0.1,0.4-0.1
		c0.1,0,0.1-0.1,0.2-0.1c0.1,0,0.2,0,0.2,0c0.1,0,0.2,0,0.3-0.1c0,0,0,0,0,0c0,0,0,0,0-0.1c0,0,0,0-0.1,0c0,0,0,0,0,0.1c0,0,0,0,0,0
		c0,0,0,0,0,0c0,0,0,0,0-0.1c0-0.1,0.1-0.1,0.1-0.1c0.1,0,0.1,0.1,0.1,0.1c0,0.1-0.1,0.2-0.2,0.2c0,0-0.1,0-0.1,0l0,0
		c0,0.1-0.1,0.3-0.2,0.3c-0.1,0-0.1,0-0.1-0.1c0-0.1,0-0.1,0.1-0.1c0,0,0,0,0.1,0c0,0,0,0,0,0c0,0,0,0,0,0.1c0,0,0,0,0.1,0
		c0.1,0,0.1-0.1,0.1-0.1c0,0,0-0.1-0.1-0.1c-0.1,0-0.1,0-0.2,0c-0.1,0-0.2,0.1-0.3,0.2c-0.3,0.1-0.6,0.1-0.8,0
		c-0.1,0-0.2-0.1-0.3-0.2c0,0,0,0.1,0,0.1c0.1,0.1,0.2,0.1,0.2,0.1c0.2,0.1,0.5,0.1,0.7,0.1c0.1,0,0.2,0,0.4,0
		c0.1,0,0.1,0.1,0.1,0.2C6.8,13.7,6.7,13.8,6.6,13.7c0,0.1-0.1,0-0.1,0c0,0,0-0.1,0-0.1c0,0,0.1,0,0.1,0c0,0,0,0,0,0c0,0,0,0,0,0
		C6.6,13.6,6.6,13.6,6.6,13.7C6.6,13.7,6.6,13.7,6.6,13.7z"/>
	<path class="st0" d="M13.4,11.2c0,0,0-0.1,0-0.1c0-0.1-0.1-0.2-0.2-0.3c0,0,0,0,0,0c0-0.1,0-0.2-0.1-0.3c-0.1-0.1-0.2-0.2-0.3-0.2
		c0,0-0.1,0-0.1-0.1c-0.1-0.2-0.2-0.3-0.4-0.4c-0.1,0-0.2-0.1-0.3-0.1c0,0,0,0,0,0c0,0,0,0,0,0c0,0,0.1,0.1,0.1,0.1
		c0.1,0.2,0.2,0.5,0.2,0.7c0,0,0,0,0,0c0,0-0.1-0.1-0.1-0.1c-0.1-0.1-0.2-0.2-0.3-0.3c-0.1-0.1-0.1-0.1-0.1-0.2c0,0,0,0,0.1,0
		c0.1,0,0.1,0,0.1-0.1c0-0.1,0-0.1-0.1-0.1c0,0-0.1,0-0.1,0c-0.1,0.1-0.1,0.2-0.1,0.3c0,0.1,0.1,0.1,0.1,0.2
		c0.1,0.1,0.2,0.2,0.2,0.3c0.1,0.1,0.1,0.3,0.1,0.5c0,0.3-0.2,0.5-0.3,0.7c-0.1,0.1-0.2,0.2-0.3,0.3c-0.1-0.3-0.2-0.5-0.6-0.5
		c0-0.1,0-0.3,0.1-0.4c0,0,0,0,0,0.1c0,0.1,0.1,0.2,0.3,0.2c0.1,0,0.2-0.1,0.2-0.3c0-0.2-0.2-0.3-0.4-0.2c-0.1,0-0.2,0.1-0.2,0.3
		c-0.1,0.1-0.1,0.3,0,0.4c0,0,0,0.1,0,0.1c0,0-0.1,0.1-0.1,0.1c0,0-0.1,0-0.1,0c-0.2-0.1-0.4-0.1-0.6-0.1c-0.2,0.1-0.3,0.3-0.2,0.5
		c0.1,0.1,0.3,0.1,0.4,0c0.1-0.1,0.1-0.3,0-0.4c0,0-0.1,0-0.1-0.1c0.1,0,0.3,0,0.4,0c-0.1,0.3,0,0.5,0.3,0.7
		c-0.1,0.1-0.2,0.1-0.3,0.2c-0.3,0.1-0.5,0.2-0.8,0.1c-0.2,0-0.4-0.1-0.5-0.3c-0.1-0.1-0.1-0.2-0.2-0.3c-0.1-0.1-0.1-0.2-0.2-0.2
		c-0.1,0-0.2,0-0.3,0.1c0,0,0,0.1,0,0.1c0,0,0.1,0,0.1,0c0,0,0.1,0,0.1-0.1c0,0,0,0,0-0.1c0.1,0,0.1,0.1,0.1,0.2
		C8.9,12.5,9,12.6,9,12.7c0,0,0.1,0.1,0.1,0.1c0,0,0,0,0,0c-0.3-0.1-0.6-0.3-0.7-0.5c0,0,0,0,0,0c0,0,0,0,0,0c0,0.1,0,0.2,0,0.2
		c0,0.2,0.1,0.4,0.3,0.5c0,0,0,0,0,0c0,0.2,0.1,0.5,0.3,0.6c0,0,0,0,0,0c0,0.1,0,0.1,0.1,0.2C9.1,14,9.2,14,9.3,14.1
		c0,0.1,0,0.2,0.1,0.3c0.1,0.1,0.3,0.2,0.5,0.2c0.1,0,0.2-0.1,0.2-0.2c0-0.1,0-0.1,0-0.2c0,0-0.1,0-0.1,0c0,0-0.1,0.1-0.1,0.1
		c0,0,0,0-0.1,0c-0.1,0-0.1,0-0.2-0.1c0-0.1,0-0.1,0-0.2C9.7,14,9.8,14,9.9,14c0.1,0,0.3,0,0.4-0.1c0.3-0.1,0.5-0.2,0.6-0.5
		c0,0,0,0,0,0c0.1,0.1,0.1,0.1,0.2,0.1c0,0,0.1,0,0.1,0c0.1,0.1,0.2,0.2,0.2,0.3c0,0.1-0.1,0.2-0.2,0.2c0,0-0.1,0,0-0.1
		c0-0.1,0-0.1,0-0.2c-0.1-0.1-0.2-0.1-0.3-0.1c-0.1,0.1-0.1,0.2-0.1,0.3c0,0.1,0.1,0.2,0.3,0.3c0.2,0.1,0.4,0,0.6-0.2
		c0.1-0.2,0.2-0.3,0.1-0.5c0-0.1-0.1-0.1-0.1-0.2c0.1,0,0.2,0.1,0.3,0.1c0,0,0,0,0.1,0c0-0.1,0-0.2,0-0.3c0,0.1,0.1,0.1,0.1,0.1
		c0.1,0.1,0.3,0.1,0.4,0.1c0.3,0,0.5-0.2,0.5-0.5c0-0.2-0.2-0.5-0.5-0.4c-0.1,0-0.2,0.1-0.1,0.2c0,0.1,0.1,0.2,0.2,0.2
		c0.1,0,0.1,0,0.1,0.1c0,0.1-0.2,0.2-0.4,0.1c-0.1-0.1-0.1-0.2-0.1-0.3c0-0.1,0-0.2,0-0.3l0,0c0.1,0,0.2,0,0.2,0
		c0.2-0.1,0.4-0.2,0.5-0.4c0.1-0.1,0.1-0.2,0.1-0.3c0-0.1,0.1-0.2,0.2-0.2c0.1,0,0.1,0,0.2,0.1c0,0.1,0,0.1-0.1,0.1c0,0,0,0-0.1,0
		c-0.1,0-0.1,0.1-0.1,0.1c0,0.1,0,0.1,0.1,0.1c0.1,0,0.2,0,0.3-0.1c0.1-0.1,0.1-0.2,0.1-0.3c0-0.2,0-0.3-0.1-0.4
		C13.4,11.3,13.4,11.2,13.4,11.2z M11.4,12.7c0,0,0.1,0,0.1,0.1c0,0,0,0,0,0c0,0,0,0,0,0c0,0,0,0,0,0c0,0,0,0,0,0c0,0,0,0,0,0
		c0,0,0,0,0,0C11.5,12.8,11.4,12.7,11.4,12.7C11.4,12.7,11.4,12.7,11.4,12.7z M11.5,13.1C11.5,13.1,11.5,13.1,11.5,13.1
		c0-0.1,0-0.1,0-0.2c0.1,0,0.1,0,0.2,0c0,0,0,0.1,0,0.1C11.6,12.9,11.5,13,11.5,13.1z M11.7,13.2C11.7,13.2,11.7,13.2,11.7,13.2
		c-0.1,0-0.1,0-0.1-0.1c0.1,0,0.1,0,0.1-0.1C11.7,13.1,11.8,13.2,11.7,13.2z M11.5,12.9C11.5,12.9,11.4,13,11.5,12.9
		C11.4,13,11.4,13,11.5,12.9C11.4,13,11.4,12.9,11.5,12.9C11.4,12.9,11.4,12.9,11.5,12.9C11.4,12.9,11.4,12.9,11.5,12.9
		c-0.1,0-0.1,0-0.1,0v-0.2C11.4,12.8,11.5,12.9,11.5,12.9z M11.3,12.7c-0.1,0-0.3-0.1-0.4-0.1c0,0,0,0,0,0c0.1,0,0.2,0,0.3,0
		c0,0,0,0,0,0c0.1,0,0.1,0,0.1-0.1c0,0,0-0.1,0-0.1c0-0.1,0-0.1,0.1-0.1C11.4,12.4,11.4,12.5,11.3,12.7z M10.6,12.1
		c0.1,0.1,0.2,0,0.3,0c0,0,0,0,0,0c0.1,0,0.1,0,0.1-0.1c0-0.1,0.1-0.1,0.1-0.2c0,0,0-0.1,0-0.1c0,0,0.1,0.1,0,0.1c0,0,0,0.1-0.1,0.1
		c0,0,0,0-0.1,0.1c0,0.1-0.1,0.1-0.1,0.1c-0.1,0-0.1,0-0.2,0C10.7,12.2,10.6,12.2,10.6,12.1z M10.9,12.2c0,0,0.1,0,0.1,0
		c0,0,0.1,0,0.1,0c0-0.1,0-0.1,0.1-0.1c0-0.1,0.1-0.1,0.1-0.2c0,0,0,0.1,0,0.1c0,0,0,0.1-0.1,0.1c0,0.1-0.1,0.1-0.1,0.2
		c-0.1,0-0.2,0-0.3,0c-0.1,0-0.1,0-0.2-0.1C10.7,12.3,10.8,12.3,10.9,12.2z M10.7,12.4c0.1,0,0.2,0,0.3,0c0,0,0.1,0,0.1,0
		c0,0,0.1,0,0.1,0c0,0,0-0.1,0-0.1c0-0.1,0.1-0.2,0.1-0.2c0,0.2-0.1,0.3-0.1,0.5c-0.1,0-0.3,0-0.4,0C10.8,12.5,10.8,12.4,10.7,12.4z
		 M13.5,11.9C13.5,11.9,13.5,11.9,13.5,11.9c0,0.1-0.1,0.1-0.1,0.1c0,0,0,0,0,0c0,0,0,0,0-0.1c0,0,0,0,0.1,0
		C13.4,11.8,13.4,11.8,13.5,11.9c0-0.2,0-0.3-0.1-0.4c-0.1-0.1-0.2-0.1-0.3,0c0,0,0,0-0.1,0v0c0,0.1,0,0.1,0,0.2c0,0-0.1,0-0.1,0
		c0,0,0,0,0,0c0,0,0,0,0,0c0,0,0,0,0.1,0c0,0,0-0.1,0-0.1c0,0-0.1,0-0.1,0c0,0-0.1,0.1-0.1,0.1c-0.1,0.1-0.1,0.2-0.1,0.3
		c-0.1,0.2-0.2,0.3-0.4,0.4c-0.1,0-0.1,0-0.2,0c0,0,0,0,0,0c0,0,0,0.1-0.1,0.1c0,0,0,0.1,0.1,0.1c0,0.1,0.1,0.2,0,0.3c0,0,0,0,0,0
		c0,0.3,0.2,0.5,0.5,0.4c0.1-0.1,0.3-0.3,0.2-0.4c0,0,0,0,0-0.1c0,0-0.1,0-0.1,0c0,0-0.1,0-0.1-0.1c0,0,0-0.1,0.1-0.1
		c0.1,0,0.1,0.1,0.2,0.2c0,0.2-0.1,0.4-0.3,0.5c-0.2,0.1-0.4,0-0.5-0.1c0-0.1-0.1-0.2-0.1-0.3c-0.1,0-0.1,0-0.1-0.1c0,0,0-0.1,0-0.1
		c0,0,0.1,0,0.1,0c0,0,0,0,0,0.1c0,0,0,0,0,0c0,0,0,0,0,0c0,0,0,0.1,0,0.1c0,0,0.1,0,0.1,0c0,0,0-0.1,0-0.1c0-0.1,0-0.1-0.1-0.2
		c0,0-0.1,0-0.1,0c-0.1,0-0.1-0.1-0.1-0.2c0-0.1,0.1-0.1,0.1-0.1c0,0,0,0,0,0.1c0,0,0,0,0,0c0,0,0,0-0.1,0c0,0,0,0,0,0
		c0,0.1,0,0.1,0,0.1c0,0,0.1,0,0.1,0c0.1-0.1,0.1-0.2,0-0.2c-0.1-0.1-0.2,0-0.3,0c-0.1,0.1-0.1,0.2,0,0.3c0,0,0,0,0,0
		c0,0,0.1-0.1,0.1,0c0,0,0.1,0.1,0.1,0.1c0,0.1-0.1,0.1-0.1,0.1c0,0,0,0,0,0c0,0,0,0,0,0c0,0,0,0,0,0c0,0,0,0,0-0.1c0,0,0,0-0.1,0
		c0,0,0,0,0,0c0,0,0,0.1,0,0.1c0,0.1,0.1,0.1,0.1,0.2c0.1,0.1,0,0.2,0,0.4c0,0.1,0,0.1-0.1,0.1c-0.2,0-0.3-0.1-0.4-0.3
		c0-0.1-0.1-0.1-0.1-0.1c0,0,0,0-0.1,0c0,0,0,0,0,0c0,0,0,0,0,0.1c0,0,0,0,0,0c0,0,0,0,0,0c0,0,0,0,0,0c0,0,0,0.1,0,0.1
		c0,0-0.1,0-0.1,0c0,0-0.1-0.1-0.1-0.1c0-0.1,0-0.1,0.1-0.1c0-0.1-0.2-0.1-0.2-0.1c-0.1,0-0.2,0.1-0.2,0.3c0,0.1,0.1,0.2,0.2,0.1
		c0,0,0.1-0.1,0.1-0.1c0,0,0-0.1-0.1-0.1c0,0,0,0,0,0c0,0,0,0,0,0c0,0,0,0.1,0,0.1c0,0-0.1,0-0.1,0c0-0.1,0-0.1,0.1-0.1
		C11,13,11,13,11,13.1c0,0.1,0.1,0.3,0.2,0.3c0,0,0.1,0,0.1,0c0,0,0-0.1,0-0.1c0,0,0,0,0,0c0,0,0,0,0,0c0,0,0,0,0,0c0,0,0,0,0,0
		c0,0,0-0.1,0-0.1c0,0,0.1,0,0.1,0c0.1,0,0.1,0.1,0.1,0.2c0.1,0,0.1,0.1,0.2,0.1c0.2,0.2,0.2,0.4,0,0.6c-0.1,0.1-0.3,0.2-0.5,0.1
		c-0.1,0-0.1-0.1-0.1-0.2c0-0.1,0-0.1,0.1-0.1c0,0,0.1,0,0.1,0.1c0,0,0,0.1-0.1,0.1c0,0,0.1,0.1,0.1,0.1c0.3,0.1,0.5-0.1,0.5-0.4
		c0-0.1-0.1-0.2-0.2-0.3c0,0-0.1,0-0.1,0c-0.1,0-0.2-0.1-0.3-0.2c0,0,0,0,0,0c0,0-0.1,0-0.1,0c0,0,0,0,0,0c-0.1,0.2-0.2,0.3-0.4,0.3
		c-0.1,0-0.2,0-0.4,0.1c-0.1,0-0.2,0-0.2,0c0,0-0.1,0-0.1,0.1c0,0,0,0.1,0,0.1c0,0,0.1,0,0.1,0c0,0,0,0,0,0c0,0,0,0,0,0c0,0,0,0,0,0
		c0,0,0,0.1,0,0.1c-0.1,0-0.1,0-0.2,0c0,0,0,0,0,0C9.5,14,9.5,14,9.5,14.1c0,0.1,0.1,0.2,0.2,0.2c0,0,0.1,0,0.1,0c0,0,0,0,0.1-0.1
		c0,0,0-0.1,0.1-0.1c0,0,0,0,0,0.1c0,0,0,0.1-0.1,0.1c0,0-0.1,0-0.1,0c-0.1,0-0.3-0.1-0.3-0.2c0-0.1,0-0.2,0.1-0.3
		c0,0,0.1-0.1,0.1-0.1c0-0.1,0.1-0.1,0.2-0.1c0.1,0,0.2,0,0.4,0c0.2,0,0.3-0.1,0.5-0.2c0.1,0,0.1-0.1,0.1-0.2c0,0,0-0.1,0-0.1
		c0,0,0,0,0,0c-0.2,0.2-0.4,0.2-0.6,0.3c-0.1,0-0.2,0-0.4,0c-0.1,0-0.2,0-0.3,0c0,0-0.1,0-0.1,0.1c-0.1,0-0.1,0.1,0,0.1
		c0,0,0.1,0,0.2,0c0,0,0,0,0-0.1c0,0,0,0-0.1,0c0,0,0,0-0.1,0c0,0,0,0,0,0c0,0,0.1,0,0.1,0.1c0,0,0,0.1,0,0.1
		c-0.1,0.1-0.2,0.1-0.3,0c-0.1-0.1,0-0.2,0-0.2c0.1-0.1,0.2-0.1,0.3-0.1c0.1,0,0.2,0,0.3,0c0.2,0,0.4,0,0.6-0.1
		c0.1,0,0.1-0.1,0.2-0.1c0,0,0-0.1,0-0.1c-0.1,0.1-0.2,0.1-0.4,0.2c-0.2,0.1-0.4,0.1-0.6,0.1c-0.1,0-0.3-0.1-0.4-0.2
		c-0.1,0-0.2-0.1-0.2-0.1c0,0-0.1,0-0.1,0c0,0,0,0,0,0.1c0,0.1,0,0.1,0.1,0.1c0,0,0.1,0,0.1,0c0,0,0-0.1-0.1-0.1c0,0,0,0,0,0
		c0,0,0,0,0,0c0.1,0,0.1,0,0.1,0.1c0,0.1-0.1,0.1-0.1,0.1c-0.1,0-0.2-0.1-0.2-0.2C8.8,13,8.7,13,8.6,13c0,0-0.1-0.1-0.1-0.1
		c0-0.1,0-0.1,0.1-0.1c0.1,0,0.1,0,0.1,0.1c0,0,0,0,0,0.1c0,0,0,0,0,0c0,0,0,0,0,0c0,0,0,0,0,0c0,0,0,0-0.1,0c0,0,0,0,0,0.1
		c0,0.1,0.2,0.2,0.3,0.2c0.2,0,0.3,0,0.4,0.1c0.2,0.1,0.4,0.2,0.6,0.2c0.3,0,0.5-0.1,0.7-0.2c0,0,0-0.1,0.1-0.1
		c0.1-0.1,0.2-0.2,0.3-0.2c0.1,0,0.2,0.1,0.3,0.2c0,0,0,0,0,0c0.1,0.1,0.1,0.1,0.2,0.2c0.1,0.1,0.2,0.2,0.4,0.2c0,0,0,0,0,0
		c0-0.2,0-0.3-0.1-0.4c0-0.1-0.1-0.1-0.1-0.2c0,0,0,0,0,0c-0.1-0.1-0.1-0.2-0.1-0.3c0-0.1,0.1-0.2,0.3-0.2c0.1,0,0.2-0.1,0.3-0.2
		c0.1-0.1,0.3-0.3,0.3-0.5c0.1-0.2,0.1-0.4,0-0.6c0-0.1,0-0.1,0-0.2c0-0.1,0-0.2,0-0.2c0.1-0.1,0.1-0.2,0-0.3c0,0,0,0,0,0
		c0,0,0,0-0.1,0c0,0,0,0,0,0.1c0,0,0,0,0,0c0,0,0,0,0,0c0,0,0,0,0,0c0,0,0,0-0.1,0c-0.1,0-0.1-0.1-0.1-0.1c0-0.1,0.1-0.1,0.1,0
		c0.1,0,0.1,0.1,0.1,0.2c0,0,0,0.1,0,0.1c0.1,0,0.2,0.1,0.2,0.2c0,0.1,0,0.2-0.1,0.2c-0.1,0-0.1-0.1-0.1-0.1c0,0,0,0,0,0
		c0,0,0,0,0,0c0,0,0,0.1,0,0.1c0,0,0.1,0,0.1-0.1c0,0,0,0,0,0c0-0.1-0.1-0.1-0.1-0.1c0,0-0.1,0-0.1,0.1c0,0.1,0,0.2,0,0.3
		c0,0.1,0,0.2,0,0.4c0,0.2-0.1,0.4-0.3,0.6c-0.1,0.1-0.2,0.2-0.3,0.3c0,0,0.1,0,0.1,0c0.1,0,0.2-0.1,0.2-0.2
		c0.2-0.2,0.3-0.4,0.3-0.6c0-0.1,0.1-0.2,0.2-0.3c0.1-0.1,0.2-0.1,0.2,0c0.1,0.1,0.1,0.1,0,0.2c0,0.1-0.1,0.1-0.1,0.1
		c0,0-0.1,0-0.1-0.1c0,0,0-0.1,0-0.1c0,0,0,0,0,0c0,0,0,0,0,0c0,0,0,0.1,0,0.1c0,0,0.1,0,0.1,0c0-0.1,0-0.1,0-0.2c0,0-0.1,0-0.1,0
		c-0.1,0.1-0.1,0.1-0.1,0.2c0,0.1-0.1,0.2-0.1,0.3c-0.1,0.2-0.2,0.4-0.3,0.5c-0.1,0.1-0.1,0.1-0.2,0.2c0,0,0,0,0,0
		c0,0.1,0,0.1,0.1,0.1c0.2,0,0.3-0.1,0.4-0.3c0.1-0.1,0.1-0.2,0.1-0.3c0-0.1,0.1-0.2,0.2-0.3c0,0,0.1-0.1,0.2-0.1c0,0,0.1,0,0.1,0
		c0.1,0,0.2-0.1,0.3,0C13.6,11.5,13.6,11.7,13.5,11.9z"/>
	<path class="st0" d="M5.4,2.9C5.4,3,5.3,3.1,5.3,3.2c0,0.1,0,0.3,0.1,0.4c0,0,0,0,0,0.1c-0.1,0.2,0,0.4,0,0.5
		c0,0.1,0.1,0.2,0.2,0.2c0,0,0,0,0,0c0,0,0,0,0,0c0-0.1,0-0.1,0-0.2C5.8,4,5.9,3.7,6,3.6c0,0,0,0,0.1-0.1c0,0.1,0,0.1,0,0.2
		c0,0.1,0,0.2,0.1,0.4c0,0.1,0,0.2,0,0.2c0,0,0,0-0.1-0.1c0,0-0.1,0-0.2,0c0,0,0,0.1,0,0.2c0,0,0.1,0,0.1,0c0.1,0,0.2-0.1,0.3-0.2
		c0-0.1,0-0.2,0-0.3c0-0.1,0-0.2,0-0.3c0-0.2,0.1-0.3,0.2-0.5C6.6,3,6.8,2.8,7.1,2.8c0.2,0,0.3-0.1,0.5,0C7.4,3.1,7.5,3.3,7.7,3.5
		C7.7,3.6,7.5,3.7,7.4,3.7c0,0,0,0,0,0c0-0.1,0-0.2-0.1-0.3c-0.1-0.1-0.2,0-0.3,0C7,3.5,7,3.6,7,3.7C7,3.8,7.2,4,7.4,3.9
		c0.2-0.1,0.3-0.2,0.4-0.4c0,0,0,0,0.1,0c0.1,0,0.1,0,0.2,0c0,0,0.1,0,0.1,0c0.1,0.2,0.2,0.3,0.4,0.4C8.8,4,9,3.8,9,3.6
		c0-0.1-0.1-0.3-0.3-0.2c-0.1,0-0.2,0.1-0.2,0.3c0,0,0,0.1,0,0.1c-0.1,0-0.3-0.2-0.3-0.3c0.1-0.1,0.2-0.2,0.2-0.3
		c0-0.1,0-0.3-0.1-0.4c0,0,0,0,0.1,0c0,0,0,0,0,0c0.3,0,0.6,0.1,0.9,0.3c0.2,0.2,0.4,0.4,0.4,0.7c0,0.1,0,0.2,0,0.3
		c0,0.1,0,0.2,0.1,0.3C9.8,4.4,9.9,4.4,10,4.4c0.1,0,0.1-0.1,0-0.2c0-0.1-0.1-0.1-0.2,0c0,0,0,0,0,0c0-0.1,0-0.2,0-0.2
		c0-0.1,0-0.2,0.1-0.4c0,0,0-0.1,0-0.2c0,0,0,0,0,0C10,3.6,10,3.7,10.1,3.8c0.1,0.2,0.1,0.4,0.1,0.6c0,0,0,0,0,0s0,0,0,0
		c0,0,0,0,0-0.1c0.2-0.2,0.2-0.4,0.2-0.7c0,0,0-0.1,0-0.1c0.1-0.2,0.1-0.5,0-0.6c0,0,0,0,0-0.1c0,0,0-0.1,0-0.2c0-0.1,0-0.2-0.1-0.3
		c0.1-0.1,0.1-0.2,0.1-0.3c0-0.2-0.1-0.3-0.3-0.4c-0.1-0.1-0.2-0.1-0.3,0c0,0-0.1,0.1-0.1,0.2C9.9,1.9,9.9,2,10,2c0,0,0.1,0,0.1,0
		c0,0,0.1,0,0.1,0c0.1,0,0.1,0.1,0.1,0.1c0,0.1-0.1,0.1-0.1,0.1c-0.1,0-0.2,0-0.2-0.1C9.9,2.1,9.8,2,9.7,2C9.4,1.9,9.1,1.8,8.8,2
		c0,0,0,0,0,0c0-0.1,0-0.2-0.1-0.2C8.6,1.7,8.5,1.7,8.5,1.6c0-0.1,0-0.3,0.2-0.3c0.1,0,0.2,0,0.2,0.1c-0.1,0-0.1,0.1-0.1,0.2
		c0,0.1,0,0.2,0.1,0.2c0.1,0,0.2,0,0.3-0.2c0.1-0.2,0.1-0.4-0.1-0.5C8.9,1,8.6,1,8.4,1.1C8.3,1.2,8.2,1.4,8.2,1.5c0,0,0,0,0,0
		c0,0-0.1-0.1-0.1-0.1c0,0,0-0.1-0.1-0.1c0,0,0,0,0,0c0,0,0,0,0,0c0,0,0,0,0,0.1C7.8,1.5,7.8,1.5,7.7,1.6c0,0,0-0.1,0-0.2
		c0-0.1-0.1-0.2-0.2-0.3C7.3,0.9,6.9,1,6.7,1.2C6.6,1.4,6.6,1.7,6.9,1.8c0.1,0,0.2,0,0.2-0.2c0-0.1,0-0.1-0.1-0.2c0,0-0.1,0-0.1-0.1
		c0,0,0,0,0-0.1c0.1,0,0.1-0.1,0.2,0c0.1,0,0.1,0.1,0.2,0.2c0,0.1,0,0.2-0.1,0.3C7.3,1.8,7.2,1.9,7.2,2C7.1,2,7,2,7,1.9
		C6.7,1.9,6.5,1.9,6.2,2C6.2,2.1,6.1,2.1,6,2.2c-0.1,0-0.2,0.1-0.2,0C5.7,2.2,5.6,2.1,5.7,2c0-0.1,0.1-0.1,0.2-0.1c0,0,0,0,0.1,0
		C5.9,2,6,2,6,1.9c0,0,0-0.1,0-0.1c0-0.1-0.2-0.1-0.3-0.1c-0.1,0-0.1,0.1-0.2,0.1C5.4,2,5.4,2.2,5.5,2.4c0,0-0.1,0.1-0.1,0.1
		C5.4,2.6,5.4,2.7,5.4,2.9C5.4,2.9,5.4,2.9,5.4,2.9z M8.1,1.9L8.1,1.9c0,0,0,0.1,0,0.1C8.1,2,8,2,8,2c0,0-0.1-0.1-0.2,0
		c0,0,0-0.1,0-0.1C7.9,2,8,2,8.1,1.9z M8,1.7L8,1.7C8,1.7,8,1.8,8,1.9c0,0,0,0-0.1,0c0,0,0,0-0.1,0C7.9,1.8,7.9,1.7,8,1.7z M8.1,2.2
		c0,0-0.1,0.1-0.1,0.1c0-0.1,0-0.2,0-0.2c0,0,0,0,0,0c0,0,0,0,0,0C8.1,2.1,8.1,2.1,8.1,2.2C8.1,2.1,8,2.1,8.1,2.2
		C8.1,2.2,8.1,2.2,8.1,2.2z M7.9,2.1C7.9,2.1,7.9,2.1,7.9,2.1C7.8,2.1,7.9,2.1,7.9,2.1C7.9,2.1,7.9,2.1,7.9,2.1c0.1,0,0.1,0.1,0,0.2
		v0C7.9,2.3,7.9,2.2,7.9,2.1C7.8,2.2,7.8,2.2,7.9,2.1C7.9,2.2,7.9,2.2,7.9,2.1C7.9,2.1,7.9,2.1,7.9,2.1z M8,2.4
		c0.1,0.1,0.2,0.2,0.3,0.3C8.2,2.6,8.1,2.6,8,2.5c0,0,0,0-0.1,0c0,0.1-0.1,0.1-0.2,0.1c0,0-0.1,0-0.1,0.1C7.8,2.6,7.9,2.5,8,2.4z
		 M7.8,2.7c0.1,0,0.1-0.1,0.2-0.1c0.1,0.1,0.2,0.1,0.3,0.2c0,0,0,0.1,0.1,0.1c-0.1,0-0.2-0.1-0.2-0.1c0,0-0.1-0.1-0.1-0.1
		c0,0,0,0-0.1,0C7.9,2.7,7.9,2.8,7.8,2.7c0,0.1-0.1,0.1-0.2,0.2C7.6,2.8,7.7,2.8,7.8,2.7z M8.3,3.3c0-0.1-0.1-0.1-0.2-0.2
		c-0.1,0-0.1,0-0.2,0c0,0-0.1,0-0.1,0c-0.1,0-0.1,0.1-0.1,0.1h0c0-0.1,0-0.1,0-0.2c0,0,0.1,0,0.1-0.1C7.9,3,8,3,8.1,3
		c0,0,0.1,0,0.1,0.1C8.3,3.1,8.3,3.2,8.3,3.3z M8.1,3c0,0-0.1,0-0.1-0.1c0,0,0,0-0.1,0C7.9,2.9,7.9,3,7.8,3C7.7,3,7.7,3,7.6,3.1
		c0,0,0-0.1,0.1-0.1c0,0,0.1,0,0.1-0.1c0.1,0,0.1-0.1,0.1-0.1C8,2.8,8.1,2.9,8.1,3c0.1-0.1,0.2,0,0.2,0c0,0,0,0,0,0l0,0
		C8.3,3,8.2,3,8.1,3z M5.8,1.8C5.8,1.8,5.8,1.8,5.8,1.8c0.1,0,0.1,0,0.2,0c0,0,0,0,0,0.1c0,0,0,0,0,0S5.9,1.9,5.8,1.8
		c0,0-0.1,0.1-0.1,0.1C5.6,2,5.5,2.1,5.6,2.2c0,0.1,0.1,0.1,0.2,0.2c0,0,0,0,0.1,0c0-0.1,0.1-0.1,0.1-0.1c0.1,0,0.1,0,0.1,0.1
		c0,0,0,0,0,0c0,0,0,0,0,0c0,0,0,0,0,0c0,0-0.1,0-0.1,0.1c0,0,0,0.1,0,0.1c0.1,0,0.1,0,0.2,0c0.1,0,0.2-0.1,0.2-0.1
		c0.1-0.1,0.3-0.1,0.5-0.1c0.1,0,0.2,0,0.3,0.1c0.1,0,0.1,0,0.1-0.1c0-0.1,0-0.1,0-0.2c0-0.1,0.1-0.1,0.1-0.2c0,0,0,0,0,0
		c0.1-0.1,0.1-0.2,0.1-0.4C7.5,1.2,7.2,1.1,7,1.2c-0.1,0-0.1,0.1-0.1,0.2c0,0,0.1,0,0.1,0c0,0,0,0.1,0,0.1c0,0.1-0.1,0.1-0.1,0
		c-0.1,0-0.1-0.1,0-0.2C6.9,1.2,7,1.2,7.1,1.1c0.2-0.1,0.4,0.1,0.5,0.3c0,0.1,0,0.2,0,0.3c0,0,0,0,0,0c0.1,0,0.1,0.1,0.1,0.2
		c0,0,0,0.1-0.1,0.1c0,0-0.1,0-0.1-0.1c0,0,0-0.1,0-0.1c0,0,0,0,0,0c0,0,0,0,0,0c0,0,0-0.1,0-0.1c0,0,0,0-0.1,0
		C7.4,1.9,7.4,1.9,7.4,2c0,0.1,0,0.1,0.1,0.2c0.1,0.1,0,0.2,0,0.2c0,0-0.1,0-0.1-0.1c0,0,0,0,0-0.1c0,0,0,0,0,0c0,0,0,0,0,0.1
		c0,0,0,0,0,0c0,0,0.1-0.1,0-0.1c0,0-0.1-0.1-0.1-0.1c-0.1,0-0.1,0.1-0.1,0.2c0.1,0.1,0.2,0.2,0.3,0.1c0.1,0,0.2-0.1,0.2-0.2
		c0,0,0,0,0,0c-0.1,0-0.2,0-0.2-0.1c0-0.1,0.1-0.1,0.1-0.1c0,0,0,0,0,0.1c0,0,0,0,0,0c0,0,0,0-0.1,0c0,0,0,0,0,0c0,0,0,0,0,0.1
		c0,0,0,0,0.1,0c0,0,0-0.1,0-0.1c0-0.1,0-0.2,0-0.2c0-0.1,0.1-0.3,0.2-0.3c0,0,0.1,0,0.1,0C8.2,1.6,8.2,1.8,8.2,2c0,0.1,0,0.1,0,0.2
		c0,0,0,0,0,0c0,0,0,0,0.1,0c0,0,0-0.1,0-0.1c0,0,0,0,0,0c0,0,0,0.1,0,0c0,0,0-0.1,0-0.1c0,0,0.1,0,0.1,0c0,0,0,0.1,0,0.1
		c0,0-0.1,0-0.1,0c0,0,0,0,0,0c0,0.1,0.1,0.3,0.3,0.3c0.1,0,0.2-0.1,0.2-0.2c0-0.1,0-0.1-0.1-0.2c-0.1,0-0.1,0-0.1,0
		c0,0,0,0.1,0,0.1c0,0,0,0,0,0c0,0,0,0,0-0.1c0,0,0,0,0,0c0,0,0,0,0,0.1c0,0.1-0.1,0.1-0.1,0c-0.1-0.1-0.1-0.2,0-0.2
		c0.1-0.1,0.1-0.3-0.1-0.3c0,0-0.1,0-0.1,0c0,0,0,0.1,0,0.1c0,0,0,0,0,0c0,0,0,0,0,0c0,0,0,0,0,0c0,0,0,0,0,0c0,0,0,0.1,0,0.1
		c0,0-0.1,0-0.1,0c-0.1,0-0.1-0.1,0-0.2c0,0,0,0,0,0l0,0c0-0.1,0-0.1-0.1-0.2c0-0.3,0.2-0.5,0.5-0.5c0.1,0,0.2,0.1,0.3,0.2
		c0,0.1,0.1,0.1,0,0.2c0,0.1-0.1,0.1-0.1,0.1c0,0-0.1-0.1,0-0.1c0,0,0.1-0.1,0.1,0C9.1,1.3,9,1.3,9,1.2C8.8,1.1,8.5,1.2,8.4,1.4
		c0,0.1,0,0.2,0.1,0.3c0,0,0,0,0,0C8.6,1.8,8.6,2,8.6,2.1c0,0,0,0,0,0c0,0,0.1,0,0.1,0.1c0.2-0.1,0.4-0.1,0.6,0
		c0.1,0.1,0.2,0.1,0.4,0.2c0.1,0,0.1,0.1,0.2,0.1c0,0,0.1,0,0.1-0.1c0,0,0-0.1-0.1-0.1c0,0,0,0,0,0c0,0,0,0,0,0c0,0,0,0,0,0
		c0-0.1,0.1-0.1,0.1-0.1c0.1,0,0.1,0.1,0.1,0.1c0.1,0,0.2,0,0.2-0.1c0.1-0.1,0-0.3-0.1-0.4c-0.1,0-0.1-0.1-0.2,0c0,0,0,0-0.1,0
		c0,0,0,0,0,0c0,0,0,0,0-0.1c0,0,0.1,0,0.1,0c0,0,0,0,0,0c0.2,0,0.3,0.2,0.2,0.4c0,0.1-0.1,0.2-0.3,0.2c0,0-0.1,0-0.1,0
		c-0.1,0-0.1,0-0.2,0C9.7,2.4,9.6,2.3,9.5,2.3C9.4,2.2,9.2,2.1,9.1,2.1c-0.1,0-0.2,0-0.3,0.1c0,0,0,0.1,0,0.1c0.2,0,0.4,0,0.6,0.1
		c0.1,0.1,0.2,0.1,0.3,0.2C9.9,2.7,9.9,2.8,10,2.8c0,0,0.1,0,0.1,0c0,0,0.1,0,0.1-0.1c0,0,0-0.1,0-0.1c0,0-0.1,0-0.1,0c0,0,0,0,0,0
		c0,0,0,0,0,0s0,0,0,0c0,0,0,0-0.1,0c0,0-0.1-0.1-0.1-0.1c0,0,0-0.1,0.1-0.1c0.1,0,0.2,0.1,0.2,0.2c0,0.1-0.1,0.2-0.2,0.2
		c-0.1,0-0.2-0.1-0.3-0.1C9.7,2.6,9.6,2.5,9.4,2.5C9.3,2.4,9.1,2.4,8.9,2.4c0,0-0.1,0-0.1,0.1c0,0,0,0,0,0c0.2,0,0.4,0,0.6,0.1
		C9.6,2.7,9.8,2.8,9.9,3c0,0.1,0.1,0.2,0.1,0.2c0,0,0.1,0.1,0.1,0.1c0.1,0,0.1,0,0.1-0.1c0,0,0-0.1,0-0.1c0,0-0.1,0-0.1,0
		c0,0,0,0,0,0.1c0,0,0,0,0,0.1c0,0,0,0-0.1,0c0,0,0-0.1,0-0.1c0,0,0.1-0.1,0.1,0c0.1,0.1,0.1,0.3,0,0.3c0,0.1,0.1,0.1,0.1,0.2
		c0,0.1,0,0.1,0,0.2c0,0.1-0.1,0.1-0.1,0.1c-0.1,0-0.1-0.1-0.1-0.1c0,0,0,0,0.1,0c0,0,0,0,0,0c0,0,0,0,0,0c0,0,0,0,0,0c0,0,0,0,0,0
		c0,0,0,0,0,0c0-0.1,0-0.2-0.1-0.2c0,0-0.1-0.1-0.1-0.1C10,3.4,10,3.3,9.9,3.2C9.9,3.1,9.8,3,9.7,2.9C9.6,2.7,9.4,2.6,9.2,2.6
		C9.1,2.5,9,2.5,8.8,2.5c0,0-0.1,0-0.1,0c-0.1,0.1-0.3,0.1-0.4,0C8.2,2.4,8.2,2.4,8.2,2.2c0,0,0-0.1,0-0.1c0-0.1,0-0.2,0-0.3
		c0-0.1-0.1-0.2-0.2-0.3C7.9,1.6,7.8,1.7,7.8,1.8c0,0.1,0,0.1,0,0.2c0,0.1,0,0.1,0,0.2c0,0,0,0,0,0c0,0.1-0.1,0.3-0.2,0.3
		c-0.1,0-0.2,0-0.2,0C7.2,2.5,7.1,2.5,7,2.5c-0.2,0-0.4,0.1-0.6,0.2C6.2,2.8,6.1,3,6.1,3.1C6,3.2,6,3.3,5.9,3.3c0,0-0.1,0.1-0.1,0.1
		C5.7,3.5,5.6,3.6,5.6,3.7c0,0,0,0,0,0c0,0,0,0,0,0c0,0,0,0,0,0c0,0,0,0,0,0c0,0,0,0,0,0c0,0,0,0,0,0c0,0,0.1,0,0.1,0
		c0,0,0,0.1-0.1,0.1c-0.1,0-0.1,0-0.1-0.1c0-0.1,0-0.2,0.1-0.3c0,0,0,0,0-0.1c-0.1,0-0.1-0.1-0.1-0.2c0-0.1,0-0.1,0.1-0.2
		c0,0,0.1,0,0.1,0c0,0,0,0.1,0,0.1c0,0,0,0-0.1,0c0,0,0,0,0-0.1c0,0,0-0.1,0-0.1c0,0,0,0-0.1,0c0,0-0.1,0.1,0,0.2c0,0,0,0,0.1,0
		c0.1,0,0.1-0.1,0.2-0.1C6,3.2,6,3.1,6.1,3c0.2-0.3,0.4-0.5,0.7-0.5c0.1,0,0.2,0,0.3-0.1c0-0.1-0.1-0.1-0.1-0.1
		c-0.2,0-0.4,0.1-0.6,0.2C6.3,2.6,6.2,2.7,6.1,2.8C6,2.8,5.9,2.9,5.8,2.9c-0.1,0-0.1,0-0.1-0.1c0-0.1,0-0.1,0.1-0.2
		c0.1,0,0.1-0.1,0.2,0c0,0,0.1,0.1,0.1,0.1c0,0,0,0.1-0.1,0.1c0,0,0,0,0,0c0,0,0,0,0,0c0,0,0.1,0,0-0.1c0,0-0.1,0-0.1,0
		c-0.1,0-0.1,0.1-0.1,0.1c0,0.1,0,0.1,0.1,0.1c0.1,0,0.2-0.1,0.3-0.1c0.1-0.1,0.2-0.2,0.3-0.2C6.6,2.4,6.8,2.3,7,2.3
		c0,0,0.1,0,0.1,0c0,0,0-0.1,0-0.1C7.1,2.2,7,2.1,6.9,2.1c-0.2,0-0.4,0.1-0.5,0.2C6.3,2.4,6.2,2.4,6,2.4c-0.1,0-0.1,0-0.2,0
		c0,0-0.1,0-0.1,0c-0.1,0-0.3-0.1-0.3-0.3C5.5,1.9,5.6,1.8,5.8,1.8z"/>
	<path class="st0" d="M2.2,9.2L2.2,9.2c0,0.1,0,0.1,0.1,0.2c0.1,0.1,0.2,0.2,0.3,0.2c0.2,0,0.3-0.1,0.2-0.3c0-0.1-0.1-0.1-0.1-0.1
		c-0.1,0-0.1,0-0.1,0.1c0,0.1,0,0.1,0.1,0.1c0,0,0,0,0,0c0,0,0,0-0.1,0C2.4,9.5,2.3,9.3,2.2,9.2C2.3,9.1,2.3,9.1,2.3,9c0,0,0,0,0,0
		c0,0,0,0,0,0c0,0,0,0.1,0,0.1C2.1,9.3,1.8,9.4,1.6,9.3c-0.1,0-0.2-0.1-0.2-0.2c0,0,0,0,0,0c0.1,0,0.1-0.1,0.1-0.2
		c0-0.1-0.1-0.1-0.2-0.1C1.3,8.9,1.2,8.9,1.2,9c0,0.2,0.1,0.4,0.2,0.5C1.6,9.5,1.8,9.5,2,9.4C2.1,9.4,2.1,9.3,2.2,9.2z"/>
	<path class="st0" d="M14.6,8.8c-0.1,0-0.1,0.1-0.1,0.1c0,0.1,0,0.1,0.1,0.2c0,0,0,0,0,0c0,0,0,0,0,0c-0.1,0.2-0.3,0.2-0.5,0.2
		C14,9.3,13.9,9.2,13.8,9c0,0,0-0.1-0.1-0.1c0,0,0,0.1,0,0.1c0,0.1,0,0.2-0.1,0.3c-0.1,0.1-0.1,0.1-0.2,0.1c0,0,0,0-0.1,0
		c0,0,0,0,0,0c0.1,0,0.1-0.1,0.1-0.1c0-0.1-0.1-0.1-0.1-0.1c-0.1,0-0.1,0-0.1,0.1c0,0.1,0,0.2,0.1,0.3c0.2,0.1,0.4,0,0.4-0.2
		c0-0.1,0-0.1,0.1-0.2c0,0,0.1,0.1,0.1,0.1c0,0,0.1,0.1,0.1,0.1c0.2,0.1,0.6,0.1,0.7-0.3c0-0.1,0-0.2,0-0.3
		C14.7,8.9,14.7,8.8,14.6,8.8z"/>
	<path class="st0" d="M3.1,3.6c0,0,0.1-0.1,0-0.2c0,0,0,0,0,0l0,0c0.1-0.1,0.3-0.1,0.4,0c0.2,0.1,0.3,0.3,0.3,0.5c0,0,0,0.1,0,0.1
		c0,0,0,0,0,0c0,0,0,0,0,0c0,0,0,0,0-0.1c0.1-0.2,0.3-0.3,0.4-0.2c0,0,0,0,0.1,0.1c-0.1,0-0.1,0-0.1,0.1c0,0.1,0,0.1,0,0.2
		c0.1,0,0.1,0,0.2,0c0.1-0.2,0-0.3-0.1-0.4c-0.1-0.1-0.2,0-0.4,0c0,0-0.1,0.1-0.1,0.1c0-0.1-0.1-0.2-0.1-0.3
		C3.6,3.2,3.3,3.1,3.1,3.3C3,3.3,2.9,3.4,2.9,3.5c0,0.1,0,0.1,0.1,0.2C3,3.7,3.1,3.7,3.1,3.6z"/>
	<path class="st0" d="M11.7,4.1c0,0,0.1-0.1,0.1-0.1c0-0.1-0.1-0.1-0.1-0.1c0,0,0,0,0,0c0,0,0.1,0,0.1-0.1c0.1-0.1,0.3,0,0.4,0.1
		c0,0,0,0.1,0.1,0.1c0,0,0,0,0,0c0,0,0,0,0,0c0,0,0-0.1,0-0.1c0-0.2,0.1-0.5,0.4-0.6c0.1,0,0.2,0,0.3,0.1c0,0,0,0,0,0
		c0,0.1,0,0.1,0,0.2c0,0,0.1,0.1,0.1,0c0.1,0,0.1-0.1,0.1-0.1c0,0,0-0.1,0-0.1c-0.1-0.2-0.3-0.3-0.4-0.2c-0.2,0-0.4,0.2-0.4,0.4
		c0,0.1,0,0.2-0.1,0.2c0,0-0.1-0.1-0.1-0.1c-0.1-0.1-0.4-0.1-0.5,0.1c-0.1,0.1,0,0.2,0,0.3C11.6,4.1,11.7,4.1,11.7,4.1z"/>
	<path class="st0" d="M2,11.2c-0.1-0.1,0-0.3,0.1-0.4c0.2-0.1,0.4-0.2,0.6-0.1c0,0,0.1,0,0.1,0c0,0,0,0,0,0c0,0,0,0,0,0c0,0,0,0,0,0
		c-0.1-0.1-0.1-0.2-0.1-0.3c0-0.1,0.1-0.2,0.2-0.2c0,0,0,0,0,0c0,0.1,0,0.1,0,0.2c0,0,0.1,0,0.1,0c0.1,0,0.1-0.1,0-0.2
		C3,10.1,3,10,2.8,10c-0.2,0-0.3,0.2-0.3,0.3c0,0.1,0,0.2,0.1,0.3c-0.1,0-0.2,0-0.3,0c-0.2,0-0.5,0.3-0.4,0.6c0,0.1,0.1,0.2,0.2,0.2
		c0.1,0,0.1,0,0.2,0c0,0,0.1-0.1,0-0.2C2.2,11.2,2.2,11.2,2,11.2C2.1,11.2,2.1,11.2,2,11.2z"/>
	<path class="st0" d="M13.5,10.6C13.4,10.6,13.4,10.6,13.5,10.6c0,0,0-0.1,0-0.1c0,0,0-0.1,0-0.1c0-0.2-0.1-0.3-0.2-0.3
		c-0.1,0-0.2,0-0.3,0.1c0,0.1,0,0.1,0.1,0.2c0.1,0,0.1,0,0.2,0c0,0,0-0.1,0-0.1l0,0c0.1,0,0.1,0,0.1,0.1c0.1,0.1,0,0.3-0.1,0.4
		c0,0,0,0,0,0c0,0,0,0,0,0c0,0,0,0,0,0c0,0,0,0,0.1,0c0.1-0.1,0.3-0.1,0.4-0.1c0.2,0,0.3,0.2,0.3,0.4c0,0,0,0,0,0.1c0,0,0,0,0,0
		c-0.1,0-0.1,0-0.2,0.1c0,0,0,0.1,0,0.2c0,0,0.1,0.1,0.2,0c0,0,0.1,0,0.1-0.1c0.2-0.2,0.1-0.5-0.1-0.7
		C13.8,10.6,13.6,10.6,13.5,10.6z"/>
	<path class="st0" d="M9.2,14.5c-0.1,0-0.1,0.1-0.1,0.1c0,0,0,0,0,0c-0.1,0-0.3-0.1-0.3-0.2c-0.1-0.2,0-0.4,0.1-0.5
		c0,0,0.1-0.1,0.1-0.1c0,0,0,0,0-0.1c0,0,0,0-0.1,0c0,0,0,0,0,0c-0.1,0.1-0.2,0.1-0.4,0c-0.1,0-0.1-0.1-0.1-0.2l0,0c0,0,0,0,0,0
		c0.1,0,0.1,0,0.2,0c0,0,0.1-0.1,0-0.1c0-0.1-0.1-0.1-0.1-0.1c-0.1,0-0.2,0.1-0.2,0.2c-0.1,0.2,0,0.3,0.2,0.4c0.1,0,0.2,0,0.3,0
		c0,0,0,0,0,0c-0.1,0.1-0.1,0.2-0.1,0.3c0,0.2,0.1,0.6,0.4,0.6c0.1,0,0.2,0,0.3-0.1c0,0,0.1-0.1,0-0.2C9.3,14.5,9.3,14.5,9.2,14.5z"
		/>
	<path class="st0" d="M7.6,13.3c-0.1,0-0.1,0-0.1,0.1c0,0.1,0,0.1,0,0.1c0,0,0.1,0,0.2,0c0,0,0,0,0,0c0,0.1,0,0.1-0.1,0.1
		c-0.1,0.1-0.3,0.1-0.4,0.1c0,0,0,0-0.1,0c0,0,0,0,0,0c0,0,0,0,0,0c0,0,0,0,0,0.1c0.1,0.1,0.2,0.2,0.2,0.4c0,0.2-0.1,0.4-0.3,0.4
		c0,0-0.1,0-0.1,0c0-0.1,0-0.1-0.1-0.2c-0.1,0-0.1,0-0.2,0c0,0.1,0,0.1,0,0.2c0.1,0.1,0.2,0.1,0.2,0.1c0.4,0,0.5-0.3,0.5-0.6
		c0-0.1-0.1-0.2-0.1-0.3l0,0c0.1,0,0.1,0,0.2,0c0.2,0,0.3-0.1,0.3-0.3C7.8,13.5,7.7,13.3,7.6,13.3z"/>
	<path class="st0" d="M5.1,2.9C5.1,2.9,5,2.9,5,3C4.8,3.1,4.8,3.3,4.9,3.4C5,3.5,5.1,3.5,5.2,3.5c0.1,0,0.1-0.1,0.1-0.1
		c0-0.1-0.1-0.1-0.1-0.1c0,0-0.1,0-0.1,0c0,0,0,0.1-0.1,0.1c0,0,0-0.1,0-0.1c0-0.2,0.1-0.4,0.3-0.4c0,0,0,0,0,0c0,0,0,0,0.1,0
		c0,0,0,0,0,0s0,0-0.1,0C5.2,2.8,5.2,2.8,5.1,2.9C4.9,2.7,4.8,2.4,4.8,2.2C4.9,2.2,4.9,2.1,5,2c0,0.1,0.1,0.1,0.2,0.1
		c0.1,0,0.1-0.1,0.1-0.1c0-0.1-0.1-0.1-0.1-0.1c-0.1,0-0.2,0-0.3,0.1c-0.3,0.2-0.2,0.6,0,0.7C4.9,2.7,5,2.8,5.1,2.9z"/>
	<path class="st0" d="M10.7,2.8c0,0-0.1,0-0.1,0c0,0,0,0,0,0c0,0,0,0,0,0c0,0,0,0,0.1,0c0.2,0,0.3,0.2,0.3,0.4c0,0,0,0.1,0,0.1
		c0,0,0-0.1,0-0.1c0,0-0.1-0.1-0.1,0c-0.1,0-0.1,0-0.1,0.1c0,0.1,0,0.1,0,0.1c0,0,0.1,0,0.1,0c0.2,0,0.3-0.2,0.3-0.4
		C11.1,3,11,2.9,10.7,2.8L10.7,2.8c0.1,0.1,0.1,0,0.1,0c0.2-0.1,0.4-0.2,0.4-0.5c0-0.2-0.1-0.5-0.3-0.5c-0.1,0-0.1,0-0.2,0.1
		c0,0,0,0.1,0,0.1c0,0.1,0.1,0.1,0.1,0.1c0,0,0.1,0,0.1-0.1c0.1,0.1,0.2,0.2,0.1,0.4C11.1,2.6,10.9,2.7,10.7,2.8z"/>
</g>
</svg>
