<?xml version="1.0" encoding="utf-8"?>
<!-- Generator: Adobe Illustrator 28.1.0, SVG Export Plug-In . SVG Version: 6.00 Build 0)  -->
<svg version="1.1" id="Layer_1" xmlns="http://www.w3.org/2000/svg" xmlns:xlink="http://www.w3.org/1999/xlink" x="0px" y="0px"
	 viewBox="0 0 16 16" style="enable-background:new 0 0 16 16;" xml:space="preserve">
<style type="text/css">
	.st0{fill:url(#SVGID_1_);}
	.st1{fill:url(#SVGID_00000157291723992233383690000016065647817522748330_);}
	.st2{fill:url(#SVGID_00000016776347667902737990000000492889383885047691_);}
	.st3{fill:#FFFFFF;}
</style>
<g>
	
		<linearGradient id="SVGID_1_" gradientUnits="userSpaceOnUse" x1="10.8692" y1="14.1035" x2="10.8692" y2="2.2882" gradientTransform="matrix(1 0 0 -1 0 18)">
		<stop  offset="0" style="stop-color:#AB0000"/>
		<stop  offset="0.7977" style="stop-color:#E79800"/>
	</linearGradient>
	<path class="st0" d="M14.6,9.8c0,3.1-2.3,5.6-5.3,5.9c2.4-0.7,4.2-3,4.2-5.7c0-3.3-2.6-5.9-5.8-5.9c-0.2,0-0.4,0-0.5,0
		C7.6,4,8.2,3.9,8.8,3.9C12,3.9,14.6,6.5,14.6,9.8z"/>
	
		<linearGradient id="SVGID_00000007422349857364692720000000036957889349266616_" gradientUnits="userSpaceOnUse" x1="4.7993" y1="6.083" x2="16.2196" y2="5.9536" gradientTransform="matrix(1 0 0 -1 0 18)">
		<stop  offset="0" style="stop-color:#AB0000"/>
		<stop  offset="0.6406" style="stop-color:#E79800"/>
	</linearGradient>
	<path style="fill:url(#SVGID_00000007422349857364692720000000036957889349266616_);" d="M7.9,14.8c-2.3,0-4.1-1.8-4.3-4
		C4.1,12.6,5.7,14,7.7,14c2.4,0,4.4-2,4.4-4.4c0-0.1,0-0.3,0-0.4c0.1,0.4,0.2,0.8,0.2,1.3C12.2,12.8,10.3,14.8,7.9,14.8z"/>
	
		<linearGradient id="SVGID_00000169542358711367377520000006002031628792547479_" gradientUnits="userSpaceOnUse" x1="1.8421" y1="14.2846" x2="14.378" y2="14.2846" gradientTransform="matrix(1 0 0 -1 0 18)">
		<stop  offset="0.1518" style="stop-color:#B80000"/>
		<stop  offset="0.5288" style="stop-color:#D70000"/>
		<stop  offset="0.9635" style="stop-color:#F8B200"/>
	</linearGradient>
	<path style="fill:url(#SVGID_00000169542358711367377520000006002031628792547479_);" d="M1.3,7.1h0.4C1.9,7.1,2,7,2.1,6.9
		C2.7,6,5,2.8,8.1,2.8c1.3,0,3.2-0.2,6.6,3.1c0,0-1.4-4.5-6.4-4.8c0,0-1.2-0.1-2.4,0.2C5.6,1.5,7.2,0.4,7.2,0.4S4,0.8,2.9,2.4l0.1-2
		c0,0-1.9,4.2-2,6.4C1,7,1.2,7.1,1.3,7.1z"/>
	<path class="st3" d="M2.3,5.2c0.1-0.3,0.1-0.5-0.1-0.6C2.1,4.6,1.9,4.8,1.9,5C1.8,5.3,1.8,5.6,1.9,5.6C2,5.7,2.2,5.5,2.3,5.2z"/>
</g>
</svg>
