<svg width="225" height="95" viewBox="0 0 225 95" fill="none" xmlns="http://www.w3.org/2000/svg">
<rect width="224.92" height="94.15" fill="white"/>
<g clip-path="url(#clip0_155_84)">
<path d="M68.6496 53.4005C68.6496 64.2705 60.3296 73.2005 49.6996 74.1505C58.3096 71.5905 64.5796 63.6205 64.5796 54.1805C64.5796 42.6705 55.2496 33.3405 43.7396 33.3405C43.0996 33.3405 42.4696 33.3705 41.8496 33.4305C43.7396 32.8605 45.7396 32.5605 47.8096 32.5605C59.3196 32.5605 68.6496 41.8905 68.6496 53.4005Z" fill="url(#paint0_linear_155_84)"/>
<path d="M44.4802 71.0002C36.3602 71.0002 29.7002 64.7902 28.9902 56.8502C30.9002 63.2802 36.8502 67.9602 43.9002 67.9602C52.4902 67.9602 59.4602 60.9902 59.4602 52.4002C59.4602 51.9202 59.4402 51.4502 59.3902 50.9902C59.8202 52.4002 60.0402 53.8902 60.0402 55.4402C60.0402 64.0302 53.0702 71.0002 44.4802 71.0002Z" fill="url(#paint1_linear_155_84)"/>
<path d="M21.22 43.8502H22.55C23.13 43.8502 23.67 43.5602 23.99 43.0802C26.04 40.0502 34.23 28.8102 45.51 28.7402C50.22 28.7102 56.98 28.0702 69.14 39.5902C69.14 39.5902 64.28 23.6402 46.25 22.8102C46.25 22.8102 42.14 22.5702 37.84 23.6302C36.54 23.9502 42.02 20.3002 42.02 20.3002C42.02 20.3002 30.73 21.7102 26.66 27.2002L26.97 19.9902C26.97 19.9902 20.01 34.6102 20 42.6502C20 43.3202 20.55 43.8502 21.22 43.8502Z" fill="url(#paint2_linear_155_84)"/>
<path d="M24.745 37.1947C25.092 36.2044 24.993 35.2683 24.5239 35.104C24.0548 34.9396 23.3933 35.6092 23.0463 36.5995C22.6993 37.5898 22.7982 38.5258 23.2673 38.6902C23.7364 38.8546 24.398 38.185 24.745 37.1947Z" fill="white"/>
<path d="M81.4504 41.7796C80.7504 41.4796 80.1904 41.0496 79.7804 40.4796C79.3704 39.9196 79.1604 39.2496 79.1504 38.4796H81.8504C81.8904 38.9996 82.0704 39.3996 82.4004 39.6996C82.7304 39.9996 83.1804 40.1496 83.7604 40.1496C84.3404 40.1496 84.8104 40.0096 85.1504 39.7296C85.4904 39.4496 85.6504 39.0796 85.6504 38.6196C85.6504 38.2496 85.5404 37.9396 85.3104 37.6996C85.0804 37.4596 84.8004 37.2696 84.4604 37.1296C84.1204 36.9896 83.6504 36.8396 83.0504 36.6696C82.2304 36.4296 81.5704 36.1896 81.0604 35.9596C80.5504 35.7296 80.1104 35.3696 79.7504 34.8996C79.3904 34.4296 79.2004 33.7896 79.2004 32.9996C79.2004 32.2596 79.3904 31.6096 79.7604 31.0596C80.1304 30.5096 80.6504 30.0896 81.3304 29.7896C82.0004 29.4996 82.7704 29.3496 83.6304 29.3496C84.9304 29.3496 85.9804 29.6596 86.7904 30.2996C87.6004 30.9296 88.0504 31.8096 88.1304 32.9396H85.3604C85.3404 32.5096 85.1504 32.1496 84.8104 31.8696C84.4704 31.5896 84.0204 31.4496 83.4504 31.4496C82.9604 31.4496 82.5704 31.5796 82.2704 31.8296C81.9704 32.0796 81.8304 32.4496 81.8304 32.9296C81.8304 33.2696 81.9404 33.5496 82.1604 33.7696C82.3804 33.9896 82.6604 34.1696 82.9904 34.3096C83.3204 34.4496 83.7804 34.6096 84.3904 34.7896C85.2104 35.0296 85.8704 35.2696 86.3904 35.5096C86.9104 35.7496 87.3504 36.1096 87.7204 36.5896C88.0904 37.0696 88.2804 37.6996 88.2804 38.4796C88.2804 39.1496 88.1104 39.7796 87.7604 40.3496C87.4104 40.9296 86.9004 41.3896 86.2304 41.7296C85.5604 42.0696 84.7604 42.2396 83.8404 42.2396C82.9604 42.2396 82.1704 42.0896 81.4704 41.7896L81.4504 41.7796Z" fill="black"/>
<path d="M90.6099 30.52C90.3199 30.24 90.1699 29.89 90.1699 29.47C90.1699 29.05 90.3199 28.7 90.6099 28.42C90.8999 28.14 91.2699 28 91.7199 28C92.1699 28 92.5299 28.14 92.8299 28.42C93.1199 28.7 93.2699 29.05 93.2699 29.47C93.2699 29.89 93.1199 30.24 92.8299 30.52C92.5399 30.8 92.1699 30.94 91.7199 30.94C91.2699 30.94 90.9099 30.8 90.6099 30.52ZM92.9599 32.13V42.1H90.4399V32.13H92.9599Z" fill="black"/>
<path d="M95.4008 34.3993C95.8008 33.6193 96.3508 33.0193 97.0508 32.5993C97.7508 32.1793 98.5208 31.9693 99.3708 31.9693C100.021 31.9693 100.641 32.1093 101.221 32.3893C101.811 32.6693 102.281 33.0493 102.621 33.5093V28.7793H105.181V42.0993H102.621V40.6193C102.311 41.1093 101.871 41.5093 101.311 41.8093C100.751 42.1093 100.091 42.2593 99.3508 42.2593C98.5108 42.2593 97.7408 42.0393 97.0508 41.6093C96.3508 41.1793 95.8008 40.5693 95.4008 39.7793C95.0008 38.9893 94.8008 38.0893 94.8008 37.0693C94.8008 36.0493 95.0008 35.1693 95.4008 34.3893V34.3993ZM102.281 35.5393C102.041 35.0993 101.721 34.7693 101.311 34.5293C100.901 34.2993 100.461 34.1793 100.001 34.1793C99.5408 34.1793 99.1008 34.2893 98.7008 34.5193C98.3008 34.7493 97.9808 35.0793 97.7408 35.5193C97.4908 35.9593 97.3708 36.4793 97.3708 37.0793C97.3708 37.6793 97.4908 38.1993 97.7408 38.6593C97.9908 39.1093 98.3108 39.4493 98.7108 39.6893C99.1108 39.9293 99.5408 40.0493 100.001 40.0493C100.461 40.0493 100.911 39.9293 101.311 39.6993C101.721 39.4693 102.041 39.1293 102.281 38.6893C102.521 38.2493 102.641 37.7293 102.641 37.1193C102.641 36.5093 102.521 35.9793 102.281 35.5393Z" fill="black"/>
<path d="M107.6 34.3993C108 33.6193 108.55 33.0193 109.25 32.5993C109.95 32.1793 110.72 31.9693 111.57 31.9693C112.22 31.9693 112.84 32.1093 113.42 32.3893C114.01 32.6693 114.48 33.0493 114.82 33.5093V28.7793H117.38V42.0993H114.82V40.6193C114.51 41.1093 114.07 41.5093 113.51 41.8093C112.95 42.1093 112.29 42.2593 111.55 42.2593C110.71 42.2593 109.94 42.0393 109.25 41.6093C108.55 41.1793 108 40.5693 107.6 39.7793C107.2 38.9893 107 38.0893 107 37.0693C107 36.0493 107.2 35.1693 107.6 34.3893V34.3993ZM114.48 35.5393C114.24 35.0993 113.92 34.7693 113.51 34.5293C113.1 34.2993 112.66 34.1793 112.2 34.1793C111.74 34.1793 111.3 34.2893 110.9 34.5193C110.5 34.7493 110.18 35.0793 109.94 35.5193C109.69 35.9593 109.57 36.4793 109.57 37.0793C109.57 37.6793 109.69 38.1993 109.94 38.6593C110.19 39.1093 110.51 39.4493 110.91 39.6893C111.31 39.9293 111.74 40.0493 112.2 40.0493C112.66 40.0493 113.11 39.9293 113.51 39.6993C113.92 39.4693 114.24 39.1293 114.48 38.6893C114.72 38.2493 114.84 37.7293 114.84 37.1193C114.84 36.5093 114.72 35.9793 114.48 35.5393Z" fill="black"/>
<path d="M127.479 32.4793C128.069 32.8093 128.529 33.2993 128.859 33.9393C129.189 34.5793 129.359 35.3493 129.359 36.2493V42.0993H126.839V36.5893C126.839 35.7993 126.639 35.1893 126.249 34.7593C125.849 34.3293 125.309 34.1193 124.629 34.1193C123.949 34.1193 123.379 34.3293 122.979 34.7593C122.579 35.1893 122.379 35.7993 122.379 36.5893V42.0993H119.859V28.7793H122.379V33.3693C122.699 32.9393 123.139 32.5993 123.679 32.3493C124.219 32.0993 124.819 31.9793 125.479 31.9793C126.239 31.9793 126.909 32.1493 127.499 32.4793H127.479Z" fill="black"/>
<path d="M131.92 30.52C131.63 30.24 131.48 29.89 131.48 29.47C131.48 29.05 131.63 28.7 131.92 28.42C132.21 28.14 132.58 28 133.03 28C133.48 28 133.84 28.14 134.14 28.42C134.43 28.7 134.58 29.05 134.58 29.47C134.58 29.89 134.43 30.24 134.14 30.52C133.85 30.8 133.48 30.94 133.03 30.94C132.58 30.94 132.22 30.8 131.92 30.52ZM134.27 32.13V42.1H131.75V32.13H134.27Z" fill="black"/>
<path d="M140.909 39.7809L143.429 32.1309H146.109L142.419 42.1009H139.359L135.689 32.1309H138.389L140.909 39.7809Z" fill="black"/>
<path d="M147.71 30.52C147.42 30.24 147.27 29.89 147.27 29.47C147.27 29.05 147.42 28.7 147.71 28.42C148 28.14 148.37 28 148.82 28C149.27 28 149.63 28.14 149.93 28.42C150.22 28.7 150.37 29.05 150.37 29.47C150.37 29.89 150.22 30.24 149.93 30.52C149.64 30.8 149.27 30.94 148.82 30.94C148.37 30.94 148.01 30.8 147.71 30.52ZM150.06 32.13V42.1H147.54V32.13H150.06Z" fill="black"/>
<path d="M160.951 33.1105C161.681 33.8605 162.051 34.9105 162.051 36.2505V42.1005H159.531V36.5905C159.531 35.8005 159.331 35.1905 158.941 34.7605C158.541 34.3305 158.001 34.1205 157.321 34.1205C156.641 34.1205 156.071 34.3305 155.671 34.7605C155.271 35.1905 155.071 35.8005 155.071 36.5905V42.1005H152.551V32.1305H155.071V33.3705C155.411 32.9405 155.841 32.6005 156.361 32.3505C156.881 32.1005 157.451 31.9805 158.081 31.9805C159.271 31.9805 160.231 32.3605 160.961 33.1005L160.951 33.1105Z" fill="black"/>
<path d="M164.389 34.4007C164.789 33.6207 165.339 33.0207 166.029 32.6007C166.719 32.1807 167.489 31.9707 168.339 31.9707C169.079 31.9707 169.729 32.1207 170.289 32.4207C170.849 32.7207 171.289 33.1007 171.629 33.5507V32.1307H174.169V42.1007H171.629V40.6407C171.309 41.1107 170.859 41.4907 170.289 41.8007C169.719 42.1107 169.059 42.2607 168.319 42.2607C167.479 42.2607 166.719 42.0407 166.029 41.6107C165.339 41.1807 164.789 40.5707 164.389 39.7807C163.989 38.9907 163.789 38.0907 163.789 37.0707C163.789 36.0507 163.989 35.1707 164.389 34.3907V34.4007ZM171.269 35.5407C171.029 35.1007 170.709 34.7707 170.299 34.5307C169.889 34.3007 169.449 34.1807 168.989 34.1807C168.529 34.1807 168.089 34.2907 167.689 34.5207C167.289 34.7507 166.969 35.0807 166.729 35.5207C166.479 35.9607 166.359 36.4807 166.359 37.0807C166.359 37.6807 166.479 38.2007 166.729 38.6607C166.979 39.1107 167.299 39.4507 167.699 39.6907C168.099 39.9307 168.529 40.0507 168.989 40.0507C169.449 40.0507 169.899 39.9307 170.299 39.7007C170.709 39.4707 171.029 39.1307 171.269 38.6907C171.509 38.2507 171.629 37.7307 171.629 37.1207C171.629 36.5107 171.509 35.9807 171.269 35.5407Z" fill="black"/>
<path d="M186.18 32.1309L180.01 46.8209H177.33L179.49 41.8509L175.49 32.1309H178.32L180.89 39.1009L183.5 32.1309H186.18Z" fill="black"/>
<path d="M187.491 34.4007C187.891 33.6207 188.441 33.0207 189.131 32.6007C189.821 32.1807 190.591 31.9707 191.441 31.9707C192.181 31.9707 192.831 32.1207 193.391 32.4207C193.951 32.7207 194.391 33.1007 194.731 33.5507V32.1307H197.271V42.1007H194.731V40.6407C194.411 41.1107 193.961 41.4907 193.391 41.8007C192.821 42.1107 192.161 42.2607 191.421 42.2607C190.581 42.2607 189.821 42.0407 189.131 41.6107C188.441 41.1807 187.891 40.5707 187.491 39.7807C187.091 38.9907 186.891 38.0907 186.891 37.0707C186.891 36.0507 187.091 35.1707 187.491 34.3907V34.4007ZM194.371 35.5407C194.131 35.1007 193.811 34.7707 193.401 34.5307C192.991 34.3007 192.551 34.1807 192.091 34.1807C191.631 34.1807 191.191 34.2907 190.791 34.5207C190.391 34.7507 190.071 35.0807 189.831 35.5207C189.581 35.9607 189.461 36.4807 189.461 37.0807C189.461 37.6807 189.581 38.2007 189.831 38.6607C190.081 39.1107 190.401 39.4507 190.801 39.6907C191.201 39.9307 191.631 40.0507 192.091 40.0507C192.551 40.0507 193.001 39.9307 193.401 39.7007C193.811 39.4707 194.131 39.1307 194.371 38.6907C194.611 38.2507 194.731 37.7307 194.731 37.1207C194.731 36.5107 194.611 35.9807 194.371 35.5407Z" fill="black"/>
<path d="M205.64 42.0993L202.26 37.8493V42.0993H199.74V28.7793H202.26V36.3593L205.61 32.1293H208.89L204.5 37.1293L208.93 42.0993H205.65H205.64Z" fill="black"/>
<path d="M79.6996 53.8893C80.2596 52.9093 81.0196 52.1493 81.9896 51.5993C82.9596 51.0493 84.0396 50.7793 85.2396 50.7793C86.6396 50.7793 87.8696 51.1393 88.9296 51.8593C89.9796 52.5793 90.7196 53.5793 91.1396 54.8493H88.2396C87.9496 54.2493 87.5496 53.7993 87.0296 53.4993C86.5096 53.1993 85.9096 53.0493 85.2196 53.0493C84.4896 53.0493 83.8396 53.2193 83.2696 53.5593C82.6996 53.8993 82.2596 54.3893 81.9396 55.0093C81.6196 55.6293 81.4596 56.3693 81.4596 57.2093C81.4596 58.0493 81.6196 58.7693 81.9396 59.3993C82.2596 60.0293 82.6996 60.5193 83.2696 60.8593C83.8396 61.1993 84.4896 61.3693 85.2196 61.3693C85.8996 61.3693 86.5096 61.2193 87.0296 60.9093C87.5496 60.5993 87.9596 60.1493 88.2396 59.5493H91.1396C90.7196 60.8293 89.9896 61.8293 88.9296 62.5493C87.8796 63.2593 86.6496 63.6193 85.2296 63.6193C84.0296 63.6193 82.9496 63.3493 81.9796 62.7993C81.0096 62.2493 80.2496 61.4893 79.6896 60.5193C79.1296 59.5493 78.8496 58.4393 78.8496 57.2093C78.8496 55.9793 79.1296 54.8693 79.6896 53.8893H79.6996Z" fill="black"/>
<path d="M95.1399 63.0409C94.3699 62.6109 93.7699 62.0109 93.3299 61.2309C92.8899 60.4509 92.6699 59.5509 92.6699 58.5309C92.6699 57.5109 92.8899 56.6109 93.3399 55.8309C93.7899 55.0509 94.3999 54.4509 95.1799 54.0209C95.9599 53.5909 96.8299 53.3809 97.7899 53.3809C98.7499 53.3809 99.6199 53.5909 100.4 54.0209C101.18 54.4509 101.8 55.0509 102.25 55.8309C102.7 56.6109 102.92 57.5109 102.92 58.5309C102.92 59.5509 102.69 60.4509 102.23 61.2309C101.77 62.0109 101.14 62.6109 100.36 63.0409C99.5699 63.4709 98.6899 63.6809 97.7199 63.6809C96.7499 63.6809 95.8999 63.4709 95.1299 63.0409H95.1399ZM99.0199 61.1509C99.4199 60.9309 99.7399 60.6009 99.9799 60.1509C100.22 59.7109 100.34 59.1709 100.34 58.5309C100.34 57.5809 100.09 56.8509 99.5899 56.3409C99.0899 55.8309 98.4799 55.5709 97.7599 55.5709C97.0399 55.5709 96.4399 55.8209 95.9499 56.3409C95.4599 56.8509 95.2199 57.5809 95.2199 58.5309C95.2199 59.4809 95.4599 60.2109 95.9299 60.7209C96.3999 61.2309 96.9999 61.4809 97.7199 61.4809C98.1799 61.4809 98.5999 61.3709 99.0099 61.1509H99.0199Z" fill="black"/>
<path d="M113.189 54.5206C113.919 55.2706 114.289 56.3206 114.289 57.6606V63.5106H111.769V58.0006C111.769 57.2106 111.569 56.6006 111.179 56.1706C110.779 55.7406 110.239 55.5306 109.559 55.5306C108.879 55.5306 108.309 55.7406 107.909 56.1706C107.509 56.6006 107.309 57.2106 107.309 58.0006V63.5106H104.789V53.5406H107.309V54.7806C107.649 54.3506 108.079 54.0106 108.599 53.7606C109.119 53.5106 109.689 53.3906 110.319 53.3906C111.509 53.3906 112.469 53.7706 113.199 54.5106L113.189 54.5206Z" fill="black"/>
<path d="M118.301 63.2409C117.651 62.9509 117.141 62.5509 116.761 62.0409C116.381 61.5309 116.181 60.9809 116.141 60.3709H118.681C118.731 60.7509 118.921 61.0709 119.251 61.3209C119.581 61.5709 119.991 61.7009 120.481 61.7009C120.971 61.7009 121.331 61.6009 121.601 61.4109C121.871 61.2209 122.011 60.9709 122.011 60.6709C122.011 60.3509 121.841 60.1009 121.511 59.9409C121.181 59.7809 120.651 59.6009 119.931 59.4109C119.191 59.2309 118.581 59.0409 118.101 58.8509C117.631 58.6609 117.221 58.3609 116.881 57.9709C116.541 57.5809 116.371 57.0409 116.371 56.3709C116.371 55.8209 116.531 55.3109 116.851 54.8609C117.171 54.4009 117.621 54.0409 118.221 53.7809C118.811 53.5209 119.511 53.3809 120.321 53.3809C121.511 53.3809 122.461 53.6809 123.161 54.2709C123.871 54.8609 124.261 55.6709 124.331 56.6709H121.921C121.881 56.2709 121.721 55.9609 121.421 55.7209C121.131 55.4909 120.731 55.3709 120.241 55.3709C119.781 55.3709 119.431 55.4509 119.191 55.6209C118.951 55.7909 118.821 56.0209 118.821 56.3209C118.821 56.6609 118.991 56.9109 119.321 57.0909C119.661 57.2609 120.181 57.4409 120.891 57.6209C121.611 57.8009 122.201 57.9909 122.671 58.1809C123.141 58.3709 123.541 58.6709 123.881 59.0709C124.221 59.4709 124.401 60.0009 124.411 60.6609C124.411 61.2409 124.251 61.7509 123.931 62.2109C123.611 62.6709 123.161 63.0209 122.561 63.2809C121.971 63.5409 121.271 63.6709 120.481 63.6709C119.691 63.6709 118.931 63.5209 118.281 63.2309L118.301 63.2409Z" fill="black"/>
<path d="M135.91 53.5391V63.5091H133.37V62.2491C133.05 62.6791 132.62 63.0191 132.1 63.2691C131.58 63.5191 131.01 63.6391 130.4 63.6391C129.62 63.6391 128.93 63.4791 128.33 63.1391C127.73 62.8091 127.26 62.3191 126.92 61.6791C126.58 61.0391 126.41 60.2691 126.41 59.3891V53.5391H128.93V59.0291C128.93 59.8191 129.13 60.4291 129.52 60.8591C129.92 61.2891 130.46 61.4991 131.14 61.4991C131.82 61.4991 132.38 61.2891 132.78 60.8591C133.18 60.4291 133.37 59.8191 133.37 59.0291V53.5391H135.91Z" fill="black"/>
<path d="M140.911 50.1895V63.5095H138.391V50.1895H140.911Z" fill="black"/>
<path d="M146.33 55.6105V60.4305C146.33 60.7705 146.41 61.0105 146.57 61.1605C146.73 61.3105 147 61.3905 147.39 61.3905H148.56V63.5105H146.98C144.86 63.5105 143.79 62.4805 143.79 60.4105V55.6005H142.6V53.5305H143.79V51.0605H146.33V53.5305H148.56V55.6005H146.33V55.6105Z" fill="black"/>
<path d="M150.549 51.9302C150.259 51.6502 150.109 51.3002 150.109 50.8802C150.109 50.4602 150.259 50.1102 150.549 49.8302C150.839 49.5502 151.209 49.4102 151.659 49.4102C152.109 49.4102 152.469 49.5502 152.769 49.8302C153.059 50.1102 153.209 50.4602 153.209 50.8802C153.209 51.3002 153.059 51.6502 152.769 51.9302C152.479 52.2102 152.109 52.3502 151.659 52.3502C151.209 52.3502 150.849 52.2102 150.549 51.9302ZM152.899 53.5402V63.5102H150.379V53.5402H152.899Z" fill="black"/>
<path d="M163.791 54.5206C164.521 55.2706 164.891 56.3206 164.891 57.6606V63.5106H162.371V58.0006C162.371 57.2106 162.171 56.6006 161.781 56.1706C161.381 55.7406 160.841 55.5306 160.161 55.5306C159.481 55.5306 158.911 55.7406 158.511 56.1706C158.111 56.6006 157.911 57.2106 157.911 58.0006V63.5106H155.391V53.5406H157.911V54.7806C158.251 54.3506 158.681 54.0106 159.201 53.7606C159.721 53.5106 160.291 53.3906 160.921 53.3906C162.111 53.3906 163.071 53.7706 163.801 54.5106L163.791 54.5206Z" fill="black"/>
<path d="M173.151 53.8191C173.711 54.1091 174.161 54.4891 174.481 54.9591V53.5391H177.021V63.5791C177.021 64.4991 176.831 65.3291 176.461 66.0591C176.091 66.7891 175.531 67.3591 174.791 67.7891C174.051 68.2191 173.151 68.4291 172.091 68.4291C170.671 68.4291 169.511 68.0991 168.611 67.4391C167.701 66.7791 167.191 65.8791 167.071 64.7391H169.571C169.701 65.1991 169.991 65.5591 170.421 65.8291C170.851 66.0991 171.391 66.2291 172.011 66.2291C172.741 66.2291 173.341 66.0091 173.791 65.5691C174.241 65.1291 174.471 64.4691 174.471 63.5791V62.0291C174.151 62.4991 173.701 62.8891 173.131 63.1991C172.561 63.5091 171.911 63.6691 171.181 63.6691C170.341 63.6691 169.571 63.4491 168.881 63.0191C168.181 62.5891 167.631 61.9791 167.231 61.1891C166.831 60.3991 166.631 59.4991 166.631 58.4791C166.631 57.4591 166.831 56.5791 167.231 55.7991C167.631 55.0191 168.181 54.4191 168.871 53.9991C169.561 53.5791 170.331 53.3691 171.181 53.3691C171.921 53.3691 172.581 53.5191 173.141 53.8091L173.151 53.8191ZM174.121 56.9491C173.881 56.5091 173.561 56.1791 173.151 55.9391C172.741 55.7091 172.301 55.5891 171.841 55.5891C171.381 55.5891 170.941 55.6991 170.541 55.9291C170.141 56.1591 169.821 56.4891 169.581 56.9291C169.331 57.3691 169.211 57.8891 169.211 58.4891C169.211 59.0891 169.331 59.6091 169.581 60.0691C169.831 60.5191 170.151 60.8591 170.551 61.0991C170.951 61.3391 171.381 61.4591 171.841 61.4591C172.301 61.4591 172.751 61.3391 173.151 61.1091C173.561 60.8791 173.881 60.5391 174.121 60.0991C174.361 59.6591 174.481 59.1391 174.481 58.5291C174.481 57.9191 174.361 57.3891 174.121 56.9491Z" fill="black"/>
</g>
<defs>
<linearGradient id="paint0_linear_155_84" x1="55.2496" y1="32.5605" x2="55.2496" y2="74.1505" gradientUnits="userSpaceOnUse">
<stop stop-color="#AB0000"/>
<stop offset="0.797696" stop-color="#E79800"/>
</linearGradient>
<linearGradient id="paint1_linear_155_84" x1="33.5557" y1="62.4548" x2="74.342" y2="62.9236" gradientUnits="userSpaceOnUse">
<stop stop-color="#AB0000"/>
<stop offset="0.640625" stop-color="#E79800"/>
</linearGradient>
<linearGradient id="paint2_linear_155_84" x1="23.0076" y1="31.9203" x2="67.7787" y2="31.9203" gradientUnits="userSpaceOnUse">
<stop offset="0.151832" stop-color="#B80000"/>
<stop offset="0.528796" stop-color="#D70000"/>
<stop offset="0.963542" stop-color="#F8B200"/>
</linearGradient>
<clipPath id="clip0_155_84">
<rect width="188.92" height="54.15" fill="white" transform="translate(20 20)"/>
</clipPath>
</defs>
</svg>
