<svg width="20" height="20" viewBox="0 0 20 20" fill="none" xmlns="http://www.w3.org/2000/svg">
<g id="place 1">
<g id="Group">
<g id="Group_2">
<path id="Vector" d="M10 0C5.77832 0 2.34375 3.43457 2.34375 7.65625C2.34375 9.00758 2.70078 10.3361 3.37621 11.4982C3.53367 11.7692 3.70969 12.0332 3.89945 12.283L9.66734 20H10.3326L16.1005 12.283C16.2903 12.0332 16.4663 11.7692 16.6238 11.4983C17.2992 10.3361 17.6562 9.00758 17.6562 7.65625C17.6562 3.43457 14.2217 0 10 0ZM10 10.1953C8.59996 10.1953 7.46094 9.05629 7.46094 7.65625C7.46094 6.25621 8.59996 5.11719 10 5.11719C11.4 5.11719 12.5391 6.25621 12.5391 7.65625C12.5391 9.05629 11.4 10.1953 10 10.1953Z" fill="#BB0101"/>
</g>
</g>
</g>
</svg>
