<svg width="20" height="24" viewBox="0 0 20 24" fill="none" xmlns="http://www.w3.org/2000/svg">
<path id="Vector" d="M13.5633 11.1414C15.0757 10.0384 16.0606 8.25329 16.0606 6.24226C16.0606 2.90043 13.3418 0.181641 10 0.181641C6.65817 0.181641 3.93939 2.90043 3.93939 6.24226C3.93939 8.25329 4.92422 10.0384 6.43667 11.1414C2.67701 12.5801 0 16.2254 0 20.4847C0 22.3227 1.49533 23.818 3.33333 23.818H16.6667C18.5047 23.818 20 22.3227 20 20.4847C20 16.2254 17.323 12.5801 13.5633 11.1414ZM5.75759 6.24226C5.75759 3.90299 7.66073 1.99984 10 1.99984C12.3393 1.99984 14.2424 3.90299 14.2424 6.24226C14.2424 8.58152 12.3393 10.4847 10 10.4847C7.66073 10.4847 5.75759 8.58152 5.75759 6.24226ZM16.6667 21.9998H3.33333C2.49789 21.9998 1.8182 21.3202 1.8182 20.4847C1.8182 15.9732 5.48849 12.3028 10 12.3028C14.5116 12.3028 18.1819 15.9731 18.1819 20.4847C18.1818 21.3202 17.5022 21.9998 16.6667 21.9998Z" fill="#414141"/>
</svg>
