<svg width="124" height="68" viewBox="0 0 124 68" fill="none" xmlns="http://www.w3.org/2000/svg">
<g id="Layer_1" clip-path="url(#clip0_807_42)">
<g id="Group">
<path id="Vector" d="M21.2361 36.5299C21.2361 37.7991 21.0402 38.9305 20.6413 39.9314C20.2424 40.9323 19.684 41.7736 18.9659 42.4626C18.2479 43.1516 17.3776 43.6811 16.3622 44.0437C15.3468 44.4063 14.2227 44.5877 12.9897 44.5877H10.8501C10.4875 44.5877 10.0668 44.5877 9.60267 44.5732C9.13849 44.5659 8.72508 44.5587 8.37695 44.5587V28.4431H10.8501C11.1983 28.4431 11.5537 28.4431 11.909 28.4286C12.2644 28.4213 12.6271 28.4141 12.9897 28.4141C14.2227 28.4141 15.3468 28.6026 16.355 28.987C17.3631 29.3714 18.2262 29.9081 18.9587 30.6044C19.684 31.3007 20.2497 32.1565 20.6486 33.1574C21.0475 34.1655 21.2433 35.2824 21.2433 36.5226L21.2361 36.5299ZM18.2697 36.4573C18.2697 35.7756 18.1681 35.1301 17.9723 34.5209C17.7765 33.9116 17.4864 33.3749 17.102 32.918C16.7176 32.4611 16.2534 32.0912 15.7022 31.8228C15.1438 31.5545 14.52 31.4022 13.8238 31.3732C13.6497 31.3587 13.4756 31.3514 13.3016 31.3514H11.2563V41.6648H13.8455C14.0051 41.6648 14.1719 41.6431 14.3532 41.6068C14.5345 41.5705 14.7086 41.527 14.8609 41.4762C15.4121 41.3167 15.9053 41.0701 16.3332 40.7365C16.7611 40.4028 17.1165 40.0112 17.3994 39.5615C17.6822 39.1119 17.8998 38.6187 18.0448 38.0892C18.1899 37.5598 18.2552 37.0158 18.2552 36.4646L18.2697 36.4573Z" fill="black"/>
<path id="Vector_2" d="M42.7977 42.0857C41.9419 42.8908 41.0281 43.5073 40.0635 43.9279C39.0989 44.3486 38.0835 44.5589 37.0246 44.5589C35.9004 44.5589 34.8488 44.3558 33.8624 43.9424C32.876 43.529 32.0202 42.9633 31.2877 42.2308C30.5551 41.5055 29.9749 40.6497 29.5543 39.6633C29.1336 38.677 28.916 37.6253 28.916 36.5011C28.916 35.377 29.1263 34.3253 29.5543 33.3389C29.9749 32.3598 30.5624 31.504 31.3022 30.786C32.0419 30.068 32.905 29.495 33.8841 29.0743C34.8633 28.6537 35.9222 28.4434 37.0463 28.4434C38.1052 28.4434 39.1206 28.6537 40.0852 29.0743C41.0498 29.495 41.9564 30.1115 42.7977 30.9165L40.7307 32.8893C40.1795 32.3816 39.5848 31.9899 38.9465 31.7143C38.3156 31.4387 37.6773 31.3009 37.0463 31.3009C36.3356 31.3009 35.6538 31.4387 35.0156 31.7071C34.3773 31.9754 33.8189 32.3453 33.3402 32.824C32.8615 33.3027 32.4916 33.8539 32.2088 34.4849C31.9332 35.1159 31.7954 35.7904 31.7954 36.5084C31.7954 37.2264 31.9332 37.9154 32.2015 38.5537C32.4699 39.1846 32.847 39.7359 33.3184 40.2073C33.7899 40.6787 34.3483 41.0413 34.9793 41.3097C35.6103 41.578 36.292 41.7158 37.0246 41.7158C37.6556 41.7158 38.2938 41.578 38.9393 41.3024C39.5775 41.0268 40.1795 40.6352 40.7307 40.1275L42.7977 42.1002V42.0857Z" fill="black"/>
<path id="Vector_3" d="M51.8653 28.4941C52.9749 28.4941 54.0193 28.7045 54.9985 29.1251C55.9776 29.5458 56.8262 30.1188 57.5587 30.8513C58.2912 31.5838 58.8642 32.4324 59.2848 33.4042C59.7055 34.3761 59.9158 35.4205 59.9158 36.5302C59.9158 37.6398 59.7055 38.706 59.2848 39.6778C58.8642 40.6497 58.2912 41.4983 57.5587 42.2235C56.8262 42.9488 55.9776 43.5145 54.9985 43.9352C54.0193 44.3558 52.9822 44.5662 51.8653 44.5662C50.7484 44.5662 49.6895 44.3558 48.7103 43.9352C47.7312 43.5145 46.8826 42.9488 46.1501 42.2235C45.4176 41.4983 44.8446 40.657 44.424 39.6778C44.0033 38.706 43.793 37.6543 43.793 36.5302C43.793 35.406 44.0033 34.3761 44.424 33.4042C44.8446 32.4324 45.4176 31.5765 46.1501 30.8513C46.8826 30.126 47.7312 29.5458 48.7103 29.1251C49.6895 28.7045 50.7411 28.4941 51.8653 28.4941ZM57.0292 36.5374C57.0292 35.8266 56.8914 35.1521 56.6231 34.5212C56.3547 33.8902 55.9848 33.339 55.5207 32.8748C55.0565 32.4106 54.5053 32.0335 53.867 31.7579C53.236 31.4823 52.5615 31.3445 51.8435 31.3445C51.1255 31.3445 50.4365 31.4823 49.8127 31.7579C49.189 32.0335 48.6378 32.4034 48.1736 32.8748C47.7094 33.339 47.3396 33.8902 47.0712 34.5212C46.8029 35.1521 46.6651 35.8266 46.6651 36.5374C46.6651 37.2482 46.8029 37.9372 47.0712 38.5682C47.3396 39.1919 47.7094 39.7359 48.1736 40.2073C48.6378 40.6715 49.189 41.0414 49.8127 41.3097C50.4365 41.5781 51.1182 41.7159 51.8435 41.7159C52.5688 41.7159 53.2288 41.5781 53.867 41.3097C54.498 41.0414 55.0492 40.6715 55.5207 40.2073C55.9921 39.7431 56.3547 39.1992 56.6231 38.5682C56.8914 37.9444 57.0292 37.2699 57.0292 36.5374Z" fill="black"/>
<path id="Vector_4" d="M71.4605 28.7324H74.289V44.5651L65.3754 35.6298V44.5651H62.5469V28.7324L71.4605 37.3342V28.7324Z" fill="black"/>
<path id="Vector_5" d="M82.0799 31.1991C81.6375 31.1991 81.2531 31.3369 80.9267 31.6125C80.6004 31.8881 80.4408 32.2508 80.4408 32.6932C80.4408 32.947 80.5061 33.1791 80.6439 33.3822C80.7817 33.5853 80.963 33.7884 81.1878 33.9769C81.4199 34.1655 81.681 34.3468 81.9856 34.5209C82.283 34.6949 82.6021 34.869 82.9357 35.0431C83.3927 35.2969 83.8568 35.5653 84.3138 35.8409C84.7707 36.1165 85.1841 36.4356 85.5467 36.8055C85.9094 37.1681 86.2067 37.5815 86.4388 38.0385C86.6709 38.4954 86.7869 39.0393 86.7869 39.6558C86.7869 40.4464 86.6564 41.1426 86.3953 41.7446C86.1342 42.3466 85.7715 42.847 85.3146 43.2532C84.8577 43.6593 84.3065 43.9639 83.6755 44.1815C83.0445 44.3918 82.341 44.5006 81.5867 44.5006C80.6656 44.5006 79.7663 44.2758 78.8742 43.8334C77.9894 43.391 77.2641 42.6947 76.7129 41.7446C76.8579 41.6503 77.0248 41.5343 77.2206 41.3892C77.4164 41.2442 77.6267 41.0991 77.8371 40.9395C78.0474 40.78 78.2577 40.6277 78.4535 40.4754C78.6494 40.3231 78.8234 40.1925 78.9612 40.0837C79.1063 40.3666 79.2804 40.6132 79.4834 40.8235C79.6865 41.0266 79.9113 41.2006 80.1579 41.3312C80.4045 41.469 80.6584 41.5633 80.9195 41.6141C81.1806 41.6721 81.4272 41.7011 81.6665 41.7011C82.254 41.7011 82.7399 41.556 83.1316 41.2587C83.516 40.9686 83.7118 40.5189 83.7118 39.9169C83.7118 39.6486 83.6392 39.3947 83.5014 39.1699C83.3564 38.9378 83.1678 38.7275 82.9285 38.5316C82.6891 38.3358 82.4135 38.14 82.0944 37.9514C81.7753 37.7628 81.4417 37.5743 81.0935 37.3785C80.6366 37.1246 80.1797 36.8563 79.7373 36.5807C79.2949 36.3051 78.8887 35.9859 78.5261 35.6305C78.1634 35.2752 77.8661 34.869 77.6485 34.4193C77.4237 33.9697 77.3149 33.4402 77.3149 32.8382C77.3149 32.113 77.4382 31.4747 77.692 30.9235C77.9459 30.3796 78.2867 29.9226 78.7292 29.56C79.1643 29.1974 79.6793 28.9218 80.2595 28.7404C80.8397 28.5591 81.4707 28.4648 82.1379 28.4648C82.4861 28.4648 82.856 28.5084 83.2403 28.5954C83.6247 28.6824 84.0091 28.813 84.3935 28.987C84.7707 29.1611 85.1406 29.3787 85.4887 29.6325C85.8368 29.8864 86.1487 30.1692 86.417 30.4884C86.2865 30.6624 86.1197 30.8655 85.9094 31.1048C85.699 31.3442 85.5177 31.5473 85.3727 31.7213L84.5894 32.5989C84.2267 32.1855 83.8278 31.8519 83.3999 31.5908C82.972 31.3297 82.5296 31.1991 82.0654 31.1991H82.0799Z" fill="black"/>
<path id="Vector_6" d="M102.714 28.4721C102.743 29.8501 102.772 31.2644 102.786 32.7004C102.801 34.1437 102.808 35.5508 102.808 36.9288V37.8209C102.808 38.0167 102.794 38.2125 102.757 38.4011V38.3793C102.678 39.3439 102.467 40.207 102.119 40.9685C101.771 41.7301 101.3 42.3756 100.719 42.905C100.132 43.4345 99.4429 43.8406 98.6523 44.1307C97.8618 44.4208 96.977 44.5586 96.0123 44.5586C95.0477 44.5586 94.2427 44.4063 93.4594 44.109C92.6761 43.8116 91.9871 43.3837 91.3923 42.8397C90.7976 42.2958 90.3189 41.643 89.9563 40.8888C89.5937 40.1345 89.3688 39.3004 89.2891 38.3793C89.26 38.14 89.2383 37.8861 89.2383 37.6178V34.5281C89.2383 33.9116 89.2455 33.2734 89.26 32.6279V31.6633C89.26 31.2934 89.26 30.909 89.2745 30.5101C89.2818 30.1112 89.2891 29.7341 89.2891 29.3714V28.4648H92.1394V38.2343C92.1394 38.742 92.2482 39.2061 92.473 39.6268C92.6978 40.0474 92.988 40.4028 93.3506 40.7002C93.7132 40.9976 94.1339 41.2224 94.5981 41.3892C95.0622 41.556 95.5337 41.6358 96.0123 41.6358C96.491 41.6358 96.9552 41.5488 97.4121 41.3892C97.869 41.2224 98.2824 40.9903 98.6378 40.7002C98.9932 40.4101 99.2833 40.0474 99.5082 39.6268C99.733 39.2061 99.8418 38.742 99.8418 38.2343V28.4648H102.721L102.714 28.4721Z" fill="black"/>
<path id="Vector_7" d="M109.008 41.7086H114.615V44.5589H106.129V28.4434H109.008V41.7086Z" fill="black"/>
<path id="Vector_8" d="M113.238 28.4219H123.312V31.2722H119.722V44.5592H116.842V31.2722H113.23V28.4219H113.238Z" fill="black"/>
</g>
<g id="Group_2">
<path id="Vector_9" d="M54.8814 50.0859C53.6485 52.9725 52.0239 55.4965 50.0004 57.665C47.3459 60.5008 44.6188 62.4011 41.812 63.3657C39.0342 64.3303 35.93 64.8162 32.4922 64.8162C24.0138 64.8162 19.7782 61.2406 19.7782 54.0894V50.0859H8.28262V56.8962C8.28262 62.2633 5.51933 64.9975 0 65.0846V66.8977H38.5048C47.3749 66.8977 54.8524 63.6703 60.952 57.2154C63.048 54.9888 64.7597 52.6099 66.1087 50.0932H54.8814V50.0859Z" fill="#DB2121"/>
<path id="Vector_10" d="M8.28263 11.1436V23.3789H19.7782V3.04227H27.7853C31.68 3.04227 35.582 3.82556 39.5057 5.39215C43.4294 6.95875 46.6859 9.19259 49.2824 12.0864C52.2923 15.4372 54.5044 19.1941 55.9114 23.3717H77.4738C78.4819 19.2739 80.0848 15.5532 82.2896 12.2242C86.547 5.79831 91.9285 2.57084 98.4415 2.54183C110.082 2.54183 117.386 8.49633 120.345 20.4126L122.158 20.2313L120.983 0.996996H119.17C119.018 3.70952 116.921 4.37677 112.882 2.9915C107.21 1.06227 102.503 0.0976562 98.7606 0.0976562C91.7327 0.0976562 85.4446 1.67875 79.889 4.8482C74.3406 8.01765 70.1268 12.1807 67.2619 17.3374C66.834 18.1135 66.4569 18.8968 66.0942 19.6946C64.3971 16.3873 62.1995 13.4137 59.5088 10.7737C56.4336 7.81457 52.7057 5.43567 48.3323 3.62249C44.0459 1.90359 39.4912 1.04051 34.6681 1.04051H0V2.8537C5.51934 2.94073 8.28263 5.70402 8.28263 11.1363V11.1436Z" fill="#DB2121"/>
<path id="Vector_11" d="M99.6094 65.4472C88.5779 65.4472 81.4485 60.3195 78.2065 50.0859H66.7617C67.0011 50.5356 67.2331 50.978 67.487 51.4204C70.5622 56.6424 74.6962 60.6677 79.8819 63.5035C85.2489 66.4336 91.6313 67.8914 99.0219 67.8914C111.388 67.8914 119.714 62.9305 124 53.0015L122.281 52.5011C117.85 61.1318 110.293 65.44 99.6094 65.44V65.4472Z" fill="#DB2121"/>
</g>
</g>
<defs>
<clipPath id="clip0_807_42">
<rect width="124" height="67.784" fill="white" transform="translate(0 0.107422)"/>
</clipPath>
</defs>
</svg>
