<svg width="26" height="27" viewBox="0 0 26 27" fill="none" xmlns="http://www.w3.org/2000/svg">
<g id="down-right 1">
<g id="Group">
<path id="Vector" d="M18.4167 7C18.0917 7 17.875 7.10833 17.6583 7.325L6.825 18.1583C6.39167 18.5917 6.39167 19.2417 6.825 19.675C7.25833 20.1083 7.90833 20.1083 8.34167 19.675L19.175 8.84167C19.6083 8.40833 19.6083 7.75833 19.175 7.325C18.9583 7.10833 18.7417 7 18.4167 7Z" fill="white"/>
<path id="Vector_2" d="M18.4173 6.99935H8.66732C8.01732 6.99935 7.58398 7.43268 7.58398 8.08268C7.58398 8.73268 8.01732 9.16602 8.66732 9.16602H17.334V17.8327C17.334 18.4827 17.7673 18.916 18.4173 18.916C19.0673 18.916 19.5006 18.4827 19.5006 17.8327V8.08268C19.5006 7.43268 19.0673 6.99935 18.4173 6.99935Z" fill="white"/>
</g>
</g>
</svg>
