<svg width="512" height="512" viewBox="0 0 512 512" fill="none" xmlns="http://www.w3.org/2000/svg">
<path d="M341.344 26.0267H170.678C76.4696 26.0267 26.6776 75.8187 26.6776 170.016L26.6562 276.683C26.6562 396.6 81.7603 420.693 170.656 420.693H181.26C182.866 421.035 184.362 421.769 185.615 422.829L217.615 465.496C221.842 471.798 227.556 476.963 234.252 480.535C240.949 484.106 248.421 485.975 256.01 485.975C263.6 485.975 271.072 484.106 277.768 480.535C284.465 476.963 290.179 471.798 294.406 465.496L326.428 422.818C326.922 422.158 327.563 421.622 328.301 421.253C329.039 420.884 329.853 420.692 330.678 420.693H341.323C435.531 420.693 485.323 370.901 485.323 276.704L485.344 170.037C485.344 75.8281 435.552 26.0267 341.344 26.0267ZM453.323 276.704C453.323 353.11 417.739 388.693 341.323 388.693H330.678C324.886 388.706 319.177 390.061 313.997 392.651C308.818 395.241 304.308 398.995 300.823 403.621L268.823 446.287C267.533 448.546 265.668 450.424 263.418 451.731C261.168 453.037 258.613 453.725 256.011 453.725C253.409 453.725 250.854 453.037 248.603 451.731C246.353 450.424 244.489 448.546 243.198 446.287L211.198 403.621C207.606 399.112 203.074 395.441 197.918 392.863C192.762 390.285 187.106 388.862 181.344 388.693H170.656C91.677 388.693 58.6563 373.131 58.6563 276.683L58.6776 170.016C58.6776 93.61 94.2616 58.0267 170.678 58.0267H341.344C417.76 58.0267 453.344 93.6205 453.344 170.037L453.323 276.704ZM378.667 170.027C378.666 174.27 376.98 178.339 373.98 181.339C370.979 184.339 366.91 186.026 362.667 186.027H149.334C145.09 186.027 141.021 184.341 138.02 181.34C135.02 178.34 133.334 174.27 133.334 170.027C133.334 165.783 135.02 161.714 138.02 158.713C141.021 155.712 145.09 154.027 149.334 154.027H362.667C366.91 154.028 370.979 155.714 373.98 158.714C376.98 161.715 378.666 165.784 378.667 170.027ZM336 276.693C335.999 280.936 334.313 285.005 331.313 288.006C328.313 291.006 324.244 292.692 320 292.693H192C187.757 292.693 183.687 291.008 180.687 288.007C177.686 285.006 176 280.937 176 276.693C176 272.45 177.686 268.38 180.687 265.38C183.687 262.379 187.757 260.693 192 260.693H320C324.244 260.694 328.313 262.381 331.313 265.381C334.313 268.381 335.999 272.45 336 276.693Z" fill="white"/>
</svg>
