<svg width="150" height="150" viewBox="0 0 150 150" fill="none" xmlns="http://www.w3.org/2000/svg">
<g id="check 1" clip-path="url(#clip0_440_768)">
<path id="Vector" d="M75 0C33.6448 0 0 33.6448 0 75C0 116.355 33.6448 150 75 150C116.355 150 150 116.355 150 75C150 33.6448 116.355 0 75 0ZM75 145.312C36.2294 145.312 4.6875 113.77 4.6875 75C4.6875 36.2297 36.2294 4.6875 75 4.6875C113.771 4.6875 145.312 36.2297 145.312 75C145.312 113.77 113.771 145.312 75 145.312ZM112.604 49.2926C113.043 49.7321 113.29 50.3282 113.29 50.9498C113.29 51.5713 113.043 52.1674 112.604 52.6069L67.7259 97.4848C67.5082 97.7025 67.2498 97.8752 66.9654 97.993C66.6811 98.1108 66.3762 98.1714 66.0684 98.1714C65.7606 98.1714 65.4558 98.1108 65.1714 97.993C64.887 97.8752 64.6286 97.7025 64.4109 97.4848L40.6189 73.6928C40.1794 73.2532 39.9326 72.657 39.9326 72.0354C39.9327 71.4138 40.1796 70.8176 40.6192 70.3781C41.0588 69.9386 41.655 69.6917 42.2766 69.6918C42.8982 69.6918 43.4944 69.9388 43.9339 70.3784L66.0686 92.5131L109.289 49.2926C109.507 49.0749 109.765 48.9023 110.049 48.7845C110.334 48.6667 110.639 48.6061 110.946 48.6061C111.254 48.6061 111.559 48.6667 111.843 48.7845C112.128 48.9023 112.386 49.0749 112.604 49.2926Z" fill="#56B82E"/>
</g>
<defs>
<clipPath id="clip0_440_768">
<rect width="150" height="150" fill="white"/>
</clipPath>
</defs>
</svg>
