<svg width="140" height="77" viewBox="0 0 140 77" fill="none" xmlns="http://www.w3.org/2000/svg">
<g id="Layer_1" clip-path="url(#clip0_810_93)">
<g id="Group">
<path id="Vector" d="M23.9754 41.124C23.9754 42.557 23.7543 43.8344 23.3039 44.9644C22.8535 46.0944 22.223 47.0443 21.4123 47.8222C20.6017 48.6001 19.619 49.1979 18.4726 49.6073C17.3262 50.0167 16.057 50.2215 14.665 50.2215H12.2493C11.8399 50.2215 11.365 50.2215 10.8409 50.2051C10.3168 50.1969 9.85008 50.1887 9.45703 50.1887V31.9937H12.2493C12.6424 31.9937 13.0436 31.9937 13.4449 31.9773C13.8461 31.9691 14.2555 31.9609 14.665 31.9609C16.057 31.9609 17.3262 32.1738 18.4645 32.6078C19.6027 33.0418 20.5771 33.6478 21.4042 34.4339C22.223 35.22 22.8617 36.1862 23.3121 37.3163C23.7625 38.4545 23.9836 39.7155 23.9836 41.1158L23.9754 41.124ZM20.6262 41.0421C20.6262 40.2723 20.5116 39.5436 20.2905 38.8557C20.0694 38.1679 19.7419 37.5619 19.3079 37.046C18.8739 36.5302 18.3498 36.1125 17.7275 35.8096C17.097 35.5066 16.3927 35.3346 15.6066 35.3019C15.4101 35.2855 15.2136 35.2773 15.0171 35.2773H12.7079V46.9215H15.6312C15.8114 46.9215 15.9997 46.8969 16.2044 46.856C16.4091 46.815 16.6057 46.7659 16.7776 46.7086C17.3999 46.5284 17.9568 46.25 18.4399 45.8733C18.923 45.4966 19.3243 45.0545 19.6436 44.5468C19.963 44.0391 20.2086 43.4823 20.3724 42.8845C20.5362 42.2867 20.6099 41.6726 20.6099 41.0503L20.6262 41.0421Z" fill="white"/>
<path id="Vector_2" d="M48.3194 47.3968C47.3531 48.3058 46.3214 49.0018 45.2323 49.4767C44.1432 49.9517 42.9968 50.1891 41.8013 50.1891C40.5321 50.1891 39.3447 49.9599 38.2311 49.4931C37.1174 49.0264 36.1512 48.3876 35.3241 47.5606C34.4971 46.7417 33.842 45.7755 33.3671 44.6619C32.8921 43.5482 32.6465 42.3609 32.6465 41.0916C32.6465 39.8224 32.884 38.6351 33.3671 37.5214C33.842 36.416 34.5053 35.4497 35.3405 34.639C36.1758 33.8284 37.1502 33.1815 38.2557 32.7065C39.3611 32.2316 40.5566 31.9941 41.8259 31.9941C43.0214 31.9941 44.1678 32.2316 45.2569 32.7065C46.346 33.1815 47.3695 33.8775 48.3194 34.7864L45.9857 37.0137C45.3633 36.4405 44.6919 35.9984 43.9713 35.6872C43.2589 35.376 42.5383 35.2204 41.8259 35.2204C41.0234 35.2204 40.2537 35.376 39.5331 35.679C38.8125 35.982 38.182 36.3996 37.6415 36.94C37.1011 37.4805 36.6834 38.1028 36.3641 38.8152C36.0529 39.5276 35.8973 40.2892 35.8973 41.0998C35.8973 41.9105 36.0529 42.6884 36.3559 43.409C36.6589 44.1214 37.0847 44.7437 37.6169 45.276C38.1492 45.8083 38.7797 46.2177 39.4921 46.5207C40.2045 46.8236 40.9743 46.9792 41.8013 46.9792C42.5137 46.9792 43.2343 46.8236 43.9631 46.5125C44.6837 46.2013 45.3633 45.7591 45.9857 45.1859L48.3194 47.4132V47.3968Z" fill="white"/>
<path id="Vector_3" d="M58.5553 32.0508C59.8082 32.0508 60.9873 32.2882 62.0928 32.7632C63.1982 33.2381 64.1563 33.885 64.9834 34.7121C65.8104 35.5391 66.4573 36.4972 66.9322 37.5944C67.4072 38.6917 67.6446 39.8709 67.6446 41.1237C67.6446 42.3766 67.4072 43.5803 66.9322 44.6775C66.4573 45.7748 65.8104 46.7329 64.9834 47.5517C64.1563 48.3706 63.1982 49.0093 62.0928 49.4842C60.9873 49.9592 59.8164 50.1966 58.5553 50.1966C57.2943 50.1966 56.0987 49.9592 54.9933 49.4842C53.8878 49.0093 52.9297 48.3706 52.1027 47.5517C51.2757 46.7329 50.6288 45.783 50.1538 44.6775C49.6789 43.5803 49.4414 42.3929 49.4414 41.1237C49.4414 39.8545 49.6789 38.6917 50.1538 37.5944C50.6288 36.4972 51.2757 35.5309 52.1027 34.7121C52.9297 33.8932 53.8878 33.2381 54.9933 32.7632C56.0987 32.2882 57.2861 32.0508 58.5553 32.0508ZM64.3856 41.1319C64.3856 40.3294 64.23 39.5679 63.927 38.8555C63.624 38.1431 63.2064 37.5207 62.6824 36.9967C62.1583 36.4726 61.536 36.0468 60.8154 35.7356C60.1029 35.4245 59.3414 35.2689 58.5307 35.2689C57.7201 35.2689 56.9422 35.4245 56.2379 35.7356C55.5337 36.0468 54.9114 36.4644 54.3873 36.9967C53.8632 37.5207 53.4456 38.1431 53.1426 38.8555C52.8397 39.5679 52.6841 40.3294 52.6841 41.1319C52.6841 41.9344 52.8397 42.7123 53.1426 43.4247C53.4456 44.1289 53.8632 44.7431 54.3873 45.2753C54.9114 45.7994 55.5337 46.217 56.2379 46.52C56.9422 46.823 57.7119 46.9785 58.5307 46.9785C59.3496 46.9785 60.0948 46.823 60.8154 46.52C61.5278 46.217 62.1501 45.7994 62.6824 45.2753C63.2146 44.7512 63.624 44.1371 63.927 43.4247C64.23 42.7205 64.3856 41.9589 64.3856 41.1319Z" fill="white"/>
<path id="Vector_4" d="M80.6809 32.3203H83.8745V50.1959L73.8107 40.1076V50.1959H70.6172V32.3203L80.6809 42.032V32.3203Z" fill="white"/>
<path id="Vector_5" d="M92.6689 35.1047C92.1694 35.1047 91.7354 35.2603 91.3669 35.5714C90.9985 35.8826 90.8183 36.292 90.8183 36.7915C90.8183 37.0781 90.892 37.3402 91.0476 37.5694C91.2032 37.7987 91.4079 38.028 91.6617 38.2409C91.9238 38.4538 92.2185 38.6585 92.5625 38.855C92.8982 39.0516 93.2585 39.2481 93.6352 39.4446C94.151 39.7312 94.6751 40.0342 95.191 40.3454C95.7069 40.6565 96.1736 41.0168 96.5831 41.4344C96.9925 41.8439 97.3282 42.3106 97.5902 42.8265C97.8523 43.3424 97.9833 43.9565 97.9833 44.6526C97.9833 45.5451 97.8359 46.3312 97.5411 47.0109C97.2463 47.6905 96.8369 48.2555 96.321 48.7141C95.8051 49.1727 95.1828 49.5166 94.4704 49.7622C93.758 49.9997 92.9637 50.1225 92.1121 50.1225C91.0721 50.1225 90.0568 49.8687 89.0496 49.3692C88.0506 48.8697 87.2317 48.0836 86.6094 47.0109C86.7731 46.9044 86.9615 46.7734 87.1826 46.6096C87.4037 46.4459 87.6411 46.2821 87.8786 46.1019C88.1161 45.9218 88.3535 45.7498 88.5746 45.5779C88.7957 45.4059 88.9923 45.2585 89.1478 45.1357C89.3116 45.455 89.5081 45.7334 89.7374 45.9709C89.9667 46.2002 90.2205 46.3967 90.4989 46.5441C90.7774 46.6997 91.064 46.8062 91.3587 46.8635C91.6535 46.929 91.9319 46.9617 92.2022 46.9617C92.8654 46.9617 93.4141 46.798 93.8563 46.4622C94.2903 46.1347 94.5113 45.627 94.5113 44.9473C94.5113 44.6444 94.4295 44.3578 94.2739 44.1039C94.1101 43.8419 93.8972 43.6044 93.627 43.3833C93.3568 43.1622 93.0456 42.9411 92.6853 42.7282C92.325 42.5153 91.9483 42.3024 91.5553 42.0813C91.0394 41.7947 90.5235 41.4918 90.024 41.1806C89.5245 40.8694 89.0659 40.5091 88.6565 40.1079C88.2471 39.7067 87.9114 39.2481 87.6657 38.7404C87.4119 38.2327 87.289 37.6349 87.289 36.9553C87.289 36.1364 87.4282 35.4158 87.7148 34.7935C88.0014 34.1794 88.3863 33.6635 88.8858 33.2541C89.3771 32.8446 89.9585 32.5335 90.6136 32.3287C91.2687 32.124 91.9811 32.0176 92.7344 32.0176C93.1275 32.0176 93.5451 32.0667 93.9791 32.165C94.4131 32.2632 94.8471 32.4106 95.2811 32.6072C95.7069 32.8037 96.1245 33.0493 96.5175 33.3359C96.9106 33.6225 97.2627 33.9419 97.5657 34.3022C97.4183 34.4987 97.2299 34.728 96.9925 34.9982C96.755 35.2684 96.5503 35.4977 96.3865 35.6943L95.5022 36.6851C95.0927 36.2183 94.6424 35.8416 94.1592 35.5469C93.6761 35.2521 93.1766 35.1047 92.6525 35.1047H92.6689Z" fill="white"/>
<path id="Vector_6" d="M115.966 32.0258C115.999 33.5816 116.032 35.1784 116.048 36.7997C116.065 38.4292 116.073 40.0178 116.073 41.5736V42.5808C116.073 42.8019 116.056 43.023 116.015 43.2359V43.2113C115.925 44.3004 115.688 45.2749 115.295 46.1347C114.902 46.9945 114.37 47.7232 113.714 48.321C113.051 48.9188 112.273 49.3773 111.381 49.7049C110.488 50.0324 109.489 50.188 108.4 50.188C107.311 50.188 106.402 50.016 105.518 49.6803C104.633 49.3446 103.855 48.8615 103.184 48.2473C102.512 47.6332 101.972 46.8962 101.563 46.0446C101.153 45.193 100.899 44.2513 100.809 43.2113C100.777 42.9411 100.752 42.6545 100.752 42.3515V38.8632C100.752 38.1672 100.76 37.4466 100.777 36.7178V35.6287C100.777 35.2111 100.777 34.7771 100.793 34.3268C100.801 33.8764 100.809 33.4506 100.809 33.0411V32.0176H104.027V43.0476C104.027 43.6208 104.15 44.1448 104.404 44.6198C104.658 45.0947 104.985 45.496 105.395 45.8317C105.804 46.1674 106.279 46.4213 106.803 46.6096C107.327 46.7979 107.86 46.888 108.4 46.888C108.941 46.888 109.465 46.7897 109.98 46.6096C110.496 46.4213 110.963 46.1592 111.364 45.8317C111.766 45.5041 112.093 45.0947 112.347 44.6198C112.601 44.1448 112.724 43.6208 112.724 43.0476V32.0176H115.975L115.966 32.0258Z" fill="white"/>
<path id="Vector_7" d="M123.073 46.971H129.403V50.1891H119.822V31.9941H123.073V46.971Z" fill="white"/>
<path id="Vector_8" d="M127.848 31.9688H139.222V35.1869H135.169V50.1883H131.918V35.1869H127.84V31.9688H127.848Z" fill="white"/>
</g>
<g id="Group_2">
<path id="Vector_9" d="M61.9629 56.4277C60.5709 59.6868 58.7366 62.5364 56.452 64.9848C53.455 68.1865 50.3761 70.3319 47.2071 71.421C44.0709 72.5101 40.5662 73.0587 36.6848 73.0587C27.1124 73.0587 22.3302 69.0217 22.3302 60.9478V56.4277H9.35135V64.1168C9.35135 70.1763 6.2315 73.2634 0 73.3617V75.4088H43.4731C53.4877 75.4088 61.9302 71.7649 68.8167 64.4771C71.1832 61.9632 73.1157 59.2774 74.6388 56.4359H61.9629V56.4277Z" fill="white"/>
<path id="Vector_10" d="M9.35136 12.4614V26.2755H22.3303V3.31479H31.3704C35.7677 3.31479 40.1732 4.19916 44.6032 5.96789C49.0332 7.73662 52.7099 10.2587 55.6414 13.5259C59.0396 17.3091 61.5372 21.5507 63.1257 26.2674H87.4704C88.6086 21.6408 90.4183 17.4401 92.9076 13.6815C97.7143 6.42645 103.79 2.78254 111.144 2.74978C124.286 2.74978 132.532 9.4726 135.873 22.9264L137.92 22.7217L136.594 1.00562H134.547C134.375 4.06814 132.008 4.82149 127.447 3.25747C121.044 1.07931 115.729 -0.00976562 111.504 -0.00976562C103.569 -0.00976562 96.4696 1.77534 90.1972 5.35375C83.9329 8.93215 79.1754 13.6324 75.9409 19.4545C75.4577 20.3306 75.0319 21.215 74.6225 22.1158C72.7064 18.3818 70.2252 15.0245 67.1873 12.0438C63.7153 8.70288 59.5064 6.01702 54.5687 3.96988C49.7292 2.02919 44.5868 1.05475 39.1414 1.05475H0V3.10189C6.23151 3.20015 9.35136 6.32 9.35136 12.4532V12.4614Z" fill="white"/>
<path id="Vector_11" d="M112.461 73.7711C100.006 73.7711 91.9569 67.9818 88.2966 56.4277H75.375C75.6452 56.9354 75.9073 57.4349 76.1939 57.9344C79.6658 63.8302 84.3333 68.3749 90.1881 71.5766C96.2477 74.8848 103.454 76.5307 111.798 76.5307C125.759 76.5307 135.16 70.9297 139.999 59.7195L138.059 59.1545C133.055 68.8989 124.523 73.7629 112.461 73.7629V73.7711Z" fill="white"/>
</g>
</g>
<defs>
<clipPath id="clip0_810_93">
<rect width="140" height="76.5304" fill="white"/>
</clipPath>
</defs>
</svg>
