<svg width="31" height="23" viewBox="0 0 31 23" fill="none" xmlns="http://www.w3.org/2000/svg">
<g id="Email" clip-path="url(#clip0_800_595)">
<path id="Vector" d="M3.3125 0.25C1.75977 0.25 0.5 1.50977 0.5 3.0625C0.5 3.94727 0.916016 4.7793 1.625 5.3125L14.375 14.875C15.043 15.373 15.957 15.373 16.625 14.875L29.375 5.3125C30.084 4.7793 30.5 3.94727 30.5 3.0625C30.5 1.50977 29.2402 0.25 27.6875 0.25H3.3125ZM0.5 6.8125V19C0.5 21.0684 2.18164 22.75 4.25 22.75H26.75C28.8184 22.75 30.5 21.0684 30.5 19V6.8125L17.75 16.375C16.4141 17.377 14.5859 17.377 13.25 16.375L0.5 6.8125Z" fill="#E38A04"/>
</g>
<defs>
<clipPath id="clip0_800_595">
<rect width="31" height="23" fill="white"/>
</clipPath>
</defs>
</svg>
