<svg width="28" height="29" viewBox="0 0 28 29" fill="none" xmlns="http://www.w3.org/2000/svg">
<g id="phone-receiver-silhouette 1" clip-path="url(#clip0_800_590)">
<g id="Group">
<path id="Vector" d="M24.1261 19.9882C22.4346 18.5414 20.718 17.6651 19.0473 19.1096L18.0496 19.9827C17.3197 20.6164 15.9626 23.5776 10.7156 17.5416C5.46958 11.5133 8.59138 10.5747 9.32239 9.9464L10.3255 9.07226C11.9874 7.62445 11.3602 5.80186 10.1616 3.92572L9.43821 2.78933C8.23407 0.917564 6.92285 -0.311704 5.25651 1.13392L4.35614 1.92065C3.61967 2.45715 1.56106 4.20108 1.0617 7.51409C0.460726 11.4893 2.35653 16.0414 6.69995 21.036C11.0379 26.0329 15.2852 28.5428 19.3084 28.4991C22.652 28.463 24.6713 26.6688 25.3029 26.0165L26.2065 25.2287C27.8685 23.7841 26.8359 22.3134 25.1433 20.8634L24.1261 19.9882Z" fill="#E38A04"/>
</g>
</g>
<defs>
<clipPath id="clip0_800_590">
<rect width="28" height="28" fill="white" transform="translate(0 0.5)"/>
</clipPath>
</defs>
</svg>
